<svg width="1196" height="152" viewBox="0 0 1196 152" fill="none" xmlns="http://www.w3.org/2000/svg">
<rect width="1196" height="152" rx="20" fill="white"/>
<rect x="21" y="21" width="110" height="110" rx="20" fill="#243CE6"/>
<path d="M93.0352 60.8203L84.9297 52.6172C84.0508 51.7383 82.7812 51.25 81.6094 51.25H61.6875C59.0508 51.25 57 53.3984 57 55.9375V96.5625C57 99.1992 59.0508 101.25 61.6875 101.25H89.8125C92.3516 101.25 94.5 99.1992 94.5 96.5625V64.1406C94.5 62.9688 93.9141 61.6992 93.0352 60.8203ZM90.8867 63.0664C91.082 63.2617 91.1797 63.5547 91.2773 63.75H82V54.4727C82.1953 54.5703 82.4883 54.668 82.6836 54.8633L90.8867 63.0664ZM89.8125 98.125H61.6875C60.8086 98.125 60.125 97.4414 60.125 96.5625V55.9375C60.125 55.1562 60.8086 54.375 61.6875 54.375H78.875V64.5312C78.875 65.8984 79.8516 66.875 81.2188 66.875H91.375V96.5625C91.375 97.4414 90.5938 98.125 89.8125 98.125Z" fill="white"/>
<path d="M199.88 59.06C201.4 59.06 202.713 59.3467 203.82 59.92C204.94 60.48 205.793 61.2867 206.38 62.34C206.98 63.3933 207.28 64.6333 207.28 66.06C207.28 67.4867 206.98 68.7267 206.38 69.78C205.793 70.82 204.94 71.62 203.82 72.18C202.713 72.7267 201.4 73 199.88 73H195.54V59.06H199.88ZM199.88 71.5C201.68 71.5 203.053 71.0267 204 70.08C204.947 69.12 205.42 67.78 205.42 66.06C205.42 64.3267 204.94 62.9733 203.98 62C203.033 61.0267 201.667 60.54 199.88 60.54H197.36V71.5H199.88ZM214.461 73.18C213.434 73.18 212.501 72.9467 211.661 72.48C210.834 72.0133 210.181 71.3533 209.701 70.5C209.234 69.6333 209.001 68.6333 209.001 67.5C209.001 66.38 209.241 65.3933 209.721 64.54C210.214 63.6733 210.881 63.0133 211.721 62.56C212.561 62.0933 213.501 61.86 214.541 61.86C215.581 61.86 216.521 62.0933 217.361 62.56C218.201 63.0133 218.861 63.6667 219.341 64.52C219.834 65.3733 220.081 66.3667 220.081 67.5C220.081 68.6333 219.827 69.6333 219.321 70.5C218.827 71.3533 218.154 72.0133 217.301 72.48C216.447 72.9467 215.501 73.18 214.461 73.18ZM214.461 71.58C215.114 71.58 215.727 71.4267 216.301 71.12C216.874 70.8133 217.334 70.3533 217.681 69.74C218.041 69.1267 218.221 68.38 218.221 67.5C218.221 66.62 218.047 65.8733 217.701 65.26C217.354 64.6467 216.901 64.1933 216.341 63.9C215.781 63.5933 215.174 63.44 214.521 63.44C213.854 63.44 213.241 63.5933 212.681 63.9C212.134 64.1933 211.694 64.6467 211.361 65.26C211.027 65.8733 210.861 66.62 210.861 67.5C210.861 68.3933 211.021 69.1467 211.341 69.76C211.674 70.3733 212.114 70.8333 212.661 71.14C213.207 71.4333 213.807 71.58 214.461 71.58ZM237.074 62.04L233.654 73H231.774L229.134 64.3L226.494 73H224.614L221.174 62.04H223.034L225.554 71.24L228.274 62.04H230.134L232.794 71.26L235.274 62.04H237.074ZM244.22 61.84C245.553 61.84 246.633 62.2467 247.46 63.06C248.287 63.86 248.7 65.02 248.7 66.54V73H246.9V66.8C246.9 65.7067 246.627 64.8733 246.08 64.3C245.533 63.7133 244.787 63.42 243.84 63.42C242.88 63.42 242.113 63.72 241.54 64.32C240.98 64.92 240.7 65.7933 240.7 66.94V73H238.88V62.04H240.7V63.6C241.06 63.04 241.547 62.6067 242.16 62.3C242.787 61.9933 243.473 61.84 244.22 61.84ZM253.493 58.2V73H251.673V58.2H253.493ZM261.375 73.18C260.348 73.18 259.415 72.9467 258.575 72.48C257.748 72.0133 257.095 71.3533 256.615 70.5C256.148 69.6333 255.915 68.6333 255.915 67.5C255.915 66.38 256.155 65.3933 256.635 64.54C257.128 63.6733 257.795 63.0133 258.635 62.56C259.475 62.0933 260.415 61.86 261.455 61.86C262.495 61.86 263.435 62.0933 264.275 62.56C265.115 63.0133 265.775 63.6667 266.255 64.52C266.748 65.3733 266.995 66.3667 266.995 67.5C266.995 68.6333 266.741 69.6333 266.235 70.5C265.741 71.3533 265.068 72.0133 264.215 72.48C263.361 72.9467 262.415 73.18 261.375 73.18ZM261.375 71.58C262.028 71.58 262.641 71.4267 263.215 71.12C263.788 70.8133 264.248 70.3533 264.595 69.74C264.955 69.1267 265.135 68.38 265.135 67.5C265.135 66.62 264.961 65.8733 264.615 65.26C264.268 64.6467 263.815 64.1933 263.255 63.9C262.695 63.5933 262.088 63.44 261.435 63.44C260.768 63.44 260.155 63.5933 259.595 63.9C259.048 64.1933 258.608 64.6467 258.275 65.26C257.941 65.8733 257.775 66.62 257.775 67.5C257.775 68.3933 257.935 69.1467 258.255 69.76C258.588 70.3733 259.028 70.8333 259.575 71.14C260.121 71.4333 260.721 71.58 261.375 71.58ZM268.708 67.48C268.708 66.36 268.934 65.38 269.388 64.54C269.841 63.6867 270.461 63.0267 271.248 62.56C272.048 62.0933 272.934 61.86 273.908 61.86C274.868 61.86 275.701 62.0667 276.408 62.48C277.114 62.8933 277.641 63.4133 277.988 64.04V62.04H279.828V73H277.988V70.96C277.628 71.6 277.088 72.1333 276.368 72.56C275.661 72.9733 274.834 73.18 273.888 73.18C272.914 73.18 272.034 72.94 271.248 72.46C270.461 71.98 269.841 71.3067 269.388 70.44C268.934 69.5733 268.708 68.5867 268.708 67.48ZM277.988 67.5C277.988 66.6733 277.821 65.9533 277.488 65.34C277.154 64.7267 276.701 64.26 276.128 63.94C275.568 63.6067 274.948 63.44 274.268 63.44C273.588 63.44 272.968 63.6 272.408 63.92C271.848 64.24 271.401 64.7067 271.068 65.32C270.734 65.9333 270.568 66.6533 270.568 67.48C270.568 68.32 270.734 69.0533 271.068 69.68C271.401 70.2933 271.848 70.7667 272.408 71.1C272.968 71.42 273.588 71.58 274.268 71.58C274.948 71.58 275.568 71.42 276.128 71.1C276.701 70.7667 277.154 70.2933 277.488 69.68C277.821 69.0533 277.988 68.3267 277.988 67.5ZM282.223 67.48C282.223 66.36 282.45 65.38 282.903 64.54C283.357 63.6867 283.977 63.0267 284.763 62.56C285.563 62.0933 286.457 61.86 287.443 61.86C288.297 61.86 289.09 62.06 289.823 62.46C290.557 62.8467 291.117 63.36 291.503 64V58.2H293.343V73H291.503V70.94C291.143 71.5933 290.61 72.1333 289.903 72.56C289.197 72.9733 288.37 73.18 287.423 73.18C286.45 73.18 285.563 72.94 284.763 72.46C283.977 71.98 283.357 71.3067 282.903 70.44C282.45 69.5733 282.223 68.5867 282.223 67.48ZM291.503 67.5C291.503 66.6733 291.337 65.9533 291.003 65.34C290.67 64.7267 290.217 64.26 289.643 63.94C289.083 63.6067 288.463 63.44 287.783 63.44C287.103 63.44 286.483 63.6 285.923 63.92C285.363 64.24 284.917 64.7067 284.583 65.32C284.25 65.9333 284.083 66.6533 284.083 67.48C284.083 68.32 284.25 69.0533 284.583 69.68C284.917 70.2933 285.363 70.7667 285.923 71.1C286.483 71.42 287.103 71.58 287.783 71.58C288.463 71.58 289.083 71.42 289.643 71.1C290.217 70.7667 290.67 70.2933 291.003 69.68C291.337 69.0533 291.503 68.3267 291.503 67.5ZM297.359 60.26C297.012 60.26 296.719 60.14 296.479 59.9C296.239 59.66 296.119 59.3667 296.119 59.02C296.119 58.6733 296.239 58.38 296.479 58.14C296.719 57.9 297.012 57.78 297.359 57.78C297.692 57.78 297.972 57.9 298.199 58.14C298.439 58.38 298.559 58.6733 298.559 59.02C298.559 59.3667 298.439 59.66 298.199 59.9C297.972 60.14 297.692 60.26 297.359 60.26ZM298.239 62.04V73H296.419V62.04H298.239ZM306.681 61.84C308.014 61.84 309.094 62.2467 309.921 63.06C310.747 63.86 311.161 65.02 311.161 66.54V73H309.361V66.8C309.361 65.7067 309.087 64.8733 308.541 64.3C307.994 63.7133 307.247 63.42 306.301 63.42C305.341 63.42 304.574 63.72 304.001 64.32C303.441 64.92 303.161 65.7933 303.161 66.94V73H301.341V62.04H303.161V63.6C303.521 63.04 304.007 62.6067 304.621 62.3C305.247 61.9933 305.934 61.84 306.681 61.84ZM318.654 61.86C319.6 61.86 320.427 62.0667 321.134 62.48C321.854 62.8933 322.387 63.4133 322.734 64.04V62.04H324.574V73.24C324.574 74.24 324.36 75.1267 323.934 75.9C323.507 76.6867 322.894 77.3 322.094 77.74C321.307 78.18 320.387 78.4 319.334 78.4C317.894 78.4 316.694 78.06 315.734 77.38C314.774 76.7 314.207 75.7733 314.034 74.6H315.834C316.034 75.2667 316.447 75.8 317.074 76.2C317.7 76.6133 318.454 76.82 319.334 76.82C320.334 76.82 321.147 76.5067 321.774 75.88C322.414 75.2533 322.734 74.3733 322.734 73.24V70.94C322.374 71.58 321.84 72.1133 321.134 72.54C320.427 72.9667 319.6 73.18 318.654 73.18C317.68 73.18 316.794 72.94 315.994 72.46C315.207 71.98 314.587 71.3067 314.134 70.44C313.68 69.5733 313.454 68.5867 313.454 67.48C313.454 66.36 313.68 65.38 314.134 64.54C314.587 63.6867 315.207 63.0267 315.994 62.56C316.794 62.0933 317.68 61.86 318.654 61.86ZM322.734 67.5C322.734 66.6733 322.567 65.9533 322.234 65.34C321.9 64.7267 321.447 64.26 320.874 63.94C320.314 63.6067 319.694 63.44 319.014 63.44C318.334 63.44 317.714 63.6 317.154 63.92C316.594 64.24 316.147 64.7067 315.814 65.32C315.48 65.9333 315.314 66.6533 315.314 67.48C315.314 68.32 315.48 69.0533 315.814 69.68C316.147 70.2933 316.594 70.7667 317.154 71.1C317.714 71.42 318.334 71.58 319.014 71.58C319.694 71.58 320.314 71.42 320.874 71.1C321.447 70.7667 321.9 70.2933 322.234 69.68C322.567 69.0533 322.734 68.3267 322.734 67.5ZM343.001 63.36C343.001 64.1067 342.821 64.8067 342.461 65.46C342.115 66.1133 341.561 66.64 340.801 67.04C340.055 67.44 339.108 67.64 337.961 67.64H335.621V73H332.821V59.04H337.961C339.041 59.04 339.961 59.2267 340.721 59.6C341.481 59.9733 342.048 60.4867 342.421 61.14C342.808 61.7933 343.001 62.5333 343.001 63.36ZM337.841 65.38C338.615 65.38 339.188 65.2067 339.561 64.86C339.935 64.5 340.121 64 340.121 63.36C340.121 62 339.361 61.32 337.841 61.32H335.621V65.38H337.841ZM347.789 58.2V73H344.989V58.2H347.789ZM349.836 67.42C349.836 66.3 350.056 65.3067 350.496 64.44C350.949 63.5733 351.556 62.9067 352.316 62.44C353.089 61.9733 353.949 61.74 354.896 61.74C355.722 61.74 356.442 61.9067 357.056 62.24C357.682 62.5733 358.182 62.9933 358.556 63.5V61.92H361.376V73H358.556V71.38C358.196 71.9 357.696 72.3333 357.056 72.68C356.429 73.0133 355.702 73.18 354.876 73.18C353.942 73.18 353.089 72.94 352.316 72.46C351.556 71.98 350.949 71.3067 350.496 70.44C350.056 69.56 349.836 68.5533 349.836 67.42ZM358.556 67.46C358.556 66.78 358.422 66.2 358.156 65.72C357.889 65.2267 357.529 64.8533 357.076 64.6C356.622 64.3333 356.136 64.2 355.616 64.2C355.096 64.2 354.616 64.3267 354.176 64.58C353.736 64.8333 353.376 65.2067 353.096 65.7C352.829 66.18 352.696 66.7533 352.696 67.42C352.696 68.0867 352.829 68.6733 353.096 69.18C353.376 69.6733 353.736 70.0533 354.176 70.32C354.629 70.5867 355.109 70.72 355.616 70.72C356.136 70.72 356.622 70.5933 357.076 70.34C357.529 70.0733 357.889 69.7 358.156 69.22C358.422 68.7267 358.556 68.14 358.556 67.46ZM370.25 61.76C371.57 61.76 372.637 62.18 373.45 63.02C374.264 63.8467 374.67 65.0067 374.67 66.5V73H371.87V66.88C371.87 66 371.65 65.3267 371.21 64.86C370.77 64.38 370.17 64.14 369.41 64.14C368.637 64.14 368.024 64.38 367.57 64.86C367.13 65.3267 366.91 66 366.91 66.88V73H364.11V61.92H366.91V63.3C367.284 62.82 367.757 62.4467 368.33 62.18C368.917 61.9 369.557 61.76 370.25 61.76ZM387.019 73.18C385.952 73.18 384.992 72.9467 384.139 72.48C383.285 72 382.612 71.3267 382.119 70.46C381.639 69.5933 381.399 68.5933 381.399 67.46C381.399 66.3267 381.645 65.3267 382.139 64.46C382.645 63.5933 383.332 62.9267 384.199 62.46C385.065 61.98 386.032 61.74 387.099 61.74C388.165 61.74 389.132 61.98 389.999 62.46C390.865 62.9267 391.545 63.5933 392.039 64.46C392.545 65.3267 392.799 66.3267 392.799 67.46C392.799 68.5933 392.539 69.5933 392.019 70.46C391.512 71.3267 390.819 72 389.939 72.48C389.072 72.9467 388.099 73.18 387.019 73.18ZM387.019 70.74C387.525 70.74 387.999 70.62 388.439 70.38C388.892 70.1267 389.252 69.7533 389.519 69.26C389.785 68.7667 389.919 68.1667 389.919 67.46C389.919 66.4067 389.639 65.6 389.079 65.04C388.532 64.4667 387.859 64.18 387.059 64.18C386.259 64.18 385.585 64.4667 385.039 65.04C384.505 65.6 384.239 66.4067 384.239 67.46C384.239 68.5133 384.499 69.3267 385.019 69.9C385.552 70.46 386.219 70.74 387.019 70.74ZM400.993 61.76C402.313 61.76 403.379 62.18 404.193 63.02C405.006 63.8467 405.413 65.0067 405.413 66.5V73H402.613V66.88C402.613 66 402.393 65.3267 401.953 64.86C401.513 64.38 400.913 64.14 400.153 64.14C399.379 64.14 398.766 64.38 398.313 64.86C397.873 65.3267 397.653 66 397.653 66.88V73H394.853V61.92H397.653V63.3C398.026 62.82 398.499 62.4467 399.073 62.18C399.659 61.9 400.299 61.76 400.993 61.76ZM416.101 64.22V69.58C416.101 69.9533 416.188 70.2267 416.361 70.4C416.548 70.56 416.854 70.64 417.281 70.64H418.581V73H416.821C414.461 73 413.281 71.8533 413.281 69.56V64.22H411.961V61.92H413.281V59.18H416.101V61.92H418.581V64.22H416.101ZM425.515 73.18C424.448 73.18 423.488 72.9467 422.635 72.48C421.782 72 421.108 71.3267 420.615 70.46C420.135 69.5933 419.895 68.5933 419.895 67.46C419.895 66.3267 420.142 65.3267 420.635 64.46C421.142 63.5933 421.828 62.9267 422.695 62.46C423.562 61.98 424.528 61.74 425.595 61.74C426.662 61.74 427.628 61.98 428.495 62.46C429.362 62.9267 430.042 63.5933 430.535 64.46C431.042 65.3267 431.295 66.3267 431.295 67.46C431.295 68.5933 431.035 69.5933 430.515 70.46C430.008 71.3267 429.315 72 428.435 72.48C427.568 72.9467 426.595 73.18 425.515 73.18ZM425.515 70.74C426.022 70.74 426.495 70.62 426.935 70.38C427.388 70.1267 427.748 69.7533 428.015 69.26C428.282 68.7667 428.415 68.1667 428.415 67.46C428.415 66.4067 428.135 65.6 427.575 65.04C427.028 64.4667 426.355 64.18 425.555 64.18C424.755 64.18 424.082 64.4667 423.535 65.04C423.002 65.6 422.735 66.4067 422.735 67.46C422.735 68.5133 422.995 69.3267 423.515 69.9C424.048 70.46 424.715 70.74 425.515 70.74ZM432.629 67.42C432.629 66.3 432.849 65.3067 433.289 64.44C433.742 63.5733 434.355 62.9067 435.129 62.44C435.902 61.9733 436.762 61.74 437.709 61.74C438.429 61.74 439.115 61.9 439.769 62.22C440.422 62.5267 440.942 62.94 441.329 63.46V58.2H444.169V73H441.329V71.36C440.982 71.9067 440.495 72.3467 439.869 72.68C439.242 73.0133 438.515 73.18 437.689 73.18C436.755 73.18 435.902 72.94 435.129 72.46C434.355 71.98 433.742 71.3067 433.289 70.44C432.849 69.56 432.629 68.5533 432.629 67.42ZM441.349 67.46C441.349 66.78 441.215 66.2 440.949 65.72C440.682 65.2267 440.322 64.8533 439.869 64.6C439.415 64.3333 438.929 64.2 438.409 64.2C437.889 64.2 437.409 64.3267 436.969 64.58C436.529 64.8333 436.169 65.2067 435.889 65.7C435.622 66.18 435.489 66.7533 435.489 67.42C435.489 68.0867 435.622 68.6733 435.889 69.18C436.169 69.6733 436.529 70.0533 436.969 70.32C437.422 70.5867 437.902 70.72 438.409 70.72C438.929 70.72 439.415 70.5933 439.869 70.34C440.322 70.0733 440.682 69.7 440.949 69.22C441.215 68.7267 441.349 68.14 441.349 67.46ZM446.183 67.42C446.183 66.3 446.403 65.3067 446.843 64.44C447.297 63.5733 447.903 62.9067 448.663 62.44C449.437 61.9733 450.297 61.74 451.243 61.74C452.07 61.74 452.79 61.9067 453.403 62.24C454.03 62.5733 454.53 62.9933 454.903 63.5V61.92H457.723V73H454.903V71.38C454.543 71.9 454.043 72.3333 453.403 72.68C452.777 73.0133 452.05 73.18 451.223 73.18C450.29 73.18 449.437 72.94 448.663 72.46C447.903 71.98 447.297 71.3067 446.843 70.44C446.403 69.56 446.183 68.5533 446.183 67.42ZM454.903 67.46C454.903 66.78 454.77 66.2 454.503 65.72C454.237 65.2267 453.877 64.8533 453.423 64.6C452.97 64.3333 452.483 64.2 451.963 64.2C451.443 64.2 450.963 64.3267 450.523 64.58C450.083 64.8333 449.723 65.2067 449.443 65.7C449.177 66.18 449.043 66.7533 449.043 67.42C449.043 68.0867 449.177 68.6733 449.443 69.18C449.723 69.6733 450.083 70.0533 450.523 70.32C450.977 70.5867 451.457 70.72 451.963 70.72C452.483 70.72 452.97 70.5933 453.423 70.34C453.877 70.0733 454.237 69.7 454.503 69.22C454.77 68.7267 454.903 68.14 454.903 67.46ZM471.058 61.92L464.198 78.24H461.218L463.618 72.72L459.178 61.92H462.318L465.178 69.66L468.078 61.92H471.058ZM473.808 73.14C473.301 73.14 472.881 72.9867 472.548 72.68C472.228 72.36 472.068 71.9667 472.068 71.5C472.068 71.0333 472.228 70.6467 472.548 70.34C472.881 70.02 473.301 69.86 473.808 69.86C474.301 69.86 474.708 70.02 475.028 70.34C475.348 70.6467 475.508 71.0333 475.508 71.5C475.508 71.9667 475.348 72.36 475.028 72.68C474.708 72.9867 474.301 73.14 473.808 73.14ZM480.563 63.52C480.923 63.0133 481.416 62.5933 482.043 62.26C482.683 61.9133 483.409 61.74 484.223 61.74C485.169 61.74 486.023 61.9733 486.783 62.44C487.556 62.9067 488.163 63.5733 488.603 64.44C489.056 65.2933 489.283 66.2867 489.283 67.42C489.283 68.5533 489.056 69.56 488.603 70.44C488.163 71.3067 487.556 71.98 486.783 72.46C486.023 72.94 485.169 73.18 484.223 73.18C483.409 73.18 482.689 73.0133 482.063 72.68C481.449 72.3467 480.949 71.9267 480.563 71.42V78.28H477.763V61.92H480.563V63.52ZM486.423 67.42C486.423 66.7533 486.283 66.18 486.003 65.7C485.736 65.2067 485.376 64.8333 484.923 64.58C484.483 64.3267 484.003 64.2 483.483 64.2C482.976 64.2 482.496 64.3333 482.043 64.6C481.603 64.8533 481.243 65.2267 480.963 65.72C480.696 66.2133 480.563 66.7933 480.563 67.46C480.563 68.1267 480.696 68.7067 480.963 69.2C481.243 69.6933 481.603 70.0733 482.043 70.34C482.496 70.5933 482.976 70.72 483.483 70.72C484.003 70.72 484.483 70.5867 484.923 70.32C485.376 70.0533 485.736 69.6733 486.003 69.18C486.283 68.6867 486.423 68.1 486.423 67.42ZM490.597 67.42C490.597 66.3 490.817 65.3067 491.257 64.44C491.711 63.5733 492.324 62.9067 493.098 62.44C493.871 61.9733 494.731 61.74 495.678 61.74C496.398 61.74 497.084 61.9 497.738 62.22C498.391 62.5267 498.911 62.94 499.298 63.46V58.2H502.138V73H499.298V71.36C498.951 71.9067 498.464 72.3467 497.838 72.68C497.211 73.0133 496.484 73.18 495.658 73.18C494.724 73.18 493.871 72.94 493.098 72.46C492.324 71.98 491.711 71.3067 491.257 70.44C490.817 69.56 490.597 68.5533 490.597 67.42ZM499.318 67.46C499.318 66.78 499.184 66.2 498.918 65.72C498.651 65.2267 498.291 64.8533 497.838 64.6C497.384 64.3333 496.898 64.2 496.378 64.2C495.858 64.2 495.378 64.3267 494.938 64.58C494.498 64.8333 494.138 65.2067 493.858 65.7C493.591 66.18 493.458 66.7533 493.458 67.42C493.458 68.0867 493.591 68.6733 493.858 69.18C494.138 69.6733 494.498 70.0533 494.938 70.32C495.391 70.5867 495.871 70.72 496.378 70.72C496.898 70.72 497.384 70.5933 497.838 70.34C498.291 70.0733 498.651 69.7 498.918 69.22C499.184 68.7267 499.318 68.14 499.318 67.46ZM509.952 64.22H508.012V73H505.172V64.22H503.912V61.92H505.172V61.36C505.172 60 505.559 59 506.332 58.36C507.106 57.72 508.272 57.42 509.832 57.46V59.82C509.152 59.8067 508.679 59.92 508.412 60.16C508.146 60.4 508.012 60.8333 508.012 61.46V61.92H509.952V64.22Z" fill="black"/>
<path d="M875.76 53.2V51.54H879.52V66H877.68V53.2H875.76ZM882.426 64.54C884.12 63.18 885.446 62.0667 886.406 61.2C887.366 60.32 888.173 59.4067 888.826 58.46C889.493 57.5 889.826 56.56 889.826 55.64C889.826 54.7733 889.613 54.0933 889.186 53.6C888.773 53.0933 888.1 52.84 887.166 52.84C886.26 52.84 885.553 53.1267 885.046 53.7C884.553 54.26 884.286 55.0133 884.246 55.96H882.486C882.54 54.4667 882.993 53.3133 883.846 52.5C884.7 51.6867 885.8 51.28 887.146 51.28C888.52 51.28 889.606 51.66 890.406 52.42C891.22 53.18 891.626 54.2267 891.626 55.56C891.626 56.6667 891.293 57.7467 890.626 58.8C889.973 59.84 889.226 60.76 888.386 61.56C887.546 62.3467 886.473 63.2667 885.166 64.32H892.046V65.84H882.426V64.54ZM913.922 52.16V66H912.102V55.68L907.502 66H906.222L901.602 55.66V66H899.782V52.16H901.742L906.862 63.6L911.982 52.16H913.922ZM923.989 58.82C924.495 58.9 924.955 59.1067 925.369 59.44C925.795 59.7733 926.129 60.1867 926.369 60.68C926.622 61.1733 926.749 61.7 926.749 62.26C926.749 62.9667 926.569 63.6067 926.209 64.18C925.849 64.74 925.322 65.1867 924.629 65.52C923.949 65.84 923.142 66 922.209 66H917.009V52.06H922.009C922.955 52.06 923.762 52.22 924.429 52.54C925.095 52.8467 925.595 53.2667 925.929 53.8C926.262 54.3333 926.429 54.9333 926.429 55.6C926.429 56.4267 926.202 57.1133 925.749 57.66C925.309 58.1933 924.722 58.58 923.989 58.82ZM918.829 58.08H921.889C922.742 58.08 923.402 57.88 923.869 57.48C924.335 57.08 924.569 56.5267 924.569 55.82C924.569 55.1133 924.335 54.56 923.869 54.16C923.402 53.76 922.729 53.56 921.849 53.56H918.829V58.08ZM922.049 64.5C922.955 64.5 923.662 64.2867 924.169 63.86C924.675 63.4333 924.929 62.84 924.929 62.08C924.929 61.3067 924.662 60.7 924.129 60.26C923.595 59.8067 922.882 59.58 921.989 59.58H918.829V64.5H922.049Z" fill="black"/>
<path d="M942.206 57.9V59.44H934.226V57.9H942.206ZM959.874 53.12H952.854V57.68C953.161 57.2533 953.614 56.9067 954.214 56.64C954.814 56.36 955.461 56.22 956.154 56.22C957.261 56.22 958.161 56.4533 958.854 56.92C959.547 57.3733 960.041 57.9667 960.334 58.7C960.641 59.42 960.794 60.1867 960.794 61C960.794 61.96 960.614 62.82 960.254 63.58C959.894 64.34 959.341 64.94 958.594 65.38C957.861 65.82 956.947 66.04 955.854 66.04C954.454 66.04 953.321 65.68 952.454 64.96C951.587 64.24 951.061 63.28 950.874 62.08H952.654C952.827 62.84 953.194 63.4333 953.754 63.86C954.314 64.2867 955.021 64.5 955.874 64.5C956.927 64.5 957.721 64.1867 958.254 63.56C958.787 62.92 959.054 62.08 959.054 61.04C959.054 60 958.787 59.2 958.254 58.64C957.721 58.0667 956.934 57.78 955.894 57.78C955.187 57.78 954.567 57.9533 954.034 58.3C953.514 58.6333 953.134 59.0933 952.894 59.68H951.174V51.52H959.874V53.12ZM962.773 62.78V61.4L969.793 51.68H971.973V61.2H973.973V62.78H971.973V66H970.173V62.78H962.773ZM970.253 53.58L964.873 61.2H970.253V53.58ZM990.231 52.16V66H988.411V55.68L983.811 66H982.531L977.911 55.66V66H976.091V52.16H978.051L983.171 63.6L988.291 52.16H990.231ZM1000.3 58.82C1000.8 58.9 1001.26 59.1067 1001.68 59.44C1002.1 59.7733 1002.44 60.1867 1002.68 60.68C1002.93 61.1733 1003.06 61.7 1003.06 62.26C1003.06 62.9667 1002.88 63.6067 1002.52 64.18C1002.16 64.74 1001.63 65.1867 1000.94 65.52C1000.26 65.84 999.451 66 998.517 66H993.317V52.06H998.317C999.264 52.06 1000.07 52.22 1000.74 52.54C1001.4 52.8467 1001.9 53.2667 1002.24 53.8C1002.57 54.3333 1002.74 54.9333 1002.74 55.6C1002.74 56.4267 1002.51 57.1133 1002.06 57.66C1001.62 58.1933 1001.03 58.58 1000.3 58.82ZM995.137 58.08H998.197C999.051 58.08 999.711 57.88 1000.18 57.48C1000.64 57.08 1000.88 56.5267 1000.88 55.82C1000.88 55.1133 1000.64 54.56 1000.18 54.16C999.711 53.76 999.037 53.56 998.157 53.56H995.137V58.08ZM998.357 64.5C999.264 64.5 999.971 64.2867 1000.48 63.86C1000.98 63.4333 1001.24 62.84 1001.24 62.08C1001.24 61.3067 1000.97 60.7 1000.44 60.26C999.904 59.8067 999.191 59.58 998.297 59.58H995.137V64.5H998.357Z" fill="#97A3B4"/>
<path d="M195.5 95H582.012" stroke="#243CE6" stroke-width="4"/>
<line x1="581.99" y1="95" x2="1004.99" y2="92.8637" stroke="#D1D6FA" stroke-width="4"/>
<circle cx="1081" cy="91" r="25" fill="#D1D6FA"/>
<path d="M1083.11 90.625L1088.38 85.4004C1088.67 85.1074 1088.67 84.5703 1088.38 84.2773L1087.16 83.0566C1086.87 82.7637 1086.33 82.7637 1086.04 83.0566L1080.81 88.3301L1075.54 83.0566C1075.25 82.7637 1074.71 82.7637 1074.42 83.0566L1073.2 84.2773C1072.9 84.5703 1072.9 85.1074 1073.2 85.4004L1078.47 90.625L1073.2 95.8984C1072.9 96.1914 1072.9 96.7285 1073.2 97.0215L1074.42 98.2422C1074.71 98.5352 1075.25 98.5352 1075.54 98.2422L1080.81 92.9688L1086.04 98.2422C1086.33 98.5352 1086.87 98.5352 1087.16 98.2422L1088.38 97.0215C1088.67 96.7285 1088.67 96.1914 1088.38 95.8984L1083.11 90.625Z" fill="#0F2B53"/>
</svg>
