<svg width="849" height="1115" viewBox="0 0 849 1115" fill="none" xmlns="http://www.w3.org/2000/svg">
<rect width="849" height="1115" rx="70" fill="#F3F7FD"/>
<path d="M208.68 132.08C208.68 134.32 208.14 136.42 207.06 138.38C206.02 140.34 204.36 141.92 202.08 143.12C199.84 144.32 197 144.92 193.56 144.92H186.54V161H178.14V119.12H193.56C196.8 119.12 199.56 119.68 201.84 120.8C204.12 121.92 205.82 123.46 206.94 125.42C208.1 127.38 208.68 129.6 208.68 132.08ZM193.2 138.14C195.52 138.14 197.24 137.62 198.36 136.58C199.48 135.5 200.04 134 200.04 132.08C200.04 128 197.76 125.96 193.2 125.96H186.54V138.14H193.2ZM223.044 132.92C224.124 131.16 225.524 129.78 227.244 128.78C229.004 127.78 231.004 127.28 233.244 127.28V136.1H231.024C228.384 136.1 226.384 136.72 225.024 137.96C223.704 139.2 223.044 141.36 223.044 144.44V161H214.644V127.76H223.044V132.92ZM253.662 161.54C250.462 161.54 247.582 160.84 245.022 159.44C242.462 158 240.442 155.98 238.962 153.38C237.522 150.78 236.802 147.78 236.802 144.38C236.802 140.98 237.542 137.98 239.022 135.38C240.542 132.78 242.602 130.78 245.202 129.38C247.802 127.94 250.702 127.22 253.902 127.22C257.102 127.22 260.002 127.94 262.602 129.38C265.202 130.78 267.242 132.78 268.722 135.38C270.242 137.98 271.002 140.98 271.002 144.38C271.002 147.78 270.222 150.78 268.662 153.38C267.142 155.98 265.062 158 262.422 159.44C259.822 160.84 256.902 161.54 253.662 161.54ZM253.662 154.22C255.182 154.22 256.602 153.86 257.922 153.14C259.282 152.38 260.362 151.26 261.162 149.78C261.962 148.3 262.362 146.5 262.362 144.38C262.362 141.22 261.522 138.8 259.842 137.12C258.202 135.4 256.182 134.54 253.782 134.54C251.382 134.54 249.362 135.4 247.722 137.12C246.122 138.8 245.322 141.22 245.322 144.38C245.322 147.54 246.102 149.98 247.662 151.7C249.262 153.38 251.262 154.22 253.662 154.22ZM292.403 134.66H286.583V161H278.063V134.66H274.283V127.76H278.063V126.08C278.063 122 279.223 119 281.543 117.08C283.863 115.16 287.363 114.26 292.043 114.38V121.46C290.003 121.42 288.583 121.76 287.783 122.48C286.983 123.2 286.583 124.5 286.583 126.38V127.76H292.403V134.66ZM302.107 123.8C300.627 123.8 299.387 123.34 298.387 122.42C297.427 121.46 296.947 120.28 296.947 118.88C296.947 117.48 297.427 116.32 298.387 115.4C299.387 114.44 300.627 113.96 302.107 113.96C303.587 113.96 304.807 114.44 305.767 115.4C306.767 116.32 307.267 117.48 307.267 118.88C307.267 120.28 306.767 121.46 305.767 122.42C304.807 123.34 303.587 123.8 302.107 123.8ZM306.247 127.76V161H297.847V127.76H306.247ZM324.326 134.66V150.74C324.326 151.86 324.586 152.68 325.106 153.2C325.666 153.68 326.586 153.92 327.866 153.92H331.766V161H326.486C319.406 161 315.866 157.56 315.866 150.68V134.66H311.906V127.76H315.866V119.54H324.326V127.76H331.766V134.66H324.326ZM360.505 125.9V136.4H374.605V143.06H360.505V154.16H376.405V161H352.105V119.06H376.405V125.9H360.505ZM396.758 161.54C394.038 161.54 391.598 161.06 389.438 160.1C387.278 159.1 385.558 157.76 384.278 156.08C383.038 154.4 382.358 152.54 382.238 150.5H390.698C390.858 151.78 391.478 152.84 392.558 153.68C393.678 154.52 395.058 154.94 396.698 154.94C398.298 154.94 399.538 154.62 400.418 153.98C401.338 153.34 401.798 152.52 401.798 151.52C401.798 150.44 401.238 149.64 400.118 149.12C399.038 148.56 397.298 147.96 394.898 147.32C392.418 146.72 390.378 146.1 388.778 145.46C387.218 144.82 385.858 143.84 384.698 142.52C383.578 141.2 383.018 139.42 383.018 137.18C383.018 135.34 383.538 133.66 384.578 132.14C385.658 130.62 387.178 129.42 389.138 128.54C391.138 127.66 393.478 127.22 396.158 127.22C400.118 127.22 403.278 128.22 405.638 130.22C407.998 132.18 409.298 134.84 409.538 138.2H401.498C401.378 136.88 400.818 135.84 399.818 135.08C398.858 134.28 397.558 133.88 395.918 133.88C394.398 133.88 393.218 134.16 392.378 134.72C391.578 135.28 391.178 136.06 391.178 137.06C391.178 138.18 391.738 139.04 392.858 139.64C393.978 140.2 395.718 140.78 398.078 141.38C400.478 141.98 402.458 142.6 404.018 143.24C405.578 143.88 406.918 144.88 408.038 146.24C409.198 147.56 409.798 149.32 409.838 151.52C409.838 153.44 409.298 155.16 408.218 156.68C407.178 158.2 405.658 159.4 403.658 160.28C401.698 161.12 399.398 161.54 396.758 161.54ZM426.514 134.66V150.74C426.514 151.86 426.774 152.68 427.294 153.2C427.854 153.68 428.774 153.92 430.054 153.92H433.954V161H428.674C421.594 161 418.054 157.56 418.054 150.68V134.66H414.094V127.76H418.054V119.54H426.514V127.76H433.954V134.66H426.514ZM444.255 123.8C442.775 123.8 441.535 123.34 440.535 122.42C439.575 121.46 439.095 120.28 439.095 118.88C439.095 117.48 439.575 116.32 440.535 115.4C441.535 114.44 442.775 113.96 444.255 113.96C445.735 113.96 446.955 114.44 447.915 115.4C448.915 116.32 449.415 117.48 449.415 118.88C449.415 120.28 448.915 121.46 447.915 122.42C446.955 123.34 445.735 123.8 444.255 123.8ZM448.395 127.76V161H439.995V127.76H448.395ZM497.975 127.28C502.055 127.28 505.335 128.54 507.815 131.06C510.335 133.54 511.595 137.02 511.595 141.5V161H503.195V142.64C503.195 140.04 502.535 138.06 501.215 136.7C499.895 135.3 498.095 134.6 495.815 134.6C493.535 134.6 491.715 135.3 490.355 136.7C489.035 138.06 488.375 140.04 488.375 142.64V161H479.975V142.64C479.975 140.04 479.315 138.06 477.995 136.7C476.675 135.3 474.875 134.6 472.595 134.6C470.275 134.6 468.435 135.3 467.075 136.7C465.755 138.06 465.095 140.04 465.095 142.64V161H456.695V127.76H465.095V131.78C466.175 130.38 467.555 129.28 469.235 128.48C470.955 127.68 472.835 127.28 474.875 127.28C477.475 127.28 479.795 127.84 481.835 128.96C483.875 130.04 485.455 131.6 486.575 133.64C487.655 131.72 489.215 130.18 491.255 129.02C493.335 127.86 495.575 127.28 497.975 127.28ZM517.406 144.26C517.406 140.9 518.066 137.92 519.386 135.32C520.746 132.72 522.566 130.72 524.846 129.32C527.166 127.92 529.746 127.22 532.586 127.22C535.066 127.22 537.226 127.72 539.066 128.72C540.946 129.72 542.446 130.98 543.566 132.5V127.76H552.026V161H543.566V156.14C542.486 157.7 540.986 159 539.066 160.04C537.186 161.04 535.006 161.54 532.526 161.54C529.726 161.54 527.166 160.82 524.846 159.38C522.566 157.94 520.746 155.92 519.386 153.32C518.066 150.68 517.406 147.66 517.406 144.26ZM543.566 144.38C543.566 142.34 543.166 140.6 542.366 139.16C541.566 137.68 540.486 136.56 539.126 135.8C537.766 135 536.306 134.6 534.746 134.6C533.186 134.6 531.746 134.98 530.426 135.74C529.106 136.5 528.026 137.62 527.186 139.1C526.386 140.54 525.986 142.26 525.986 144.26C525.986 146.26 526.386 148.02 527.186 149.54C528.026 151.02 529.106 152.16 530.426 152.96C531.786 153.76 533.226 154.16 534.746 154.16C536.306 154.16 537.766 153.78 539.126 153.02C540.486 152.22 541.566 151.1 542.366 149.66C543.166 148.18 543.566 146.42 543.566 144.38ZM570.01 134.66V150.74C570.01 151.86 570.27 152.68 570.79 153.2C571.35 153.68 572.27 153.92 573.55 153.92H577.45V161H572.17C565.09 161 561.55 157.56 561.55 150.68V134.66H557.59V127.76H561.55V119.54H570.01V127.76H577.45V134.66H570.01ZM587.752 123.8C586.272 123.8 585.032 123.34 584.032 122.42C583.072 121.46 582.592 120.28 582.592 118.88C582.592 117.48 583.072 116.32 584.032 115.4C585.032 114.44 586.272 113.96 587.752 113.96C589.232 113.96 590.452 114.44 591.412 115.4C592.412 116.32 592.912 117.48 592.912 118.88C592.912 120.28 592.412 121.46 591.412 122.42C590.452 123.34 589.232 123.8 587.752 123.8ZM591.892 127.76V161H583.492V127.76H591.892ZM614.951 161.54C611.751 161.54 608.871 160.84 606.311 159.44C603.751 158 601.731 155.98 600.251 153.38C598.811 150.78 598.091 147.78 598.091 144.38C598.091 140.98 598.831 137.98 600.311 135.38C601.831 132.78 603.891 130.78 606.491 129.38C609.091 127.94 611.991 127.22 615.191 127.22C618.391 127.22 621.291 127.94 623.891 129.38C626.491 130.78 628.531 132.78 630.011 135.38C631.531 137.98 632.291 140.98 632.291 144.38C632.291 147.78 631.511 150.78 629.951 153.38C628.431 155.98 626.351 158 623.711 159.44C621.111 160.84 618.191 161.54 614.951 161.54ZM614.951 154.22C616.471 154.22 617.891 153.86 619.211 153.14C620.571 152.38 621.651 151.26 622.451 149.78C623.251 148.3 623.651 146.5 623.651 144.38C623.651 141.22 622.811 138.8 621.131 137.12C619.491 135.4 617.471 134.54 615.071 134.54C612.671 134.54 610.651 135.4 609.011 137.12C607.411 138.8 606.611 141.22 606.611 144.38C606.611 147.54 607.391 149.98 608.951 151.7C610.551 153.38 612.551 154.22 614.951 154.22ZM656.873 127.28C660.833 127.28 664.033 128.54 666.473 131.06C668.913 133.54 670.133 137.02 670.133 141.5V161H661.733V142.64C661.733 140 661.073 137.98 659.753 136.58C658.433 135.14 656.633 134.42 654.353 134.42C652.033 134.42 650.193 135.14 648.833 136.58C647.513 137.98 646.853 140 646.853 142.64V161H638.453V127.76H646.853V131.9C647.973 130.46 649.393 129.34 651.113 128.54C652.873 127.7 654.793 127.28 656.873 127.28Z" fill="#343433"/>
<path d="M172.582 222.088V244.328H168.934V234.6H158.47V244.328H154.822V222.088H158.47V231.624H168.934V222.088H172.582ZM193.544 235.08C193.544 235.741 193.502 236.338 193.416 236.872H179.944C180.051 238.28 180.574 239.41 181.512 240.264C182.451 241.117 183.603 241.544 184.968 241.544C186.931 241.544 188.318 240.722 189.128 239.08H193.064C192.531 240.701 191.56 242.034 190.152 243.08C188.766 244.104 187.038 244.616 184.968 244.616C183.283 244.616 181.768 244.242 180.424 243.496C179.102 242.728 178.056 241.661 177.288 240.296C176.542 238.909 176.168 237.309 176.168 235.496C176.168 233.682 176.531 232.093 177.256 230.728C178.003 229.341 179.038 228.274 180.36 227.528C181.704 226.781 183.24 226.408 184.968 226.408C186.632 226.408 188.115 226.77 189.416 227.496C190.718 228.221 191.731 229.245 192.456 230.568C193.182 231.869 193.544 233.373 193.544 235.08ZM189.736 233.928C189.715 232.584 189.235 231.506 188.296 230.696C187.358 229.885 186.195 229.48 184.808 229.48C183.55 229.48 182.472 229.885 181.576 230.696C180.68 231.485 180.147 232.562 179.976 233.928H189.736ZM200.782 229.256C201.316 228.36 202.02 227.666 202.894 227.176C203.79 226.664 204.846 226.408 206.062 226.408V230.184H205.134C203.705 230.184 202.617 230.546 201.87 231.272C201.145 231.997 200.782 233.256 200.782 235.048V244.328H197.134V226.696H200.782V229.256ZM225.576 235.08C225.576 235.741 225.533 236.338 225.448 236.872H211.976C212.082 238.28 212.605 239.41 213.544 240.264C214.482 241.117 215.634 241.544 217 241.544C218.962 241.544 220.349 240.722 221.16 239.08H225.096C224.562 240.701 223.592 242.034 222.184 243.08C220.797 244.104 219.069 244.616 217 244.616C215.314 244.616 213.8 244.242 212.456 243.496C211.133 242.728 210.088 241.661 209.32 240.296C208.573 238.909 208.2 237.309 208.2 235.496C208.2 233.682 208.562 232.093 209.288 230.728C210.034 229.341 211.069 228.274 212.392 227.528C213.736 226.781 215.272 226.408 217 226.408C218.664 226.408 220.146 226.77 221.448 227.496C222.749 228.221 223.762 229.245 224.488 230.568C225.213 231.869 225.576 233.373 225.576 235.08ZM221.768 233.928C221.746 232.584 221.266 231.506 220.328 230.696C219.389 229.885 218.226 229.48 216.84 229.48C215.581 229.48 214.504 229.885 213.608 230.696C212.712 231.485 212.178 232.562 212.008 233.928H221.768ZM239.334 224.36C238.673 224.36 238.118 224.136 237.67 223.688C237.222 223.24 236.998 222.685 236.998 222.024C236.998 221.362 237.222 220.808 237.67 220.36C238.118 219.912 238.673 219.688 239.334 219.688C239.974 219.688 240.518 219.912 240.966 220.36C241.414 220.808 241.638 221.362 241.638 222.024C241.638 222.685 241.414 223.24 240.966 223.688C240.518 224.136 239.974 224.36 239.334 224.36ZM241.126 226.696V244.328H237.478V226.696H241.126ZM250.172 229.672V239.432C250.172 240.093 250.321 240.573 250.62 240.872C250.94 241.149 251.473 241.288 252.22 241.288H254.46V244.328H251.58C249.937 244.328 248.678 243.944 247.804 243.176C246.929 242.408 246.492 241.16 246.492 239.432V229.672H244.412V226.696H246.492V222.312H250.172V226.696H254.46V229.672H250.172ZM267.99 224.36C267.329 224.36 266.774 224.136 266.326 223.688C265.878 223.24 265.654 222.685 265.654 222.024C265.654 221.362 265.878 220.808 266.326 220.36C266.774 219.912 267.329 219.688 267.99 219.688C268.63 219.688 269.174 219.912 269.622 220.36C270.07 220.808 270.294 221.362 270.294 222.024C270.294 222.685 270.07 223.24 269.622 223.688C269.174 224.136 268.63 224.36 267.99 224.36ZM269.782 226.696V244.328H266.134V226.696H269.782ZM280.972 244.616C279.585 244.616 278.337 244.37 277.228 243.88C276.14 243.368 275.276 242.685 274.636 241.832C273.996 240.957 273.655 239.986 273.612 238.92H277.388C277.452 239.666 277.804 240.296 278.444 240.808C279.105 241.298 279.927 241.544 280.908 241.544C281.932 241.544 282.721 241.352 283.276 240.968C283.852 240.562 284.14 240.05 284.14 239.432C284.14 238.77 283.82 238.28 283.18 237.96C282.561 237.64 281.569 237.288 280.204 236.904C278.881 236.541 277.804 236.189 276.972 235.848C276.14 235.506 275.415 234.984 274.796 234.28C274.199 233.576 273.9 232.648 273.9 231.496C273.9 230.557 274.177 229.704 274.732 228.936C275.287 228.146 276.076 227.528 277.1 227.08C278.145 226.632 279.34 226.408 280.684 226.408C282.689 226.408 284.3 226.92 285.516 227.944C286.753 228.946 287.415 230.322 287.5 232.072H283.852C283.788 231.282 283.468 230.653 282.892 230.184C282.316 229.714 281.537 229.48 280.556 229.48C279.596 229.48 278.86 229.661 278.348 230.024C277.836 230.386 277.58 230.866 277.58 231.464C277.58 231.933 277.751 232.328 278.092 232.648C278.433 232.968 278.849 233.224 279.34 233.416C279.831 233.586 280.556 233.81 281.516 234.088C282.796 234.429 283.841 234.781 284.652 235.144C285.484 235.485 286.199 235.997 286.796 236.68C287.393 237.362 287.703 238.269 287.724 239.4C287.724 240.402 287.447 241.298 286.892 242.088C286.337 242.877 285.548 243.496 284.524 243.944C283.521 244.392 282.337 244.616 280.972 244.616ZM321.322 226.408C322.709 226.408 323.946 226.696 325.034 227.272C326.143 227.848 327.007 228.701 327.626 229.832C328.266 230.962 328.586 232.328 328.586 233.928V244.328H324.97V234.472C324.97 232.893 324.575 231.688 323.786 230.856C322.997 230.002 321.919 229.576 320.554 229.576C319.189 229.576 318.101 230.002 317.29 230.856C316.501 231.688 316.106 232.893 316.106 234.472V244.328H312.49V234.472C312.49 232.893 312.095 231.688 311.306 230.856C310.517 230.002 309.439 229.576 308.074 229.576C306.709 229.576 305.621 230.002 304.81 230.856C304.021 231.688 303.626 232.893 303.626 234.472V244.328H299.978V226.696H303.626V228.712C304.223 227.986 304.981 227.421 305.898 227.016C306.815 226.61 307.797 226.408 308.842 226.408C310.25 226.408 311.509 226.706 312.618 227.304C313.727 227.901 314.581 228.765 315.178 229.896C315.711 228.829 316.543 227.986 317.674 227.368C318.805 226.728 320.021 226.408 321.322 226.408ZM349.1 226.696L338.284 252.616H334.508L338.092 244.04L331.148 226.696H335.212L340.172 240.136L345.324 226.696H349.1ZM376.326 235.08C376.326 235.741 376.283 236.338 376.198 236.872H362.726C362.832 238.28 363.355 239.41 364.294 240.264C365.232 241.117 366.384 241.544 367.75 241.544C369.712 241.544 371.099 240.722 371.91 239.08H375.846C375.312 240.701 374.342 242.034 372.934 243.08C371.547 244.104 369.819 244.616 367.75 244.616C366.064 244.616 364.55 244.242 363.206 243.496C361.883 242.728 360.838 241.661 360.07 240.296C359.323 238.909 358.95 237.309 358.95 235.496C358.95 233.682 359.312 232.093 360.038 230.728C360.784 229.341 361.819 228.274 363.142 227.528C364.486 226.781 366.022 226.408 367.75 226.408C369.414 226.408 370.896 226.77 372.198 227.496C373.499 228.221 374.512 229.245 375.238 230.568C375.963 231.869 376.326 233.373 376.326 235.08ZM372.518 233.928C372.496 232.584 372.016 231.506 371.078 230.696C370.139 229.885 368.976 229.48 367.59 229.48C366.331 229.48 365.254 229.885 364.358 230.696C363.462 231.485 362.928 232.562 362.758 233.928H372.518ZM386.316 244.616C384.929 244.616 383.681 244.37 382.572 243.88C381.484 243.368 380.62 242.685 379.98 241.832C379.34 240.957 378.998 239.986 378.956 238.92H382.732C382.796 239.666 383.148 240.296 383.788 240.808C384.449 241.298 385.27 241.544 386.252 241.544C387.276 241.544 388.065 241.352 388.62 240.968C389.196 240.562 389.484 240.05 389.484 239.432C389.484 238.77 389.164 238.28 388.524 237.96C387.905 237.64 386.913 237.288 385.548 236.904C384.225 236.541 383.148 236.189 382.316 235.848C381.484 235.506 380.758 234.984 380.14 234.28C379.542 233.576 379.244 232.648 379.244 231.496C379.244 230.557 379.521 229.704 380.076 228.936C380.63 228.146 381.42 227.528 382.444 227.08C383.489 226.632 384.684 226.408 386.028 226.408C388.033 226.408 389.644 226.92 390.86 227.944C392.097 228.946 392.758 230.322 392.844 232.072H389.196C389.132 231.282 388.812 230.653 388.236 230.184C387.66 229.714 386.881 229.48 385.9 229.48C384.94 229.48 384.204 229.661 383.692 230.024C383.18 230.386 382.924 230.866 382.924 231.464C382.924 231.933 383.094 232.328 383.436 232.648C383.777 232.968 384.193 233.224 384.684 233.416C385.174 233.586 385.9 233.81 386.86 234.088C388.14 234.429 389.185 234.781 389.996 235.144C390.828 235.485 391.542 235.997 392.14 236.68C392.737 237.362 393.046 238.269 393.068 239.4C393.068 240.402 392.79 241.298 392.236 242.088C391.681 242.877 390.892 243.496 389.868 243.944C388.865 244.392 387.681 244.616 386.316 244.616ZM401.265 229.672V239.432C401.265 240.093 401.415 240.573 401.713 240.872C402.033 241.149 402.567 241.288 403.313 241.288H405.553V244.328H402.673C401.031 244.328 399.772 243.944 398.897 243.176C398.023 242.408 397.585 241.16 397.585 239.432V229.672H395.505V226.696H397.585V222.312H401.265V226.696H405.553V229.672H401.265ZM410.772 224.36C410.11 224.36 409.556 224.136 409.108 223.688C408.66 223.24 408.436 222.685 408.436 222.024C408.436 221.362 408.66 220.808 409.108 220.36C409.556 219.912 410.11 219.688 410.772 219.688C411.412 219.688 411.956 219.912 412.404 220.36C412.852 220.808 413.076 221.362 413.076 222.024C413.076 222.685 412.852 223.24 412.404 223.688C411.956 224.136 411.412 224.36 410.772 224.36ZM412.564 226.696V244.328H408.916V226.696H412.564ZM438.697 226.408C440.084 226.408 441.321 226.696 442.409 227.272C443.518 227.848 444.382 228.701 445.001 229.832C445.641 230.962 445.961 232.328 445.961 233.928V244.328H442.345V234.472C442.345 232.893 441.95 231.688 441.161 230.856C440.372 230.002 439.294 229.576 437.929 229.576C436.564 229.576 435.476 230.002 434.665 230.856C433.876 231.688 433.481 232.893 433.481 234.472V244.328H429.865V234.472C429.865 232.893 429.47 231.688 428.681 230.856C427.892 230.002 426.814 229.576 425.449 229.576C424.084 229.576 422.996 230.002 422.185 230.856C421.396 231.688 421.001 232.893 421.001 234.472V244.328H417.353V226.696H421.001V228.712C421.598 227.986 422.356 227.421 423.273 227.016C424.19 226.61 425.172 226.408 426.217 226.408C427.625 226.408 428.884 226.706 429.993 227.304C431.102 227.901 431.956 228.765 432.553 229.896C433.086 228.829 433.918 227.986 435.049 227.368C436.18 226.728 437.396 226.408 438.697 226.408ZM449.387 235.432C449.387 233.661 449.75 232.093 450.475 230.728C451.222 229.362 452.224 228.306 453.483 227.56C454.763 226.792 456.171 226.408 457.707 226.408C459.094 226.408 460.299 226.685 461.323 227.24C462.368 227.773 463.2 228.445 463.819 229.256V226.696H467.499V244.328H463.819V241.704C463.2 242.536 462.358 243.229 461.291 243.784C460.224 244.338 459.008 244.616 457.643 244.616C456.128 244.616 454.742 244.232 453.483 243.464C452.224 242.674 451.222 241.586 450.475 240.2C449.75 238.792 449.387 237.202 449.387 235.432ZM463.819 235.496C463.819 234.28 463.563 233.224 463.051 232.328C462.56 231.432 461.91 230.749 461.099 230.28C460.288 229.81 459.414 229.576 458.475 229.576C457.536 229.576 456.662 229.81 455.851 230.28C455.04 230.728 454.379 231.4 453.867 232.296C453.376 233.17 453.131 234.216 453.131 235.432C453.131 236.648 453.376 237.714 453.867 238.632C454.379 239.549 455.04 240.253 455.851 240.744C456.683 241.213 457.558 241.448 458.475 241.448C459.414 241.448 460.288 241.213 461.099 240.744C461.91 240.274 462.56 239.592 463.051 238.696C463.563 237.778 463.819 236.712 463.819 235.496ZM476.547 229.672V239.432C476.547 240.093 476.696 240.573 476.995 240.872C477.315 241.149 477.848 241.288 478.595 241.288H480.835V244.328H477.955C476.312 244.328 475.053 243.944 474.179 243.176C473.304 242.408 472.867 241.16 472.867 239.432V229.672H470.787V226.696H472.867V222.312H476.547V226.696H480.835V229.672H476.547ZM486.053 224.36C485.392 224.36 484.837 224.136 484.389 223.688C483.941 223.24 483.717 222.685 483.717 222.024C483.717 221.362 483.941 220.808 484.389 220.36C484.837 219.912 485.392 219.688 486.053 219.688C486.693 219.688 487.237 219.912 487.685 220.36C488.133 220.808 488.357 221.362 488.357 222.024C488.357 222.685 488.133 223.24 487.685 223.688C487.237 224.136 486.693 224.36 486.053 224.36ZM487.845 226.696V244.328H484.197V226.696H487.845ZM500.282 244.616C498.618 244.616 497.114 244.242 495.77 243.496C494.426 242.728 493.37 241.661 492.602 240.296C491.834 238.909 491.45 237.309 491.45 235.496C491.45 233.704 491.845 232.114 492.634 230.728C493.424 229.341 494.501 228.274 495.866 227.528C497.232 226.781 498.757 226.408 500.442 226.408C502.128 226.408 503.653 226.781 505.018 227.528C506.384 228.274 507.461 229.341 508.25 230.728C509.04 232.114 509.434 233.704 509.434 235.496C509.434 237.288 509.029 238.877 508.218 240.264C507.408 241.65 506.298 242.728 504.89 243.496C503.504 244.242 501.968 244.616 500.282 244.616ZM500.282 241.448C501.221 241.448 502.096 241.224 502.906 240.776C503.738 240.328 504.41 239.656 504.922 238.76C505.434 237.864 505.69 236.776 505.69 235.496C505.69 234.216 505.445 233.138 504.954 232.264C504.464 231.368 503.813 230.696 503.002 230.248C502.192 229.8 501.317 229.576 500.378 229.576C499.44 229.576 498.565 229.8 497.754 230.248C496.965 230.696 496.336 231.368 495.866 232.264C495.397 233.138 495.162 234.216 495.162 235.496C495.162 237.394 495.642 238.866 496.602 239.912C497.584 240.936 498.81 241.448 500.282 241.448ZM521.937 226.408C523.323 226.408 524.561 226.696 525.649 227.272C526.758 227.848 527.622 228.701 528.241 229.832C528.859 230.962 529.169 232.328 529.169 233.928V244.328H525.553V234.472C525.553 232.893 525.158 231.688 524.369 230.856C523.579 230.002 522.502 229.576 521.137 229.576C519.771 229.576 518.683 230.002 517.873 230.856C517.083 231.688 516.689 232.893 516.689 234.472V244.328H513.041V226.696H516.689V228.712C517.286 227.986 518.043 227.421 518.961 227.016C519.899 226.61 520.891 226.408 521.937 226.408ZM565.814 226.696L560.342 244.328H556.502L552.95 231.304L549.398 244.328H545.558L540.054 226.696H543.766L547.446 240.872L551.19 226.696H554.998L558.582 240.808L562.23 226.696H565.814ZM577.661 226.408C579.005 226.408 580.199 226.696 581.245 227.272C582.311 227.848 583.143 228.701 583.741 229.832C584.359 230.962 584.669 232.328 584.669 233.928V244.328H581.053V234.472C581.053 232.893 580.658 231.688 579.869 230.856C579.079 230.002 578.002 229.576 576.637 229.576C575.271 229.576 574.183 230.002 573.373 230.856C572.583 231.688 572.189 232.893 572.189 234.472V244.328H568.541V220.648H572.189V228.744C572.807 227.997 573.586 227.421 574.525 227.016C575.485 226.61 576.53 226.408 577.661 226.408ZM605.482 235.08C605.482 235.741 605.439 236.338 605.354 236.872H591.882C591.989 238.28 592.511 239.41 593.45 240.264C594.389 241.117 595.541 241.544 596.906 241.544C598.869 241.544 600.255 240.722 601.066 239.08H605.002C604.469 240.701 603.498 242.034 602.09 243.08C600.703 244.104 598.975 244.616 596.906 244.616C595.221 244.616 593.706 244.242 592.362 243.496C591.039 242.728 589.994 241.661 589.226 240.296C588.479 238.909 588.106 237.309 588.106 235.496C588.106 233.682 588.469 232.093 589.194 230.728C589.941 229.341 590.975 228.274 592.298 227.528C593.642 226.781 595.178 226.408 596.906 226.408C598.57 226.408 600.053 226.77 601.354 227.496C602.655 228.221 603.669 229.245 604.394 230.568C605.119 231.869 605.482 233.373 605.482 235.08ZM601.674 233.928C601.653 232.584 601.173 231.506 600.234 230.696C599.295 229.885 598.133 229.48 596.746 229.48C595.487 229.48 594.41 229.885 593.514 230.696C592.618 231.485 592.085 232.562 591.914 233.928H601.674ZM617.968 226.408C619.355 226.408 620.592 226.696 621.68 227.272C622.789 227.848 623.653 228.701 624.272 229.832C624.891 230.962 625.2 232.328 625.2 233.928V244.328H621.584V234.472C621.584 232.893 621.189 231.688 620.4 230.856C619.611 230.002 618.533 229.576 617.168 229.576C615.803 229.576 614.715 230.002 613.904 230.856C613.115 231.688 612.72 232.893 612.72 234.472V244.328H609.072V226.696H612.72V228.712C613.317 227.986 614.075 227.421 614.992 227.016C615.931 226.61 616.923 226.408 617.968 226.408ZM654.038 226.696L643.222 252.616H639.446L643.03 244.04L636.086 226.696H640.15L645.11 240.136L650.262 226.696H654.038ZM664.439 244.616C662.775 244.616 661.271 244.242 659.927 243.496C658.583 242.728 657.527 241.661 656.759 240.296C655.991 238.909 655.607 237.309 655.607 235.496C655.607 233.704 656.001 232.114 656.791 230.728C657.58 229.341 658.657 228.274 660.023 227.528C661.388 226.781 662.913 226.408 664.599 226.408C666.284 226.408 667.809 226.781 669.175 227.528C670.54 228.274 671.617 229.341 672.407 230.728C673.196 232.114 673.591 233.704 673.591 235.496C673.591 237.288 673.185 238.877 672.375 240.264C671.564 241.65 670.455 242.728 669.047 243.496C667.66 244.242 666.124 244.616 664.439 244.616ZM664.439 241.448C665.377 241.448 666.252 241.224 667.063 240.776C667.895 240.328 668.567 239.656 669.079 238.76C669.591 237.864 669.847 236.776 669.847 235.496C669.847 234.216 669.601 233.138 669.111 232.264C668.62 231.368 667.969 230.696 667.159 230.248C666.348 229.8 665.473 229.576 664.535 229.576C663.596 229.576 662.721 229.8 661.911 230.248C661.121 230.696 660.492 231.368 660.023 232.264C659.553 233.138 659.319 234.216 659.319 235.496C659.319 237.394 659.799 238.866 660.759 239.912C661.74 240.936 662.967 241.448 664.439 241.448ZM693.165 226.696V244.328H689.517V242.248C688.941 242.973 688.184 243.549 687.245 243.976C686.328 244.381 685.346 244.584 684.301 244.584C682.914 244.584 681.666 244.296 680.557 243.72C679.469 243.144 678.605 242.29 677.965 241.16C677.346 240.029 677.037 238.664 677.037 237.064V226.696H680.653V236.52C680.653 238.098 681.048 239.314 681.837 240.168C682.626 241 683.704 241.416 685.069 241.416C686.434 241.416 687.512 241 688.301 240.168C689.112 239.314 689.517 238.098 689.517 236.52V226.696H693.165ZM122.372 283.496C122.372 281.682 122.734 280.093 123.46 278.728C124.206 277.341 125.23 276.274 126.532 275.528C127.833 274.781 129.326 274.408 131.012 274.408C133.145 274.408 134.905 274.92 136.292 275.944C137.7 276.946 138.649 278.386 139.14 280.264H135.204C134.884 279.389 134.372 278.706 133.668 278.216C132.964 277.725 132.078 277.48 131.012 277.48C129.518 277.48 128.324 278.013 127.428 279.08C126.553 280.125 126.116 281.597 126.116 283.496C126.116 285.394 126.553 286.877 127.428 287.944C128.324 289.01 129.518 289.544 131.012 289.544C133.124 289.544 134.521 288.616 135.204 286.76H139.14C138.628 288.552 137.668 289.981 136.26 291.048C134.852 292.093 133.102 292.616 131.012 292.616C129.326 292.616 127.833 292.242 126.532 291.496C125.23 290.728 124.206 289.661 123.46 288.296C122.734 286.909 122.372 285.309 122.372 283.496ZM146.423 277.256C146.956 276.36 147.66 275.666 148.535 275.176C149.431 274.664 150.487 274.408 151.703 274.408V278.184H150.775C149.346 278.184 148.258 278.546 147.511 279.272C146.786 279.997 146.423 281.256 146.423 283.048V292.328H142.775V274.696H146.423V277.256ZM171.216 283.08C171.216 283.741 171.174 284.338 171.088 284.872H157.616C157.723 286.28 158.246 287.41 159.184 288.264C160.123 289.117 161.275 289.544 162.64 289.544C164.603 289.544 165.99 288.722 166.8 287.08H170.736C170.203 288.701 169.232 290.034 167.824 291.08C166.438 292.104 164.71 292.616 162.64 292.616C160.955 292.616 159.44 292.242 158.096 291.496C156.774 290.728 155.728 289.661 154.96 288.296C154.214 286.909 153.84 285.309 153.84 283.496C153.84 281.682 154.203 280.093 154.928 278.728C155.675 277.341 156.71 276.274 158.032 275.528C159.376 274.781 160.912 274.408 162.64 274.408C164.304 274.408 165.787 274.77 167.088 275.496C168.39 276.221 169.403 277.245 170.128 278.568C170.854 279.869 171.216 281.373 171.216 283.08ZM167.408 281.928C167.387 280.584 166.907 279.506 165.968 278.696C165.03 277.885 163.867 277.48 162.48 277.48C161.222 277.48 160.144 277.885 159.248 278.696C158.352 279.485 157.819 280.562 157.648 281.928H167.408ZM173.59 283.432C173.59 281.661 173.953 280.093 174.678 278.728C175.425 277.362 176.428 276.306 177.686 275.56C178.966 274.792 180.374 274.408 181.91 274.408C183.297 274.408 184.502 274.685 185.526 275.24C186.572 275.773 187.404 276.445 188.022 277.256V274.696H191.702V292.328H188.022V289.704C187.404 290.536 186.561 291.229 185.494 291.784C184.428 292.338 183.212 292.616 181.846 292.616C180.332 292.616 178.945 292.232 177.686 291.464C176.428 290.674 175.425 289.586 174.678 288.2C173.953 286.792 173.59 285.202 173.59 283.432ZM188.022 283.496C188.022 282.28 187.766 281.224 187.254 280.328C186.764 279.432 186.113 278.749 185.302 278.28C184.492 277.81 183.617 277.576 182.678 277.576C181.74 277.576 180.865 277.81 180.054 278.28C179.244 278.728 178.582 279.4 178.07 280.296C177.58 281.17 177.334 282.216 177.334 283.432C177.334 284.648 177.58 285.714 178.07 286.632C178.582 287.549 179.244 288.253 180.054 288.744C180.886 289.213 181.761 289.448 182.678 289.448C183.617 289.448 184.492 289.213 185.302 288.744C186.113 288.274 186.764 287.592 187.254 286.696C187.766 285.778 188.022 284.712 188.022 283.496ZM200.75 277.672V287.432C200.75 288.093 200.899 288.573 201.198 288.872C201.518 289.149 202.051 289.288 202.798 289.288H205.038V292.328H202.158C200.515 292.328 199.256 291.944 198.382 291.176C197.507 290.408 197.07 289.16 197.07 287.432V277.672H194.99V274.696H197.07V270.312H200.75V274.696H205.038V277.672H200.75ZM224.56 283.08C224.56 283.741 224.517 284.338 224.432 284.872H210.96C211.067 286.28 211.589 287.41 212.528 288.264C213.467 289.117 214.619 289.544 215.984 289.544C217.947 289.544 219.333 288.722 220.144 287.08H224.08C223.547 288.701 222.576 290.034 221.168 291.08C219.781 292.104 218.053 292.616 215.984 292.616C214.299 292.616 212.784 292.242 211.44 291.496C210.117 290.728 209.072 289.661 208.304 288.296C207.557 286.909 207.184 285.309 207.184 283.496C207.184 281.682 207.547 280.093 208.272 278.728C209.019 277.341 210.053 276.274 211.376 275.528C212.72 274.781 214.256 274.408 215.984 274.408C217.648 274.408 219.131 274.77 220.432 275.496C221.733 276.221 222.747 277.245 223.472 278.568C224.197 279.869 224.56 281.373 224.56 283.08ZM220.752 281.928C220.731 280.584 220.251 279.506 219.312 278.696C218.373 277.885 217.211 277.48 215.824 277.48C214.565 277.48 213.488 277.885 212.592 278.696C211.696 279.485 211.163 280.562 210.992 281.928H220.752ZM240.111 277.288C240.729 276.477 241.572 275.794 242.639 275.24C243.705 274.685 244.911 274.408 246.255 274.408C247.791 274.408 249.188 274.792 250.447 275.56C251.727 276.306 252.729 277.362 253.455 278.728C254.18 280.093 254.543 281.661 254.543 283.432C254.543 285.202 254.18 286.792 253.455 288.2C252.729 289.586 251.727 290.674 250.447 291.464C249.188 292.232 247.791 292.616 246.255 292.616C244.911 292.616 243.716 292.349 242.671 291.816C241.625 291.261 240.772 290.578 240.111 289.768V300.712H236.463V274.696H240.111V277.288ZM250.831 283.432C250.831 282.216 250.575 281.17 250.062 280.296C249.572 279.4 248.911 278.728 248.079 278.28C247.268 277.81 246.393 277.576 245.455 277.576C244.537 277.576 243.663 277.81 242.831 278.28C242.02 278.749 241.359 279.432 240.847 280.328C240.356 281.224 240.111 282.28 240.111 283.496C240.111 284.712 240.356 285.778 240.847 286.696C241.359 287.592 242.02 288.274 242.831 288.744C243.663 289.213 244.537 289.448 245.455 289.448C246.393 289.448 247.268 289.213 248.079 288.744C248.911 288.253 249.572 287.549 250.062 286.632C250.575 285.714 250.831 284.648 250.831 283.432ZM261.798 277.256C262.331 276.36 263.035 275.666 263.91 275.176C264.806 274.664 265.862 274.408 267.078 274.408V278.184H266.15C264.721 278.184 263.633 278.546 262.886 279.272C262.161 279.997 261.798 281.256 261.798 283.048V292.328H258.15V274.696H261.798V277.256ZM278.079 292.616C276.415 292.616 274.911 292.242 273.567 291.496C272.223 290.728 271.167 289.661 270.399 288.296C269.631 286.909 269.247 285.309 269.247 283.496C269.247 281.704 269.642 280.114 270.431 278.728C271.221 277.341 272.298 276.274 273.663 275.528C275.029 274.781 276.554 274.408 278.239 274.408C279.925 274.408 281.45 274.781 282.815 275.528C284.181 276.274 285.258 277.341 286.047 278.728C286.837 280.114 287.231 281.704 287.231 283.496C287.231 285.288 286.826 286.877 286.015 288.264C285.205 289.65 284.095 290.728 282.687 291.496C281.301 292.242 279.765 292.616 278.079 292.616ZM278.079 289.448C279.018 289.448 279.893 289.224 280.703 288.776C281.535 288.328 282.207 287.656 282.719 286.76C283.231 285.864 283.487 284.776 283.487 283.496C283.487 282.216 283.242 281.138 282.751 280.264C282.261 279.368 281.61 278.696 280.799 278.248C279.989 277.8 279.114 277.576 278.175 277.576C277.237 277.576 276.362 277.8 275.551 278.248C274.762 278.696 274.133 279.368 273.663 280.264C273.194 281.138 272.959 282.216 272.959 283.496C272.959 285.394 273.439 286.866 274.399 287.912C275.381 288.936 276.607 289.448 278.079 289.448ZM312.182 274.408C313.568 274.408 314.806 274.696 315.894 275.272C317.003 275.848 317.867 276.701 318.486 277.832C319.126 278.962 319.446 280.328 319.446 281.928V292.328H315.83V282.472C315.83 280.893 315.435 279.688 314.646 278.856C313.856 278.002 312.779 277.576 311.414 277.576C310.048 277.576 308.96 278.002 308.15 278.856C307.36 279.688 306.966 280.893 306.966 282.472V292.328H303.35V282.472C303.35 280.893 302.955 279.688 302.166 278.856C301.376 278.002 300.299 277.576 298.934 277.576C297.568 277.576 296.48 278.002 295.67 278.856C294.88 279.688 294.486 280.893 294.486 282.472V292.328H290.838V274.696H294.486V276.712C295.083 275.986 295.84 275.421 296.758 275.016C297.675 274.61 298.656 274.408 299.702 274.408C301.11 274.408 302.368 274.706 303.478 275.304C304.587 275.901 305.44 276.765 306.038 277.896C306.571 276.829 307.403 275.986 308.534 275.368C309.664 274.728 310.88 274.408 312.182 274.408ZM331.736 292.616C330.072 292.616 328.568 292.242 327.224 291.496C325.88 290.728 324.824 289.661 324.056 288.296C323.288 286.909 322.904 285.309 322.904 283.496C322.904 281.704 323.298 280.114 324.088 278.728C324.877 277.341 325.954 276.274 327.32 275.528C328.685 274.781 330.21 274.408 331.896 274.408C333.581 274.408 335.106 274.781 336.472 275.528C337.837 276.274 338.914 277.341 339.704 278.728C340.493 280.114 340.888 281.704 340.888 283.496C340.888 285.288 340.482 286.877 339.672 288.264C338.861 289.65 337.752 290.728 336.344 291.496C334.957 292.242 333.421 292.616 331.736 292.616ZM331.736 289.448C332.674 289.448 333.549 289.224 334.36 288.776C335.192 288.328 335.864 287.656 336.376 286.76C336.888 285.864 337.144 284.776 337.144 283.496C337.144 282.216 336.898 281.138 336.408 280.264C335.917 279.368 335.266 278.696 334.456 278.248C333.645 277.8 332.77 277.576 331.832 277.576C330.893 277.576 330.018 277.8 329.208 278.248C328.418 278.696 327.789 279.368 327.32 280.264C326.85 281.138 326.616 282.216 326.616 283.496C326.616 285.394 327.096 286.866 328.056 287.912C329.037 288.936 330.264 289.448 331.736 289.448ZM360.198 277.672H356.934V292.328H353.254V277.672H351.174V274.696H353.254V273.448C353.254 271.421 353.788 269.949 354.854 269.032C355.942 268.093 357.638 267.624 359.942 267.624V270.664C358.833 270.664 358.054 270.877 357.606 271.304C357.158 271.709 356.934 272.424 356.934 273.448V274.696H360.198V277.672ZM371.079 292.616C369.415 292.616 367.911 292.242 366.567 291.496C365.223 290.728 364.167 289.661 363.399 288.296C362.631 286.909 362.247 285.309 362.247 283.496C362.247 281.704 362.642 280.114 363.431 278.728C364.221 277.341 365.298 276.274 366.663 275.528C368.029 274.781 369.554 274.408 371.239 274.408C372.925 274.408 374.45 274.781 375.815 275.528C377.181 276.274 378.258 277.341 379.047 278.728C379.837 280.114 380.231 281.704 380.231 283.496C380.231 285.288 379.826 286.877 379.015 288.264C378.205 289.65 377.095 290.728 375.687 291.496C374.301 292.242 372.765 292.616 371.079 292.616ZM371.079 289.448C372.018 289.448 372.893 289.224 373.703 288.776C374.535 288.328 375.207 287.656 375.719 286.76C376.231 285.864 376.487 284.776 376.487 283.496C376.487 282.216 376.242 281.138 375.751 280.264C375.261 279.368 374.61 278.696 373.799 278.248C372.989 277.8 372.114 277.576 371.175 277.576C370.237 277.576 369.362 277.8 368.551 278.248C367.762 278.696 367.133 279.368 366.663 280.264C366.194 281.138 365.959 282.216 365.959 283.496C365.959 285.394 366.439 286.866 367.399 287.912C368.381 288.936 369.607 289.448 371.079 289.448ZM387.486 277.256C388.019 276.36 388.723 275.666 389.598 275.176C390.494 274.664 391.55 274.408 392.766 274.408V278.184H391.838C390.408 278.184 389.32 278.546 388.574 279.272C387.848 279.997 387.486 281.256 387.486 283.048V292.328H383.838V274.696H387.486V277.256ZM410.831 292.616C409.445 292.616 408.197 292.37 407.087 291.88C405.999 291.368 405.135 290.685 404.495 289.832C403.855 288.957 403.514 287.986 403.471 286.92H407.247C407.311 287.666 407.663 288.296 408.303 288.808C408.965 289.298 409.786 289.544 410.767 289.544C411.791 289.544 412.581 289.352 413.135 288.968C413.711 288.562 413.999 288.05 413.999 287.432C413.999 286.77 413.679 286.28 413.039 285.96C412.421 285.64 411.429 285.288 410.063 284.904C408.741 284.541 407.663 284.189 406.831 283.848C405.999 283.506 405.274 282.984 404.655 282.28C404.058 281.576 403.759 280.648 403.759 279.496C403.759 278.557 404.037 277.704 404.591 276.936C405.146 276.146 405.935 275.528 406.959 275.08C408.005 274.632 409.199 274.408 410.543 274.408C412.549 274.408 414.159 274.92 415.375 275.944C416.613 276.946 417.274 278.322 417.359 280.072H413.711C413.647 279.282 413.327 278.653 412.751 278.184C412.175 277.714 411.397 277.48 410.415 277.48C409.455 277.48 408.719 277.661 408.207 278.024C407.695 278.386 407.439 278.866 407.439 279.464C407.439 279.933 407.61 280.328 407.951 280.648C408.293 280.968 408.709 281.224 409.199 281.416C409.69 281.586 410.415 281.81 411.375 282.088C412.655 282.429 413.701 282.781 414.511 283.144C415.343 283.485 416.058 283.997 416.655 284.68C417.253 285.362 417.562 286.269 417.583 287.4C417.583 288.402 417.306 289.298 416.751 290.088C416.197 290.877 415.407 291.496 414.383 291.944C413.381 292.392 412.197 292.616 410.831 292.616ZM437.493 274.696V292.328H433.845V290.248C433.269 290.973 432.512 291.549 431.573 291.976C430.656 292.381 429.674 292.584 428.629 292.584C427.242 292.584 425.994 292.296 424.885 291.72C423.797 291.144 422.933 290.29 422.293 289.16C421.674 288.029 421.365 286.664 421.365 285.064V274.696H424.981V284.52C424.981 286.098 425.376 287.314 426.165 288.168C426.954 289 428.032 289.416 429.397 289.416C430.762 289.416 431.84 289 432.629 288.168C433.44 287.314 433.845 286.098 433.845 284.52V274.696H437.493ZM449.41 274.408C450.776 274.408 451.981 274.685 453.026 275.24C454.093 275.773 454.925 276.445 455.522 277.256V274.696H459.202V292.616C459.202 294.237 458.861 295.677 458.178 296.936C457.496 298.216 456.504 299.218 455.202 299.944C453.922 300.669 452.386 301.032 450.594 301.032C448.205 301.032 446.221 300.466 444.642 299.336C443.064 298.226 442.168 296.712 441.954 294.792H445.57C445.848 295.709 446.434 296.445 447.33 297C448.248 297.576 449.336 297.864 450.594 297.864C452.066 297.864 453.25 297.416 454.146 296.52C455.064 295.624 455.522 294.322 455.522 292.616V289.672C454.904 290.504 454.061 291.208 452.994 291.784C451.949 292.338 450.754 292.616 449.41 292.616C447.874 292.616 446.466 292.232 445.186 291.464C443.928 290.674 442.925 289.586 442.178 288.2C441.453 286.792 441.09 285.202 441.09 283.432C441.09 281.661 441.453 280.093 442.178 278.728C442.925 277.362 443.928 276.306 445.186 275.56C446.466 274.792 447.874 274.408 449.41 274.408ZM455.522 283.496C455.522 282.28 455.266 281.224 454.754 280.328C454.264 279.432 453.613 278.749 452.802 278.28C451.992 277.81 451.117 277.576 450.178 277.576C449.24 277.576 448.365 277.81 447.554 278.28C446.744 278.728 446.082 279.4 445.57 280.296C445.08 281.17 444.834 282.216 444.834 283.432C444.834 284.648 445.08 285.714 445.57 286.632C446.082 287.549 446.744 288.253 447.554 288.744C448.386 289.213 449.261 289.448 450.178 289.448C451.117 289.448 451.992 289.213 452.802 288.744C453.613 288.274 454.264 287.592 454.754 286.696C455.266 285.778 455.522 284.712 455.522 283.496ZM471.098 274.408C472.463 274.408 473.668 274.685 474.714 275.24C475.78 275.773 476.612 276.445 477.21 277.256V274.696H480.89V292.616C480.89 294.237 480.548 295.677 479.866 296.936C479.183 298.216 478.191 299.218 476.89 299.944C475.61 300.669 474.074 301.032 472.282 301.032C469.892 301.032 467.908 300.466 466.33 299.336C464.751 298.226 463.855 296.712 463.642 294.792H467.258C467.535 295.709 468.122 296.445 469.018 297C469.935 297.576 471.023 297.864 472.282 297.864C473.754 297.864 474.938 297.416 475.834 296.52C476.751 295.624 477.21 294.322 477.21 292.616V289.672C476.591 290.504 475.748 291.208 474.682 291.784C473.636 292.338 472.442 292.616 471.098 292.616C469.562 292.616 468.154 292.232 466.874 291.464C465.615 290.674 464.612 289.586 463.866 288.2C463.14 286.792 462.778 285.202 462.778 283.432C462.778 281.661 463.14 280.093 463.866 278.728C464.612 277.362 465.615 276.306 466.874 275.56C468.154 274.792 469.562 274.408 471.098 274.408ZM477.21 283.496C477.21 282.28 476.954 281.224 476.442 280.328C475.951 279.432 475.3 278.749 474.49 278.28C473.679 277.81 472.804 277.576 471.866 277.576C470.927 277.576 470.052 277.81 469.242 278.28C468.431 278.728 467.77 279.4 467.258 280.296C466.767 281.17 466.522 282.216 466.522 283.432C466.522 284.648 466.767 285.714 467.258 286.632C467.77 287.549 468.431 288.253 469.242 288.744C470.074 289.213 470.948 289.448 471.866 289.448C472.804 289.448 473.679 289.213 474.49 288.744C475.3 288.274 475.951 287.592 476.442 286.696C476.954 285.778 477.21 284.712 477.21 283.496ZM501.841 283.08C501.841 283.741 501.799 284.338 501.713 284.872H488.241C488.348 286.28 488.871 287.41 489.809 288.264C490.748 289.117 491.9 289.544 493.265 289.544C495.228 289.544 496.615 288.722 497.425 287.08H501.361C500.828 288.701 499.857 290.034 498.449 291.08C497.063 292.104 495.335 292.616 493.265 292.616C491.58 292.616 490.065 292.242 488.721 291.496C487.399 290.728 486.353 289.661 485.585 288.296C484.839 286.909 484.465 285.309 484.465 283.496C484.465 281.682 484.828 280.093 485.553 278.728C486.3 277.341 487.335 276.274 488.657 275.528C490.001 274.781 491.537 274.408 493.265 274.408C494.929 274.408 496.412 274.77 497.713 275.496C499.015 276.221 500.028 277.245 500.753 278.568C501.479 279.869 501.841 281.373 501.841 283.08ZM498.033 281.928C498.012 280.584 497.532 279.506 496.593 278.696C495.655 277.885 494.492 277.48 493.105 277.48C491.847 277.48 490.769 277.885 489.873 278.696C488.977 279.485 488.444 280.562 488.273 281.928H498.033ZM511.831 292.616C510.445 292.616 509.197 292.37 508.087 291.88C506.999 291.368 506.135 290.685 505.495 289.832C504.855 288.957 504.514 287.986 504.471 286.92H508.247C508.311 287.666 508.663 288.296 509.303 288.808C509.965 289.298 510.786 289.544 511.767 289.544C512.791 289.544 513.581 289.352 514.135 288.968C514.711 288.562 514.999 288.05 514.999 287.432C514.999 286.77 514.679 286.28 514.039 285.96C513.421 285.64 512.429 285.288 511.063 284.904C509.741 284.541 508.663 284.189 507.831 283.848C506.999 283.506 506.274 282.984 505.655 282.28C505.058 281.576 504.759 280.648 504.759 279.496C504.759 278.557 505.037 277.704 505.591 276.936C506.146 276.146 506.935 275.528 507.959 275.08C509.005 274.632 510.199 274.408 511.543 274.408C513.549 274.408 515.159 274.92 516.375 275.944C517.613 276.946 518.274 278.322 518.359 280.072H514.711C514.647 279.282 514.327 278.653 513.751 278.184C513.175 277.714 512.397 277.48 511.415 277.48C510.455 277.48 509.719 277.661 509.207 278.024C508.695 278.386 508.439 278.866 508.439 279.464C508.439 279.933 508.61 280.328 508.951 280.648C509.293 280.968 509.709 281.224 510.199 281.416C510.69 281.586 511.415 281.81 512.375 282.088C513.655 282.429 514.701 282.781 515.511 283.144C516.343 283.485 517.058 283.997 517.655 284.68C518.253 285.362 518.562 286.269 518.583 287.4C518.583 288.402 518.306 289.298 517.751 290.088C517.197 290.877 516.407 291.496 515.383 291.944C514.381 292.392 513.197 292.616 511.831 292.616ZM526.781 277.672V287.432C526.781 288.093 526.93 288.573 527.229 288.872C527.549 289.149 528.082 289.288 528.829 289.288H531.069V292.328H528.189C526.546 292.328 525.288 291.944 524.413 291.176C523.538 290.408 523.101 289.16 523.101 287.432V277.672H521.021V274.696H523.101V270.312H526.781V274.696H531.069V277.672H526.781ZM550.591 283.08C550.591 283.741 550.549 284.338 550.463 284.872H536.991C537.098 286.28 537.621 287.41 538.559 288.264C539.498 289.117 540.65 289.544 542.015 289.544C543.978 289.544 545.365 288.722 546.175 287.08H550.111C549.578 288.701 548.607 290.034 547.199 291.08C545.813 292.104 544.085 292.616 542.015 292.616C540.33 292.616 538.815 292.242 537.471 291.496C536.149 290.728 535.103 289.661 534.335 288.296C533.589 286.909 533.215 285.309 533.215 283.496C533.215 281.682 533.578 280.093 534.303 278.728C535.05 277.341 536.085 276.274 537.407 275.528C538.751 274.781 540.287 274.408 542.015 274.408C543.679 274.408 545.162 274.77 546.463 275.496C547.765 276.221 548.778 277.245 549.503 278.568C550.229 279.869 550.591 281.373 550.591 283.08ZM546.783 281.928C546.762 280.584 546.282 279.506 545.343 278.696C544.405 277.885 543.242 277.48 541.855 277.48C540.597 277.48 539.519 277.885 538.623 278.696C537.727 279.485 537.194 280.562 537.023 281.928H546.783ZM552.965 283.432C552.965 281.661 553.328 280.093 554.053 278.728C554.8 277.362 555.803 276.306 557.061 275.56C558.341 274.792 559.76 274.408 561.317 274.408C562.469 274.408 563.6 274.664 564.709 275.176C565.84 275.666 566.736 276.328 567.397 277.16V268.648H571.077V292.328H567.397V289.672C566.8 290.525 565.968 291.229 564.901 291.784C563.856 292.338 562.651 292.616 561.285 292.616C559.749 292.616 558.341 292.232 557.061 291.464C555.803 290.674 554.8 289.586 554.053 288.2C553.328 286.792 552.965 285.202 552.965 283.432ZM567.397 283.496C567.397 282.28 567.141 281.224 566.629 280.328C566.139 279.432 565.488 278.749 564.677 278.28C563.867 277.81 562.992 277.576 562.053 277.576C561.115 277.576 560.24 277.81 559.429 278.28C558.619 278.728 557.957 279.4 557.445 280.296C556.955 281.17 556.709 282.216 556.709 283.432C556.709 284.648 556.955 285.714 557.445 286.632C557.957 287.549 558.619 288.253 559.429 288.744C560.261 289.213 561.136 289.448 562.053 289.448C562.992 289.448 563.867 289.213 564.677 288.744C565.488 288.274 566.139 287.592 566.629 286.696C567.141 285.778 567.397 284.712 567.397 283.496ZM587.829 277.288C588.448 276.477 589.291 275.794 590.357 275.24C591.424 274.685 592.629 274.408 593.973 274.408C595.509 274.408 596.907 274.792 598.165 275.56C599.445 276.306 600.448 277.362 601.173 278.728C601.899 280.093 602.261 281.661 602.261 283.432C602.261 285.202 601.899 286.792 601.173 288.2C600.448 289.586 599.445 290.674 598.165 291.464C596.907 292.232 595.509 292.616 593.973 292.616C592.629 292.616 591.435 292.349 590.389 291.816C589.344 291.261 588.491 290.578 587.829 289.768V300.712H584.181V274.696H587.829V277.288ZM598.549 283.432C598.549 282.216 598.293 281.17 597.781 280.296C597.291 279.4 596.629 278.728 595.797 278.28C594.987 277.81 594.112 277.576 593.173 277.576C592.256 277.576 591.381 277.81 590.549 278.28C589.739 278.749 589.077 279.432 588.565 280.328C588.075 281.224 587.829 282.28 587.829 283.496C587.829 284.712 588.075 285.778 588.565 286.696C589.077 287.592 589.739 288.274 590.549 288.744C591.381 289.213 592.256 289.448 593.173 289.448C594.112 289.448 594.987 289.213 595.797 288.744C596.629 288.253 597.291 287.549 597.781 286.632C598.293 285.714 598.549 284.648 598.549 283.432ZM609.517 277.256C610.05 276.36 610.754 275.666 611.629 275.176C612.525 274.664 613.581 274.408 614.797 274.408V278.184H613.869C612.439 278.184 611.351 278.546 610.605 279.272C609.879 279.997 609.517 281.256 609.517 283.048V292.328H605.869V274.696H609.517V277.256ZM625.798 292.616C624.134 292.616 622.63 292.242 621.286 291.496C619.942 290.728 618.886 289.661 618.118 288.296C617.35 286.909 616.966 285.309 616.966 283.496C616.966 281.704 617.361 280.114 618.15 278.728C618.939 277.341 620.017 276.274 621.382 275.528C622.747 274.781 624.273 274.408 625.958 274.408C627.643 274.408 629.169 274.781 630.534 275.528C631.899 276.274 632.977 277.341 633.766 278.728C634.555 280.114 634.95 281.704 634.95 283.496C634.95 285.288 634.545 286.877 633.734 288.264C632.923 289.65 631.814 290.728 630.406 291.496C629.019 292.242 627.483 292.616 625.798 292.616ZM625.798 289.448C626.737 289.448 627.611 289.224 628.422 288.776C629.254 288.328 629.926 287.656 630.438 286.76C630.95 285.864 631.206 284.776 631.206 283.496C631.206 282.216 630.961 281.138 630.47 280.264C629.979 279.368 629.329 278.696 628.518 278.248C627.707 277.8 626.833 277.576 625.894 277.576C624.955 277.576 624.081 277.8 623.27 278.248C622.481 278.696 621.851 279.368 621.382 280.264C620.913 281.138 620.678 282.216 620.678 283.496C620.678 285.394 621.158 286.866 622.118 287.912C623.099 288.936 624.326 289.448 625.798 289.448ZM637.34 283.432C637.34 281.661 637.703 280.093 638.428 278.728C639.175 277.362 640.178 276.306 641.436 275.56C642.716 274.792 644.135 274.408 645.692 274.408C646.844 274.408 647.975 274.664 649.084 275.176C650.215 275.666 651.111 276.328 651.772 277.16V268.648H655.452V292.328H651.772V289.672C651.175 290.525 650.343 291.229 649.276 291.784C648.231 292.338 647.026 292.616 645.66 292.616C644.124 292.616 642.716 292.232 641.436 291.464C640.178 290.674 639.175 289.586 638.428 288.2C637.703 286.792 637.34 285.202 637.34 283.432ZM651.772 283.496C651.772 282.28 651.516 281.224 651.004 280.328C650.514 279.432 649.863 278.749 649.052 278.28C648.242 277.81 647.367 277.576 646.428 277.576C645.49 277.576 644.615 277.81 643.804 278.28C642.994 278.728 642.332 279.4 641.82 280.296C641.33 281.17 641.084 282.216 641.084 283.432C641.084 284.648 641.33 285.714 641.82 286.632C642.332 287.549 642.994 288.253 643.804 288.744C644.636 289.213 645.511 289.448 646.428 289.448C647.367 289.448 648.242 289.213 649.052 288.744C649.863 288.274 650.514 287.592 651.004 286.696C651.516 285.778 651.772 284.712 651.772 283.496ZM676.212 274.696V292.328H672.564V290.248C671.988 290.973 671.23 291.549 670.292 291.976C669.374 292.381 668.393 292.584 667.348 292.584C665.961 292.584 664.713 292.296 663.604 291.72C662.516 291.144 661.652 290.29 661.012 289.16C660.393 288.029 660.084 286.664 660.084 285.064V274.696H663.7V284.52C663.7 286.098 664.094 287.314 664.884 288.168C665.673 289 666.75 289.416 668.116 289.416C669.481 289.416 670.558 289 671.348 288.168C672.158 287.314 672.564 286.098 672.564 284.52V274.696H676.212ZM679.809 283.496C679.809 281.682 680.172 280.093 680.897 278.728C681.644 277.341 682.668 276.274 683.969 275.528C685.27 274.781 686.764 274.408 688.449 274.408C690.582 274.408 692.342 274.92 693.729 275.944C695.137 276.946 696.086 278.386 696.577 280.264H692.641C692.321 279.389 691.809 278.706 691.105 278.216C690.401 277.725 689.516 277.48 688.449 277.48C686.956 277.48 685.761 278.013 684.865 279.08C683.99 280.125 683.553 281.597 683.553 283.496C683.553 285.394 683.99 286.877 684.865 287.944C685.761 289.01 686.956 289.544 688.449 289.544C690.561 289.544 691.958 288.616 692.641 286.76H696.577C696.065 288.552 695.105 289.981 693.697 291.048C692.289 292.093 690.54 292.616 688.449 292.616C686.764 292.616 685.27 292.242 683.969 291.496C682.668 290.728 681.644 289.661 680.897 288.296C680.172 286.909 679.809 285.309 679.809 283.496ZM704.469 277.672V287.432C704.469 288.093 704.618 288.573 704.917 288.872C705.237 289.149 705.77 289.288 706.517 289.288H708.757V292.328H705.877C704.234 292.328 702.975 291.944 702.101 291.176C701.226 290.408 700.789 289.16 700.789 287.432V277.672H698.709V274.696H700.789V270.312H704.469V274.696H708.757V277.672H704.469ZM718.519 292.616C717.132 292.616 715.884 292.37 714.775 291.88C713.687 291.368 712.823 290.685 712.183 289.832C711.543 288.957 711.201 287.986 711.159 286.92H714.935C714.999 287.666 715.351 288.296 715.991 288.808C716.652 289.298 717.473 289.544 718.455 289.544C719.479 289.544 720.268 289.352 720.823 288.968C721.399 288.562 721.687 288.05 721.687 287.432C721.687 286.77 721.367 286.28 720.727 285.96C720.108 285.64 719.116 285.288 717.751 284.904C716.428 284.541 715.351 284.189 714.519 283.848C713.687 283.506 712.961 282.984 712.343 282.28C711.745 281.576 711.447 280.648 711.447 279.496C711.447 278.557 711.724 277.704 712.279 276.936C712.833 276.146 713.623 275.528 714.647 275.08C715.692 274.632 716.887 274.408 718.231 274.408C720.236 274.408 721.847 274.92 723.063 275.944C724.3 276.946 724.961 278.322 725.047 280.072H721.399C721.335 279.282 721.015 278.653 720.439 278.184C719.863 277.714 719.084 277.48 718.103 277.48C717.143 277.48 716.407 277.661 715.895 278.024C715.383 278.386 715.127 278.866 715.127 279.464C715.127 279.933 715.297 280.328 715.639 280.648C715.98 280.968 716.396 281.224 716.887 281.416C717.377 281.586 718.103 281.81 719.063 282.088C720.343 282.429 721.388 282.781 722.199 283.144C723.031 283.485 723.745 283.997 724.343 284.68C724.94 285.362 725.249 286.269 725.271 287.4C725.271 288.402 724.993 289.298 724.439 290.088C723.884 290.877 723.095 291.496 722.071 291.944C721.068 292.392 719.884 292.616 718.519 292.616Z" fill="#93979D"/>
<path d="M431.191 716.15C348.353 717.029 280.487 650.588 279.608 567.75C278.729 484.912 345.17 417.046 428.008 416.167C510.846 415.288 578.712 481.729 579.591 564.567C580.47 647.405 514.029 715.271 431.191 716.15ZM428.478 460.444C370.094 461.063 323.266 508.895 323.885 567.28C324.505 625.664 372.337 672.492 430.721 671.873C489.106 671.253 535.934 623.421 535.314 565.037C534.695 506.652 486.863 459.824 428.478 460.444Z" fill="#CDDBF8"/>
<path d="M357.009 544.872C357.009 543.139 357.384 541.597 358.134 540.247C358.884 538.881 359.926 537.822 361.259 537.072C362.609 536.306 364.134 535.922 365.834 535.922C367.917 535.922 369.701 536.472 371.184 537.572C372.667 538.672 373.659 540.172 374.159 542.072H369.459C369.109 541.339 368.609 540.781 367.959 540.397C367.326 540.014 366.601 539.822 365.784 539.822C364.467 539.822 363.401 540.281 362.584 541.197C361.767 542.114 361.359 543.339 361.359 544.872C361.359 546.406 361.767 547.631 362.584 548.547C363.401 549.464 364.467 549.922 365.784 549.922C366.601 549.922 367.326 549.731 367.959 549.347C368.609 548.964 369.109 548.406 369.459 547.672H374.159C373.659 549.572 372.667 551.072 371.184 552.172C369.701 553.256 367.917 553.797 365.834 553.797C364.134 553.797 362.609 553.422 361.259 552.672C359.926 551.906 358.884 550.847 358.134 549.497C357.384 548.147 357.009 546.606 357.009 544.872ZM383.127 553.872C381.76 553.872 380.527 553.581 379.427 552.997C378.344 552.414 377.485 551.581 376.852 550.497C376.235 549.414 375.927 548.147 375.927 546.697C375.927 545.264 376.244 544.006 376.877 542.922C377.51 541.822 378.377 540.981 379.477 540.397C380.577 539.814 381.81 539.522 383.177 539.522C384.544 539.522 385.777 539.814 386.877 540.397C387.977 540.981 388.844 541.822 389.477 542.922C390.11 544.006 390.427 545.264 390.427 546.697C390.427 548.131 390.102 549.397 389.452 550.497C388.819 551.581 387.944 552.414 386.827 552.997C385.727 553.581 384.494 553.872 383.127 553.872ZM383.127 550.172C383.944 550.172 384.635 549.872 385.202 549.272C385.785 548.672 386.077 547.814 386.077 546.697C386.077 545.581 385.794 544.722 385.227 544.122C384.677 543.522 383.994 543.222 383.177 543.222C382.344 543.222 381.652 543.522 381.102 544.122C380.552 544.706 380.277 545.564 380.277 546.697C380.277 547.814 380.544 548.672 381.077 549.272C381.627 549.872 382.31 550.172 383.127 550.172ZM401.195 539.572C402.828 539.572 404.128 540.106 405.095 541.172C406.078 542.222 406.57 543.672 406.57 545.522V553.672H402.32V546.097C402.32 545.164 402.078 544.439 401.595 543.922C401.112 543.406 400.462 543.147 399.645 543.147C398.828 543.147 398.178 543.406 397.695 543.922C397.212 544.439 396.97 545.164 396.97 546.097V553.672H392.695V539.722H396.97V541.572C397.403 540.956 397.987 540.472 398.72 540.122C399.453 539.756 400.278 539.572 401.195 539.572ZM415.816 549.672L418.841 539.722H423.391L418.441 553.672H413.166L408.216 539.722H412.791L415.816 549.672ZM438.34 546.472C438.34 546.872 438.315 547.289 438.265 547.722H428.59C428.657 548.589 428.932 549.256 429.415 549.722C429.915 550.172 430.523 550.397 431.24 550.397C432.307 550.397 433.048 549.947 433.465 549.047H438.015C437.782 549.964 437.357 550.789 436.74 551.522C436.14 552.256 435.382 552.831 434.465 553.247C433.548 553.664 432.523 553.872 431.39 553.872C430.023 553.872 428.807 553.581 427.74 552.997C426.673 552.414 425.84 551.581 425.24 550.497C424.64 549.414 424.34 548.147 424.34 546.697C424.34 545.247 424.632 543.981 425.215 542.897C425.815 541.814 426.648 540.981 427.715 540.397C428.782 539.814 430.007 539.522 431.39 539.522C432.74 539.522 433.94 539.806 434.99 540.372C436.04 540.939 436.857 541.747 437.44 542.797C438.04 543.847 438.34 545.072 438.34 546.472ZM433.965 545.347C433.965 544.614 433.715 544.031 433.215 543.597C432.715 543.164 432.09 542.947 431.34 542.947C430.623 542.947 430.015 543.156 429.515 543.572C429.032 543.989 428.732 544.581 428.615 545.347H433.965ZM444.87 542.047C445.37 541.281 445.995 540.681 446.745 540.247C447.495 539.797 448.329 539.572 449.245 539.572V544.097H448.07C447.004 544.097 446.204 544.331 445.67 544.797C445.137 545.247 444.87 546.047 444.87 547.197V553.672H440.595V539.722H444.87V542.047ZM456.964 553.872C455.747 553.872 454.664 553.664 453.714 553.247C452.764 552.831 452.014 552.264 451.464 551.547C450.914 550.814 450.605 549.997 450.539 549.097H454.764C454.814 549.581 455.039 549.972 455.439 550.272C455.839 550.572 456.33 550.722 456.914 550.722C457.447 550.722 457.855 550.622 458.139 550.422C458.439 550.206 458.589 549.931 458.589 549.597C458.589 549.197 458.38 548.906 457.964 548.722C457.547 548.522 456.872 548.306 455.939 548.072C454.939 547.839 454.105 547.597 453.439 547.347C452.772 547.081 452.197 546.672 451.714 546.122C451.23 545.556 450.989 544.797 450.989 543.847C450.989 543.047 451.205 542.322 451.639 541.672C452.089 541.006 452.739 540.481 453.589 540.097C454.455 539.714 455.48 539.522 456.664 539.522C458.414 539.522 459.789 539.956 460.789 540.822C461.805 541.689 462.389 542.839 462.539 544.272H458.589C458.522 543.789 458.305 543.406 457.939 543.122C457.589 542.839 457.122 542.697 456.539 542.697C456.039 542.697 455.655 542.797 455.389 542.997C455.122 543.181 454.989 543.439 454.989 543.772C454.989 544.172 455.197 544.472 455.614 544.672C456.047 544.872 456.714 545.072 457.614 545.272C458.647 545.539 459.489 545.806 460.139 546.072C460.789 546.322 461.355 546.739 461.839 547.322C462.339 547.889 462.597 548.656 462.614 549.622C462.614 550.439 462.38 551.172 461.914 551.822C461.464 552.456 460.805 552.956 459.939 553.322C459.089 553.689 458.097 553.872 456.964 553.872ZM467.379 538.272C466.629 538.272 466.013 538.056 465.529 537.622C465.063 537.172 464.829 536.622 464.829 535.972C464.829 535.306 465.063 534.756 465.529 534.322C466.013 533.872 466.629 533.647 467.379 533.647C468.113 533.647 468.713 533.872 469.179 534.322C469.663 534.756 469.904 535.306 469.904 535.972C469.904 536.622 469.663 537.172 469.179 537.622C468.713 538.056 468.113 538.272 467.379 538.272ZM469.504 539.722V553.672H465.229V539.722H469.504ZM478.952 553.872C477.586 553.872 476.352 553.581 475.252 552.997C474.169 552.414 473.311 551.581 472.677 550.497C472.061 549.414 471.752 548.147 471.752 546.697C471.752 545.264 472.069 544.006 472.702 542.922C473.336 541.822 474.202 540.981 475.302 540.397C476.402 539.814 477.636 539.522 479.002 539.522C480.369 539.522 481.602 539.814 482.702 540.397C483.802 540.981 484.669 541.822 485.302 542.922C485.936 544.006 486.252 545.264 486.252 546.697C486.252 548.131 485.927 549.397 485.277 550.497C484.644 551.581 483.769 552.414 482.652 552.997C481.552 553.581 480.319 553.872 478.952 553.872ZM478.952 550.172C479.769 550.172 480.461 549.872 481.027 549.272C481.611 548.672 481.902 547.814 481.902 546.697C481.902 545.581 481.619 544.722 481.052 544.122C480.502 543.522 479.819 543.222 479.002 543.222C478.169 543.222 477.477 543.522 476.927 544.122C476.377 544.706 476.102 545.564 476.102 546.697C476.102 547.814 476.369 548.672 476.902 549.272C477.452 549.872 478.136 550.172 478.952 550.172ZM497.02 539.572C498.654 539.572 499.954 540.106 500.92 541.172C501.904 542.222 502.395 543.672 502.395 545.522V553.672H498.145V546.097C498.145 545.164 497.904 544.439 497.42 543.922C496.937 543.406 496.287 543.147 495.47 543.147C494.654 543.147 494.004 543.406 493.52 543.922C493.037 544.439 492.795 545.164 492.795 546.097V553.672H488.52V539.722H492.795V541.572C493.229 540.956 493.812 540.472 494.545 540.122C495.279 539.756 496.104 539.572 497.02 539.572Z" fill="#93979D"/>
<path d="M312.793 664.956C303.678 672.673 302.464 686.434 311.246 694.528C328.884 710.785 349.737 723.296 372.548 731.2C402.193 741.473 434.055 743.587 464.798 737.321C495.541 731.055 524.034 716.638 547.294 695.582C570.553 674.525 587.724 647.603 597.009 617.633C606.293 587.663 607.35 555.748 600.068 525.23C592.786 494.712 577.433 466.712 555.617 444.163C533.801 421.615 506.324 405.346 476.063 397.06C452.778 390.684 428.505 389.215 404.765 392.653C392.945 394.365 386.167 406.403 389.323 417.921C392.478 429.439 404.387 436.027 416.266 434.796C432.437 433.121 448.841 434.446 464.641 438.772C487.424 445.01 508.111 457.259 524.535 474.235C540.96 491.211 552.519 512.291 558.001 535.267C563.483 558.244 562.688 582.271 555.698 604.835C548.708 627.398 535.78 647.667 518.269 663.52C500.758 679.373 479.306 690.227 456.161 694.944C433.015 699.662 409.027 698.071 386.708 690.336C371.23 684.973 356.949 676.792 344.557 666.268C335.455 658.537 321.907 657.238 312.793 664.956Z" fill="#376BED"/>
<path d="M396.418 592.022C396.151 590.789 395.685 589.872 395.018 589.272C394.351 588.639 393.401 588.322 392.168 588.322C390.268 588.322 388.901 589.156 388.068 590.822C387.235 592.456 386.801 595.056 386.768 598.622C387.501 597.456 388.551 596.539 389.918 595.872C391.318 595.206 392.851 594.872 394.518 594.872C397.785 594.872 400.401 595.906 402.368 597.972C404.368 600.039 405.368 602.922 405.368 606.622C405.368 609.056 404.868 611.189 403.868 613.022C402.901 614.856 401.468 616.289 399.568 617.322C397.701 618.356 395.485 618.872 392.918 618.872C387.785 618.872 384.218 617.272 382.218 614.072C380.218 610.839 379.218 606.206 379.218 600.172C379.218 593.839 380.268 589.139 382.368 586.072C384.501 582.972 387.901 581.422 392.568 581.422C395.068 581.422 397.168 581.922 398.868 582.922C400.601 583.889 401.901 585.172 402.768 586.772C403.668 588.372 404.201 590.122 404.368 592.022H396.418ZM392.468 601.622C391.035 601.622 389.835 602.056 388.868 602.922C387.935 603.756 387.468 604.956 387.468 606.522C387.468 608.122 387.901 609.372 388.768 610.272C389.668 611.172 390.935 611.622 392.568 611.622C394.035 611.622 395.185 611.189 396.018 610.322C396.885 609.422 397.318 608.206 397.318 606.672C397.318 605.106 396.901 603.872 396.068 602.972C395.235 602.072 394.035 601.622 392.468 601.622ZM416.204 599.072C413.071 597.406 411.504 594.789 411.504 591.222C411.504 589.422 411.971 587.789 412.904 586.322C413.837 584.822 415.254 583.639 417.154 582.772C419.054 581.872 421.387 581.422 424.154 581.422C426.921 581.422 429.237 581.872 431.104 582.772C433.004 583.639 434.421 584.822 435.354 586.322C436.287 587.789 436.754 589.422 436.754 591.222C436.754 593.022 436.321 594.589 435.454 595.922C434.621 597.256 433.487 598.306 432.054 599.072C433.854 599.939 435.237 601.139 436.204 602.672C437.171 604.172 437.654 605.939 437.654 607.972C437.654 610.339 437.054 612.389 435.854 614.122C434.654 615.822 433.021 617.122 430.954 618.022C428.921 618.922 426.654 619.372 424.154 619.372C421.654 619.372 419.371 618.922 417.304 618.022C415.271 617.122 413.654 615.822 412.454 614.122C411.254 612.389 410.654 610.339 410.654 607.972C410.654 605.906 411.137 604.122 412.104 602.622C413.071 601.089 414.437 599.906 416.204 599.072ZM428.454 592.522C428.454 591.156 428.054 590.106 427.254 589.372C426.487 588.606 425.454 588.222 424.154 588.222C422.854 588.222 421.804 588.606 421.004 589.372C420.237 590.139 419.854 591.206 419.854 592.572C419.854 593.872 420.254 594.906 421.054 595.672C421.854 596.406 422.887 596.772 424.154 596.772C425.421 596.772 426.454 596.389 427.254 595.622C428.054 594.856 428.454 593.822 428.454 592.522ZM424.154 602.772C422.587 602.772 421.321 603.206 420.354 604.072C419.387 604.906 418.904 606.072 418.904 607.572C418.904 608.972 419.371 610.122 420.304 611.022C421.271 611.922 422.554 612.372 424.154 612.372C425.754 612.372 427.004 611.922 427.904 611.022C428.837 610.122 429.304 608.972 429.304 607.572C429.304 606.106 428.821 604.939 427.854 604.072C426.921 603.206 425.687 602.772 424.154 602.772ZM441.926 591.372C441.926 588.672 442.693 586.589 444.226 585.122C445.793 583.656 447.809 582.922 450.276 582.922C452.743 582.922 454.743 583.656 456.276 585.122C457.809 586.589 458.576 588.672 458.576 591.372C458.576 594.072 457.809 596.156 456.276 597.622C454.743 599.089 452.743 599.822 450.276 599.822C447.809 599.822 445.793 599.089 444.226 597.622C442.693 596.156 441.926 594.072 441.926 591.372ZM475.876 583.472L456.626 618.672H448.376L467.626 583.472H475.876ZM450.226 587.922C448.626 587.922 447.826 589.072 447.826 591.372C447.826 593.639 448.626 594.772 450.226 594.772C450.993 594.772 451.593 594.489 452.026 593.922C452.459 593.356 452.676 592.506 452.676 591.372C452.676 589.072 451.859 587.922 450.226 587.922ZM465.726 610.772C465.726 608.072 466.493 605.989 468.026 604.522C469.559 603.056 471.559 602.322 474.026 602.322C476.493 602.322 478.493 603.056 480.026 604.522C481.559 605.989 482.326 608.072 482.326 610.772C482.326 613.472 481.559 615.556 480.026 617.022C478.493 618.489 476.493 619.222 474.026 619.222C471.559 619.222 469.559 618.489 468.026 617.022C466.493 615.556 465.726 613.472 465.726 610.772ZM473.976 607.322C473.209 607.322 472.609 607.606 472.176 608.172C471.776 608.739 471.576 609.606 471.576 610.772C471.576 613.039 472.376 614.172 473.976 614.172C474.743 614.172 475.343 613.889 475.776 613.322C476.209 612.756 476.426 611.906 476.426 610.772C476.426 609.639 476.209 608.789 475.776 608.222C475.343 607.622 474.743 607.322 473.976 607.322Z" fill="#376BED"/>
<rect x="78" y="827" width="693" height="190" rx="30" fill="white"/>
<path d="M138.429 883.193H128.907V887.014H137.647V890.139H128.907V894.765H138.868V898H125.233V880.007H138.429V883.193ZM144.227 893.752C144.3 894.37 144.459 894.81 144.703 895.07C145.134 895.534 145.932 895.766 147.096 895.766C147.779 895.766 148.32 895.664 148.719 895.461C149.126 895.257 149.33 894.952 149.33 894.545C149.33 894.155 149.167 893.858 148.841 893.654C148.516 893.451 147.307 893.101 145.216 892.604C143.71 892.23 142.648 891.762 142.03 891.201C141.411 890.647 141.102 889.85 141.102 888.808C141.102 887.579 141.582 886.525 142.542 885.646C143.511 884.759 144.87 884.316 146.62 884.316C148.28 884.316 149.631 884.65 150.672 885.317C151.722 885.976 152.324 887.119 152.479 888.747H149C148.951 888.299 148.825 887.945 148.622 887.685C148.239 887.213 147.588 886.977 146.668 886.977C145.912 886.977 145.37 887.095 145.045 887.331C144.728 887.567 144.569 887.844 144.569 888.161C144.569 888.56 144.74 888.849 145.082 889.028C145.423 889.215 146.632 889.536 148.707 889.992C150.09 890.318 151.128 890.81 151.82 891.469C152.503 892.137 152.845 892.971 152.845 893.972C152.845 895.29 152.353 896.368 151.368 897.207C150.392 898.037 148.878 898.452 146.827 898.452C144.736 898.452 143.189 898.012 142.188 897.133C141.196 896.246 140.699 895.119 140.699 893.752H144.227ZM154.066 887.294V884.816H155.921V881.105H159.364V884.816H161.524V887.294H159.364V894.326C159.364 894.871 159.433 895.213 159.571 895.351C159.71 895.481 160.133 895.546 160.841 895.546C160.947 895.546 161.056 895.546 161.17 895.546C161.292 895.538 161.41 895.53 161.524 895.522V898.122L159.876 898.183C158.233 898.24 157.11 897.955 156.507 897.329C156.117 896.93 155.921 896.315 155.921 895.485V887.294H154.066ZM170.936 880.007H174.879L182.044 892.568V880.007H185.548V898H181.788L174.439 885.219V898H170.936V880.007ZM192.25 884.694V892.714C192.25 893.471 192.339 894.041 192.518 894.423C192.835 895.099 193.458 895.437 194.386 895.437C195.574 895.437 196.388 894.956 196.827 893.996C197.055 893.475 197.169 892.788 197.169 891.933V884.694H200.697V898H197.315V896.12C197.283 896.161 197.201 896.283 197.071 896.486C196.941 896.69 196.786 896.869 196.607 897.023C196.062 897.512 195.533 897.845 195.021 898.024C194.516 898.203 193.922 898.293 193.238 898.293C191.269 898.293 189.942 897.585 189.259 896.169C188.876 895.388 188.685 894.236 188.685 892.714V884.694H192.25ZM218.934 884.401C219.52 884.401 220.098 884.515 220.667 884.743C221.237 884.971 221.754 885.37 222.218 885.939C222.592 886.403 222.844 886.973 222.975 887.648C223.056 888.096 223.097 888.751 223.097 889.614L223.072 898H219.508V889.528C219.508 889.024 219.426 888.609 219.264 888.283C218.954 887.665 218.385 887.355 217.555 887.355C216.594 887.355 215.931 887.754 215.565 888.552C215.378 888.975 215.284 889.484 215.284 890.078V898H211.781V890.078C211.781 889.288 211.699 888.715 211.537 888.356C211.244 887.714 210.67 887.392 209.815 887.392C208.823 887.392 208.155 887.714 207.813 888.356C207.626 888.723 207.533 889.268 207.533 889.992V898H204.005V884.719H207.386V886.66C207.818 885.968 208.224 885.476 208.607 885.183C209.282 884.662 210.157 884.401 211.231 884.401C212.249 884.401 213.071 884.625 213.697 885.073C214.202 885.488 214.584 886.021 214.845 886.672C215.3 885.891 215.866 885.317 216.542 884.951C217.258 884.584 218.055 884.401 218.934 884.401ZM239.234 895.546C240.252 895.546 241.033 895.184 241.578 894.46C242.123 893.736 242.396 892.706 242.396 891.372C242.396 890.037 242.123 889.012 241.578 888.295C241.033 887.571 240.252 887.209 239.234 887.209C238.217 887.209 237.432 887.571 236.878 888.295C236.333 889.012 236.061 890.037 236.061 891.372C236.061 892.706 236.333 893.736 236.878 894.46C237.432 895.184 238.217 895.546 239.234 895.546ZM246.046 891.372C246.046 893.325 245.484 894.997 244.361 896.389C243.238 897.772 241.533 898.464 239.247 898.464C236.96 898.464 235.255 897.772 234.132 896.389C233.009 894.997 232.447 893.325 232.447 891.372C232.447 889.451 233.009 887.787 234.132 886.379C235.255 884.971 236.96 884.267 239.247 884.267C241.533 884.267 243.238 884.971 244.361 886.379C245.484 887.787 246.046 889.451 246.046 891.372ZM253.456 879.824C253.675 879.824 253.875 879.832 254.054 879.848C254.233 879.856 254.477 879.873 254.786 879.897V882.729C254.591 882.705 254.261 882.688 253.797 882.68C253.342 882.664 253.024 882.766 252.845 882.985C252.674 883.197 252.589 883.433 252.589 883.693C252.589 883.954 252.589 884.328 252.589 884.816H254.872V887.27H252.589V898H249.122V887.27H247.181V884.816H249.085V883.962C249.085 882.538 249.326 881.557 249.806 881.02C250.31 880.222 251.527 879.824 253.456 879.824ZM277.186 880.007V883.193H271.803V898H268.019V883.193H262.611V880.007H277.186ZM284.974 884.377C285.039 884.377 285.092 884.381 285.133 884.389C285.182 884.389 285.283 884.393 285.438 884.401V887.966C285.218 887.941 285.023 887.925 284.852 887.917C284.681 887.909 284.543 887.905 284.437 887.905C283.037 887.905 282.097 888.361 281.617 889.272C281.349 889.785 281.214 890.574 281.214 891.64V898H277.711V884.694H281.031V887.014C281.568 886.127 282.036 885.52 282.435 885.195C283.086 884.65 283.932 884.377 284.974 884.377ZM286.183 898L290.724 891.262L286.378 884.719H290.638L292.86 888.576L295.033 884.719H299.171L294.801 891.201L299.342 898H295.008L292.713 894.008L290.406 898H286.183Z" fill="#93979D"/>
<path d="M518.619 882.193H509.098V886.014H517.838V889.139H509.098V893.765H519.059V897H505.423V879.007H518.619V882.193ZM524.417 892.752C524.491 893.37 524.649 893.81 524.894 894.07C525.325 894.534 526.122 894.766 527.286 894.766C527.97 894.766 528.511 894.664 528.91 894.461C529.317 894.257 529.52 893.952 529.52 893.545C529.52 893.155 529.357 892.858 529.032 892.654C528.706 892.451 527.498 892.101 525.406 891.604C523.901 891.23 522.839 890.762 522.22 890.201C521.602 889.647 521.292 888.85 521.292 887.808C521.292 886.579 521.773 885.525 522.733 884.646C523.701 883.759 525.06 883.316 526.81 883.316C528.47 883.316 529.821 883.65 530.863 884.317C531.913 884.976 532.515 886.119 532.669 887.747H529.19C529.142 887.299 529.015 886.945 528.812 886.685C528.43 886.213 527.778 885.977 526.859 885.977C526.102 885.977 525.561 886.095 525.235 886.331C524.918 886.567 524.759 886.844 524.759 887.161C524.759 887.56 524.93 887.849 525.272 888.028C525.614 888.215 526.822 888.536 528.897 888.992C530.281 889.318 531.319 889.81 532.01 890.469C532.694 891.137 533.036 891.971 533.036 892.972C533.036 894.29 532.543 895.368 531.559 896.207C530.582 897.037 529.068 897.452 527.018 897.452C524.926 897.452 523.38 897.012 522.379 896.133C521.386 895.246 520.89 894.119 520.89 892.752H524.417ZM534.256 886.294V883.816H536.112V880.105H539.554V883.816H541.715V886.294H539.554V893.326C539.554 893.871 539.623 894.213 539.762 894.351C539.9 894.481 540.323 894.546 541.031 894.546C541.137 894.546 541.247 894.546 541.361 894.546C541.483 894.538 541.601 894.53 541.715 894.522V897.122L540.067 897.183C538.423 897.24 537.3 896.955 536.698 896.329C536.307 895.93 536.112 895.315 536.112 894.485V886.294H534.256ZM561.319 884.732C561.319 883.796 561.071 883.129 560.575 882.73C560.086 882.331 559.399 882.132 558.512 882.132H555.008V887.43H558.512C559.399 887.43 560.086 887.214 560.575 886.783C561.071 886.351 561.319 885.668 561.319 884.732ZM565.042 884.708C565.042 886.832 564.505 888.333 563.431 889.212C562.357 890.091 560.823 890.53 558.829 890.53H555.008V897H551.273V879.007H559.11C560.917 879.007 562.357 879.471 563.431 880.398C564.505 881.326 565.042 882.763 565.042 884.708ZM574.808 883.377C574.873 883.377 574.926 883.381 574.967 883.389C575.016 883.389 575.117 883.393 575.272 883.401V886.966C575.052 886.941 574.857 886.925 574.686 886.917C574.515 886.909 574.377 886.905 574.271 886.905C572.871 886.905 571.931 887.361 571.451 888.272C571.183 888.785 571.048 889.574 571.048 890.64V897H567.545V883.694H570.865V886.014C571.402 885.127 571.87 884.52 572.269 884.195C572.92 883.65 573.766 883.377 574.808 883.377ZM583.292 894.546C584.309 894.546 585.09 894.184 585.636 893.46C586.181 892.736 586.454 891.706 586.454 890.372C586.454 889.037 586.181 888.012 585.636 887.295C585.09 886.571 584.309 886.209 583.292 886.209C582.275 886.209 581.489 886.571 580.936 887.295C580.391 888.012 580.118 889.037 580.118 890.372C580.118 891.706 580.391 892.736 580.936 893.46C581.489 894.184 582.275 894.546 583.292 894.546ZM590.104 890.372C590.104 892.325 589.542 893.997 588.419 895.389C587.296 896.772 585.591 897.464 583.304 897.464C581.017 897.464 579.312 896.772 578.189 895.389C577.066 893.997 576.505 892.325 576.505 890.372C576.505 888.451 577.066 886.787 578.189 885.379C579.312 883.971 581.017 883.267 583.304 883.267C585.591 883.267 587.296 883.971 588.419 885.379C589.542 886.787 590.104 888.451 590.104 890.372ZM601.078 878.897H604.483V882.071H601.078V878.897ZM601.078 883.755H604.544V897H601.078V883.755ZM597.599 878.824C597.81 878.824 598.026 878.832 598.246 878.848C598.465 878.864 598.693 878.881 598.929 878.897V881.729C598.766 881.721 598.608 881.717 598.453 881.717C598.299 881.709 598.111 881.705 597.892 881.705C597.346 881.705 597.013 881.855 596.891 882.156C596.769 882.457 596.716 882.929 596.732 883.572V883.816H599.015V886.27H596.732V897H593.265V886.27H591.324V883.816H593.229V882.962C593.229 881.546 593.542 880.492 594.168 879.8C594.73 879.149 595.873 878.824 597.599 878.824ZM606.522 886.294V883.816H608.377V880.105H611.82V883.816H613.98V886.294H611.82V893.326C611.82 893.871 611.889 894.213 612.027 894.351C612.166 894.481 612.589 894.546 613.297 894.546C613.403 894.546 613.513 894.546 613.626 894.546C613.749 894.538 613.867 894.53 613.98 894.522V897.122L612.333 897.183C610.689 897.24 609.566 896.955 608.963 896.329C608.573 895.93 608.377 895.315 608.377 894.485V886.294H606.522Z" fill="#93979D"/>
<path d="M130.462 945.91V942.595C132 942.526 133.077 942.424 133.692 942.287C134.672 942.071 135.469 941.638 136.084 940.988C136.506 940.544 136.825 939.951 137.042 939.211C137.167 938.767 137.229 938.436 137.229 938.22H141.28V963H136.29V945.91H130.462ZM148.611 963C148.657 961.223 149.039 959.599 149.756 958.129C150.451 956.477 152.092 954.729 154.678 952.883C156.923 951.276 158.375 950.126 159.036 949.431C160.05 948.348 160.557 947.163 160.557 945.876C160.557 944.828 160.267 943.956 159.686 943.261C159.104 942.566 158.273 942.219 157.19 942.219C155.709 942.219 154.701 942.771 154.166 943.876C153.858 944.514 153.676 945.528 153.619 946.918H148.885C148.965 944.811 149.346 943.107 150.03 941.809C151.329 939.336 153.636 938.1 156.951 938.1C159.572 938.1 161.657 938.829 163.206 940.288C164.756 941.735 165.53 943.654 165.53 946.047C165.53 947.881 164.983 949.51 163.89 950.935C163.172 951.88 161.993 952.934 160.352 954.096L158.404 955.48C157.185 956.346 156.347 956.973 155.892 957.36C155.447 957.748 155.071 958.198 154.764 958.71H165.582V963H148.611ZM172.776 956.369C172.97 957.429 173.34 958.249 173.887 958.83C174.434 959.4 175.232 959.685 176.28 959.685C177.487 959.685 178.405 959.263 179.031 958.42C179.669 957.565 179.988 956.494 179.988 955.207C179.988 953.942 179.692 952.877 179.1 952.011C178.507 951.134 177.584 950.695 176.331 950.695C175.739 950.695 175.226 950.769 174.793 950.917C174.03 951.191 173.454 951.698 173.067 952.438L168.692 952.233L170.435 938.544H184.09V942.68H173.956L173.067 948.098C173.819 947.608 174.406 947.283 174.827 947.124C175.534 946.861 176.394 946.73 177.408 946.73C179.458 946.73 181.247 947.42 182.774 948.798C184.301 950.177 185.064 952.182 185.064 954.814C185.064 957.104 184.329 959.149 182.859 960.949C181.39 962.749 179.191 963.649 176.263 963.649C173.904 963.649 171.967 963.017 170.452 961.752C168.937 960.488 168.094 958.693 167.923 956.369H172.776ZM192.549 950.849C192.549 953.697 192.783 955.879 193.25 957.395C193.717 958.898 194.674 959.65 196.121 959.65C197.568 959.65 198.514 958.898 198.958 957.395C199.414 955.879 199.642 953.697 199.642 950.849C199.642 947.864 199.414 945.654 198.958 944.218C198.514 942.783 197.568 942.065 196.121 942.065C194.674 942.065 193.717 942.783 193.25 944.218C192.783 945.654 192.549 947.864 192.549 950.849ZM196.121 938.049C199.277 938.049 201.487 939.16 202.752 941.381C204.028 943.603 204.666 946.759 204.666 950.849C204.666 954.939 204.028 958.09 202.752 960.3C201.487 962.51 199.277 963.615 196.121 963.615C192.965 963.615 190.749 962.51 189.473 960.3C188.208 958.09 187.576 954.939 187.576 950.849C187.576 946.759 188.208 943.603 189.473 941.381C190.749 939.16 192.965 938.049 196.121 938.049Z" fill="#343433"/>
<path d="M518.692 955.804C519.592 955.69 520.247 955.485 520.657 955.189C521.375 954.665 521.734 953.759 521.734 952.472C521.734 951.492 521.398 950.717 520.726 950.147C520.327 949.817 519.649 949.475 518.692 949.122V955.804ZM517.068 937.945C516.077 937.968 515.342 938.236 514.864 938.749C514.385 939.25 514.146 939.939 514.146 940.816C514.146 941.773 514.505 942.531 515.223 943.089C515.621 943.397 516.237 943.682 517.068 943.944V937.945ZM518.726 963.05H517.068V959.649C514.824 959.399 513.149 958.909 512.044 958.18C510.096 956.869 509.139 954.636 509.173 951.48H513.787C513.947 952.916 514.169 953.879 514.454 954.369C514.898 955.132 515.77 955.628 517.068 955.855V948.558L515.684 948.148C513.508 947.51 511.97 946.621 511.07 945.482C510.181 944.343 509.737 942.97 509.737 941.363C509.737 940.304 509.908 939.341 510.25 938.475C510.603 937.609 511.093 936.863 511.719 936.236C512.528 935.427 513.428 934.869 514.419 934.562C515.023 934.368 515.906 934.225 517.068 934.134V931.861H518.692V934.168C520.549 934.317 522.007 934.772 523.067 935.536C524.992 936.755 525.989 938.731 526.058 941.466H521.563C521.472 940.452 521.301 939.711 521.05 939.244C520.617 938.435 519.831 937.991 518.692 937.911V944.422C521.403 945.357 523.226 946.183 524.161 946.9C525.699 948.097 526.468 949.783 526.468 951.959C526.468 954.83 525.414 956.915 523.306 958.214C522.019 959.011 520.492 959.479 518.726 959.615V963.05ZM533.355 951.395C533.355 952.386 533.514 953.207 533.833 953.856C534.426 955.052 535.503 955.65 537.063 955.65C538.021 955.65 538.852 955.326 539.559 954.676C540.276 954.015 540.635 953.07 540.635 951.839C540.635 950.21 539.974 949.122 538.653 948.575C537.901 948.268 536.716 948.114 535.098 948.114V944.627C536.682 944.605 537.787 944.451 538.414 944.166C539.496 943.688 540.037 942.719 540.037 941.261C540.037 940.315 539.758 939.546 539.2 938.954C538.653 938.361 537.878 938.065 536.875 938.065C535.725 938.065 534.876 938.43 534.329 939.159C533.794 939.888 533.537 940.862 533.56 942.081H529.014C529.06 940.851 529.271 939.683 529.646 938.578C530.045 937.609 530.672 936.715 531.526 935.895C532.164 935.313 532.922 934.869 533.799 934.562C534.677 934.254 535.753 934.1 537.029 934.1C539.399 934.1 541.307 934.715 542.754 935.946C544.213 937.165 544.942 938.806 544.942 940.868C544.942 942.326 544.509 943.556 543.643 944.559C543.096 945.186 542.527 945.613 541.934 945.841C542.378 945.841 543.016 946.222 543.848 946.986C545.09 948.137 545.711 949.709 545.711 951.703C545.711 953.799 544.982 955.645 543.523 957.24C542.076 958.823 539.929 959.615 537.081 959.615C533.571 959.615 531.133 958.47 529.766 956.18C529.048 954.961 528.65 953.366 528.57 951.395H533.355ZM549.146 963.05C550.126 962.777 550.844 962.321 551.299 961.683C551.766 961.045 552.034 960.151 552.103 959H549.146V953.907H554.41V958.316C554.41 959.091 554.307 959.9 554.102 960.743C553.897 961.586 553.515 962.315 552.957 962.931C552.353 963.591 551.641 964.087 550.821 964.417C550.012 964.759 549.454 964.93 549.146 964.93V963.05ZM575.328 938.355C574.598 939.073 573.584 940.355 572.286 942.201C570.987 944.035 569.899 945.932 569.021 947.892C568.326 949.43 567.7 951.31 567.142 953.531C566.583 955.753 566.304 957.576 566.304 959H561.246C561.394 954.557 562.852 949.937 565.621 945.14C567.409 942.167 568.908 940.093 570.115 938.919H557.759L557.828 934.544H575.328V938.355ZM582.129 952.369C582.323 953.429 582.693 954.249 583.24 954.83C583.787 955.4 584.585 955.685 585.633 955.685C586.84 955.685 587.758 955.263 588.384 954.42C589.022 953.565 589.341 952.494 589.341 951.207C589.341 949.942 589.045 948.877 588.453 948.011C587.86 947.134 586.937 946.695 585.684 946.695C585.092 946.695 584.579 946.769 584.146 946.917C583.383 947.191 582.807 947.698 582.42 948.438L578.045 948.233L579.788 934.544H593.443V938.68H583.309L582.42 944.098C583.172 943.608 583.759 943.283 584.18 943.124C584.887 942.861 585.747 942.73 586.761 942.73C588.812 942.73 590.6 943.42 592.127 944.798C593.654 946.177 594.417 948.182 594.417 950.814C594.417 953.104 593.682 955.149 592.212 956.949C590.743 958.749 588.544 959.649 585.616 959.649C583.257 959.649 581.32 959.017 579.805 957.752C578.29 956.488 577.447 954.693 577.276 952.369H582.129Z" fill="#343433"/>
<rect x="225" y="938" width="10" height="26" fill="#FC8FBB"/>
<rect x="238" y="945" width="10" height="19" fill="#FC8FBB"/>
<rect x="251" y="952" width="10" height="12" fill="#FC8FBB"/>
<rect x="264" y="945" width="10" height="19" fill="#FC8FBB"/>
<rect x="290" y="945" width="10" height="19" fill="#FC8FBB"/>
<rect x="277" y="930" width="10" height="34" fill="#FC8FBB"/>
<circle cx="423.5" cy="877.5" r="2.5" fill="#EBEBEB"/>
<circle cx="423.5" cy="903.5" r="2.5" fill="#EBEBEB"/>
<circle cx="423.5" cy="929.5" r="2.5" fill="#EBEBEB"/>
<circle cx="423.5" cy="955.5" r="2.5" fill="#EBEBEB"/>
<circle cx="423.5" cy="890.5" r="2.5" fill="#EBEBEB"/>
<circle cx="423.5" cy="916.5" r="2.5" fill="#EBEBEB"/>
<circle cx="423.5" cy="942.5" r="2.5" fill="#EBEBEB"/>
<circle cx="423.5" cy="968.5" r="2.5" fill="#EBEBEB"/>
<circle cx="423.5" cy="981.5" r="2.5" fill="#EBEBEB"/>
</svg>
