<svg width="891" height="1030" viewBox="0 0 891 1030" fill="none" xmlns="http://www.w3.org/2000/svg">
<rect width="891" height="1030" rx="70" fill="#E4EEFF"/>
<path d="M88.0425 181.88V224H77.7825V181.88H88.0425ZM111.258 181.88C115.698 181.88 119.578 182.76 122.898 184.52C126.218 186.28 128.778 188.76 130.578 191.96C132.418 195.12 133.338 198.78 133.338 202.94C133.338 207.06 132.418 210.72 130.578 213.92C128.778 217.12 126.198 219.6 122.838 221.36C119.518 223.12 115.658 224 111.258 224H95.4778V181.88H111.258ZM110.598 215.12C114.478 215.12 117.498 214.06 119.658 211.94C121.818 209.82 122.898 206.82 122.898 202.94C122.898 199.06 121.818 196.04 119.658 193.88C117.498 191.72 114.478 190.64 110.598 190.64H105.738V215.12H110.598ZM160.552 224L151.792 208.1H149.332V224H139.072V181.88H156.292C159.612 181.88 162.432 182.46 164.752 183.62C167.112 184.78 168.872 186.38 170.032 188.42C171.192 190.42 171.772 192.66 171.772 195.14C171.772 197.94 170.972 200.44 169.372 202.64C167.812 204.84 165.492 206.4 162.412 207.32L172.132 224H160.552ZM149.332 200.84H155.692C157.572 200.84 158.972 200.38 159.892 199.46C160.852 198.54 161.332 197.24 161.332 195.56C161.332 193.96 160.852 192.7 159.892 191.78C158.972 190.86 157.572 190.4 155.692 190.4H149.332V200.84ZM220.747 189.14H202.027V197.42C202.827 196.54 203.947 195.82 205.387 195.26C206.827 194.7 208.387 194.42 210.067 194.42C213.067 194.42 215.547 195.1 217.507 196.46C219.507 197.82 220.967 199.58 221.887 201.74C222.807 203.9 223.267 206.24 223.267 208.76C223.267 213.44 221.947 217.16 219.307 219.92C216.667 222.64 212.947 224 208.147 224C204.947 224 202.167 223.46 199.807 222.38C197.447 221.26 195.627 219.72 194.347 217.76C193.067 215.8 192.367 213.54 192.247 210.98H202.267C202.507 212.22 203.087 213.26 204.007 214.1C204.927 214.9 206.187 215.3 207.787 215.3C209.667 215.3 211.067 214.7 211.987 213.5C212.907 212.3 213.367 210.7 213.367 208.7C213.367 206.74 212.887 205.24 211.927 204.2C210.967 203.16 209.567 202.64 207.727 202.64C206.367 202.64 205.247 202.98 204.367 203.66C203.487 204.3 202.907 205.16 202.627 206.24H192.727V180.14H220.747V189.14ZM229.29 192.56C229.45 188.28 230.85 184.98 233.49 182.66C236.13 180.34 239.71 179.18 244.23 179.18C247.23 179.18 249.79 179.7 251.91 180.74C254.07 181.78 255.69 183.2 256.77 185C257.89 186.8 258.45 188.82 258.45 191.06C258.45 193.7 257.79 195.86 256.47 197.54C255.15 199.18 253.61 200.3 251.85 200.9V201.14C254.13 201.9 255.93 203.16 257.25 204.92C258.57 206.68 259.23 208.94 259.23 211.7C259.23 214.18 258.65 216.38 257.49 218.3C256.37 220.18 254.71 221.66 252.51 222.74C250.35 223.82 247.77 224.36 244.77 224.36C239.97 224.36 236.13 223.18 233.25 220.82C230.41 218.46 228.91 214.9 228.75 210.14H238.71C238.75 211.9 239.25 213.3 240.21 214.34C241.17 215.34 242.57 215.84 244.41 215.84C245.97 215.84 247.17 215.4 248.01 214.52C248.89 213.6 249.33 212.4 249.33 210.92C249.33 209 248.71 207.62 247.47 206.78C246.27 205.9 244.33 205.46 241.65 205.46H239.73V197.12H241.65C243.69 197.12 245.33 196.78 246.57 196.1C247.85 195.38 248.49 194.12 248.49 192.32C248.49 190.88 248.09 189.76 247.29 188.96C246.49 188.16 245.39 187.76 243.99 187.76C242.47 187.76 241.33 188.22 240.57 189.14C239.85 190.06 239.43 191.2 239.31 192.56H229.29ZM296.099 189.14H277.379V197.42C278.179 196.54 279.299 195.82 280.739 195.26C282.179 194.7 283.739 194.42 285.419 194.42C288.419 194.42 290.899 195.1 292.859 196.46C294.859 197.82 296.319 199.58 297.239 201.74C298.159 203.9 298.619 206.24 298.619 208.76C298.619 213.44 297.299 217.16 294.659 219.92C292.019 222.64 288.299 224 283.499 224C280.299 224 277.519 223.46 275.159 222.38C272.799 221.26 270.979 219.72 269.699 217.76C268.419 215.8 267.719 213.54 267.599 210.98H277.619C277.859 212.22 278.439 213.26 279.359 214.1C280.279 214.9 281.539 215.3 283.139 215.3C285.019 215.3 286.419 214.7 287.339 213.5C288.259 212.3 288.719 210.7 288.719 208.7C288.719 206.74 288.239 205.24 287.279 204.2C286.319 203.16 284.919 202.64 283.079 202.64C281.719 202.64 280.599 202.98 279.719 203.66C278.839 204.3 278.259 205.16 277.979 206.24H268.079V180.14H296.099V189.14ZM310.102 224.48C308.302 224.48 306.822 223.96 305.662 222.92C304.542 221.84 303.982 220.52 303.982 218.96C303.982 217.36 304.542 216.02 305.662 214.94C306.822 213.86 308.302 213.32 310.102 213.32C311.862 213.32 313.302 213.86 314.422 214.94C315.582 216.02 316.162 217.36 316.162 218.96C316.162 220.52 315.582 221.84 314.422 222.92C313.302 223.96 311.862 224.48 310.102 224.48ZM321.216 201.5C321.216 194.62 322.536 189.2 325.176 185.24C327.856 181.28 332.156 179.3 338.076 179.3C343.996 179.3 348.276 181.28 350.916 185.24C353.596 189.2 354.936 194.62 354.936 201.5C354.936 208.46 353.596 213.92 350.916 217.88C348.276 221.84 343.996 223.82 338.076 223.82C332.156 223.82 327.856 221.84 325.176 217.88C322.536 213.92 321.216 208.46 321.216 201.5ZM344.856 201.5C344.856 197.46 344.416 194.36 343.536 192.2C342.656 190 340.836 188.9 338.076 188.9C335.316 188.9 333.496 190 332.616 192.2C331.736 194.36 331.296 197.46 331.296 201.5C331.296 204.22 331.456 206.48 331.776 208.28C332.096 210.04 332.736 211.48 333.696 212.6C334.696 213.68 336.156 214.22 338.076 214.22C339.996 214.22 341.436 213.68 342.396 212.6C343.396 211.48 344.056 210.04 344.376 208.28C344.696 206.48 344.856 204.22 344.856 201.5ZM360.356 201.5C360.356 194.62 361.676 189.2 364.316 185.24C366.996 181.28 371.296 179.3 377.216 179.3C383.136 179.3 387.416 181.28 390.056 185.24C392.736 189.2 394.076 194.62 394.076 201.5C394.076 208.46 392.736 213.92 390.056 217.88C387.416 221.84 383.136 223.82 377.216 223.82C371.296 223.82 366.996 221.84 364.316 217.88C361.676 213.92 360.356 208.46 360.356 201.5ZM383.996 201.5C383.996 197.46 383.556 194.36 382.676 192.2C381.796 190 379.976 188.9 377.216 188.9C374.456 188.9 372.636 190 371.756 192.2C370.876 194.36 370.436 197.46 370.436 201.5C370.436 204.22 370.596 206.48 370.916 208.28C371.236 210.04 371.876 211.48 372.836 212.6C373.836 213.68 375.296 214.22 377.216 214.22C379.136 214.22 380.576 213.68 381.536 212.6C382.536 211.48 383.196 210.04 383.516 208.28C383.836 206.48 383.996 204.22 383.996 201.5ZM399.497 201.5C399.497 194.62 400.817 189.2 403.457 185.24C406.137 181.28 410.437 179.3 416.357 179.3C422.277 179.3 426.557 181.28 429.197 185.24C431.877 189.2 433.217 194.62 433.217 201.5C433.217 208.46 431.877 213.92 429.197 217.88C426.557 221.84 422.277 223.82 416.357 223.82C410.437 223.82 406.137 221.84 403.457 217.88C400.817 213.92 399.497 208.46 399.497 201.5ZM423.137 201.5C423.137 197.46 422.697 194.36 421.817 192.2C420.937 190 419.117 188.9 416.357 188.9C413.597 188.9 411.777 190 410.897 192.2C410.017 194.36 409.577 197.46 409.577 201.5C409.577 204.22 409.737 206.48 410.057 208.28C410.377 210.04 411.017 211.48 411.977 212.6C412.977 213.68 414.437 214.22 416.357 214.22C418.277 214.22 419.717 213.68 420.677 212.6C421.677 211.48 422.337 210.04 422.657 208.28C422.977 206.48 423.137 204.22 423.137 201.5Z" fill="black"/>
<path d="M89.1462 126.74H80.4162L78.9162 131H75.3462L82.8162 110.12H86.7762L94.2462 131H90.6462L89.1462 126.74ZM88.1862 123.95L84.7962 114.26L81.3762 123.95H88.1862ZM117.504 114.2C118.804 114.2 119.964 114.47 120.984 115.01C122.024 115.55 122.834 116.35 123.414 117.41C124.014 118.47 124.314 119.75 124.314 121.25V131H120.924V121.76C120.924 120.28 120.554 119.15 119.814 118.37C119.074 117.57 118.064 117.17 116.784 117.17C115.504 117.17 114.484 117.57 113.724 118.37C112.984 119.15 112.614 120.28 112.614 121.76V131H109.224V121.76C109.224 120.28 108.854 119.15 108.114 118.37C107.374 117.57 106.364 117.17 105.084 117.17C103.804 117.17 102.784 117.57 102.024 118.37C101.284 119.15 100.914 120.28 100.914 121.76V131H97.4941V114.47H100.914V116.36C101.474 115.68 102.184 115.15 103.044 114.77C103.904 114.39 104.824 114.2 105.804 114.2C107.124 114.2 108.304 114.48 109.344 115.04C110.384 115.6 111.184 116.41 111.744 117.47C112.244 116.47 113.024 115.68 114.084 115.1C115.144 114.5 116.284 114.2 117.504 114.2ZM135.836 131.27C134.276 131.27 132.866 130.92 131.606 130.22C130.346 129.5 129.356 128.5 128.636 127.22C127.916 125.92 127.556 124.42 127.556 122.72C127.556 121.04 127.926 119.55 128.666 118.25C129.406 116.95 130.416 115.95 131.696 115.25C132.976 114.55 134.406 114.2 135.986 114.2C137.566 114.2 138.996 114.55 140.276 115.25C141.556 115.95 142.566 116.95 143.306 118.25C144.046 119.55 144.416 121.04 144.416 122.72C144.416 124.4 144.036 125.89 143.276 127.19C142.516 128.49 141.476 129.5 140.156 130.22C138.856 130.92 137.416 131.27 135.836 131.27ZM135.836 128.3C136.716 128.3 137.536 128.09 138.296 127.67C139.076 127.25 139.706 126.62 140.186 125.78C140.666 124.94 140.906 123.92 140.906 122.72C140.906 121.52 140.676 120.51 140.216 119.69C139.756 118.85 139.146 118.22 138.386 117.8C137.626 117.38 136.806 117.17 135.926 117.17C135.046 117.17 134.226 117.38 133.466 117.8C132.726 118.22 132.136 118.85 131.696 119.69C131.256 120.51 131.036 121.52 131.036 122.72C131.036 124.5 131.486 125.88 132.386 126.86C133.306 127.82 134.456 128.3 135.836 128.3ZM162.767 114.47V131H159.347V129.05C158.807 129.73 158.097 130.27 157.217 130.67C156.357 131.05 155.437 131.24 154.457 131.24C153.157 131.24 151.987 130.97 150.947 130.43C149.927 129.89 149.117 129.09 148.517 128.03C147.937 126.97 147.647 125.69 147.647 124.19V114.47H151.037V123.68C151.037 125.16 151.407 126.3 152.147 127.1C152.887 127.88 153.897 128.27 155.177 128.27C156.457 128.27 157.467 127.88 158.207 127.1C158.967 126.3 159.347 125.16 159.347 123.68V114.47H162.767ZM175.619 114.2C176.919 114.2 178.079 114.47 179.099 115.01C180.139 115.55 180.949 116.35 181.529 117.41C182.109 118.47 182.399 119.75 182.399 121.25V131H179.009V121.76C179.009 120.28 178.639 119.15 177.899 118.37C177.159 117.57 176.149 117.17 174.869 117.17C173.589 117.17 172.569 117.57 171.809 118.37C171.069 119.15 170.699 120.28 170.699 121.76V131H167.279V114.47H170.699V116.36C171.259 115.68 171.969 115.15 172.829 114.77C173.709 114.39 174.639 114.2 175.619 114.2ZM190.752 117.26V126.41C190.752 127.03 190.892 127.48 191.172 127.76C191.472 128.02 191.972 128.15 192.672 128.15H194.772V131H192.072C190.532 131 189.352 130.64 188.532 129.92C187.712 129.2 187.302 128.03 187.302 126.41V117.26H185.352V114.47H187.302V110.36H190.752V114.47H194.772V117.26H190.752Z" fill="#919CAF"/>
<path d="M88.9089 291.74H80.1789L78.6789 296H75.1089L82.5789 275.12H86.5389L94.0089 296H90.4089L88.9089 291.74ZM87.9489 288.95L84.5589 279.26L81.1389 288.95H87.9489ZM103.647 292.94L108.327 279.47H111.957L105.657 296H101.577L95.3068 279.47H98.9668L103.647 292.94ZM113.402 287.66C113.402 286 113.742 284.53 114.422 283.25C115.122 281.97 116.062 280.98 117.242 280.28C118.442 279.56 119.762 279.2 121.202 279.2C122.502 279.2 123.632 279.46 124.592 279.98C125.572 280.48 126.352 281.11 126.932 281.87V279.47H130.382V296H126.932V293.54C126.352 294.32 125.562 294.97 124.562 295.49C123.562 296.01 122.422 296.27 121.142 296.27C119.722 296.27 118.422 295.91 117.242 295.19C116.062 294.45 115.122 293.43 114.422 292.13C113.742 290.81 113.402 289.32 113.402 287.66ZM126.932 287.72C126.932 286.58 126.692 285.59 126.212 284.75C125.752 283.91 125.142 283.27 124.382 282.83C123.622 282.39 122.802 282.17 121.922 282.17C121.042 282.17 120.222 282.39 119.462 282.83C118.702 283.25 118.082 283.88 117.602 284.72C117.142 285.54 116.912 286.52 116.912 287.66C116.912 288.8 117.142 289.8 117.602 290.66C118.082 291.52 118.702 292.18 119.462 292.64C120.242 293.08 121.062 293.3 121.922 293.3C122.802 293.3 123.622 293.08 124.382 292.64C125.142 292.2 125.752 291.56 126.212 290.72C126.692 289.86 126.932 288.86 126.932 287.72ZM136.614 277.28C135.994 277.28 135.474 277.07 135.054 276.65C134.634 276.23 134.424 275.71 134.424 275.09C134.424 274.47 134.634 273.95 135.054 273.53C135.474 273.11 135.994 272.9 136.614 272.9C137.214 272.9 137.724 273.11 138.144 273.53C138.564 273.95 138.774 274.47 138.774 275.09C138.774 275.71 138.564 276.23 138.144 276.65C137.724 277.07 137.214 277.28 136.614 277.28ZM138.294 279.47V296H134.874V279.47H138.294ZM146.204 273.8V296H142.784V273.8H146.204ZM149.554 287.66C149.554 286 149.894 284.53 150.574 283.25C151.274 281.97 152.214 280.98 153.394 280.28C154.594 279.56 155.914 279.2 157.354 279.2C158.654 279.2 159.784 279.46 160.744 279.98C161.724 280.48 162.504 281.11 163.084 281.87V279.47H166.534V296H163.084V293.54C162.504 294.32 161.714 294.97 160.714 295.49C159.714 296.01 158.574 296.27 157.294 296.27C155.874 296.27 154.574 295.91 153.394 295.19C152.214 294.45 151.274 293.43 150.574 292.13C149.894 290.81 149.554 289.32 149.554 287.66ZM163.084 287.72C163.084 286.58 162.844 285.59 162.364 284.75C161.904 283.91 161.294 283.27 160.534 282.83C159.774 282.39 158.954 282.17 158.074 282.17C157.194 282.17 156.374 282.39 155.614 282.83C154.854 283.25 154.234 283.88 153.754 284.72C153.294 285.54 153.064 286.52 153.064 287.66C153.064 288.8 153.294 289.8 153.754 290.66C154.234 291.52 154.854 292.18 155.614 292.64C156.394 293.08 157.214 293.3 158.074 293.3C158.954 293.3 159.774 293.08 160.534 292.64C161.294 292.2 161.904 291.56 162.364 290.72C162.844 289.86 163.084 288.86 163.084 287.72ZM174.446 281.93C175.026 281.13 175.816 280.48 176.816 279.98C177.836 279.46 178.966 279.2 180.206 279.2C181.666 279.2 182.986 279.55 184.166 280.25C185.346 280.95 186.276 281.95 186.956 283.25C187.636 284.53 187.976 286 187.976 287.66C187.976 289.32 187.636 290.81 186.956 292.13C186.276 293.43 185.336 294.45 184.136 295.19C182.956 295.91 181.646 296.27 180.206 296.27C178.926 296.27 177.786 296.02 176.786 295.52C175.806 295.02 175.026 294.38 174.446 293.6V296H171.026V273.8H174.446V281.93ZM184.496 287.66C184.496 286.52 184.256 285.54 183.776 284.72C183.316 283.88 182.696 283.25 181.916 282.83C181.156 282.39 180.336 282.17 179.456 282.17C178.596 282.17 177.776 282.39 176.996 282.83C176.236 283.27 175.616 283.91 175.136 284.75C174.676 285.59 174.446 286.58 174.446 287.72C174.446 288.86 174.676 289.86 175.136 290.72C175.616 291.56 176.236 292.2 176.996 292.64C177.776 293.08 178.596 293.3 179.456 293.3C180.336 293.3 181.156 293.08 181.916 292.64C182.696 292.18 183.316 291.52 183.776 290.66C184.256 289.8 184.496 288.8 184.496 287.66ZM194.778 273.8V296H191.358V273.8H194.778ZM214.419 287.33C214.419 287.95 214.379 288.51 214.299 289.01H201.669C201.769 290.33 202.259 291.39 203.139 292.19C204.019 292.99 205.099 293.39 206.379 293.39C208.219 293.39 209.519 292.62 210.279 291.08H213.969C213.469 292.6 212.559 293.85 211.239 294.83C209.939 295.79 208.319 296.27 206.379 296.27C204.799 296.27 203.379 295.92 202.119 295.22C200.879 294.5 199.899 293.5 199.179 292.22C198.479 290.92 198.129 289.42 198.129 287.72C198.129 286.02 198.469 284.53 199.149 283.25C199.849 281.95 200.819 280.95 202.059 280.25C203.319 279.55 204.759 279.2 206.379 279.2C207.939 279.2 209.329 279.54 210.549 280.22C211.769 280.9 212.719 281.86 213.399 283.1C214.079 284.32 214.419 285.73 214.419 287.33ZM210.849 286.25C210.829 284.99 210.379 283.98 209.499 283.22C208.619 282.46 207.529 282.08 206.229 282.08C205.049 282.08 204.039 282.46 203.199 283.22C202.359 283.96 201.859 284.97 201.699 286.25H210.849ZM228.997 281.93C229.577 281.13 230.367 280.48 231.367 279.98C232.387 279.46 233.517 279.2 234.757 279.2C236.217 279.2 237.537 279.55 238.717 280.25C239.897 280.95 240.827 281.95 241.507 283.25C242.187 284.53 242.527 286 242.527 287.66C242.527 289.32 242.187 290.81 241.507 292.13C240.827 293.43 239.887 294.45 238.687 295.19C237.507 295.91 236.197 296.27 234.757 296.27C233.477 296.27 232.337 296.02 231.337 295.52C230.357 295.02 229.577 294.38 228.997 293.6V296H225.577V273.8H228.997V281.93ZM239.047 287.66C239.047 286.52 238.807 285.54 238.327 284.72C237.867 283.88 237.247 283.25 236.467 282.83C235.707 282.39 234.887 282.17 234.007 282.17C233.147 282.17 232.327 282.39 231.547 282.83C230.787 283.27 230.167 283.91 229.687 284.75C229.227 285.59 228.997 286.58 228.997 287.72C228.997 288.86 229.227 289.86 229.687 290.72C230.167 291.56 230.787 292.2 231.547 292.64C232.327 293.08 233.147 293.3 234.007 293.3C234.887 293.3 235.707 293.08 236.467 292.64C237.247 292.18 237.867 291.52 238.327 290.66C238.807 289.8 239.047 288.8 239.047 287.66ZM244.769 287.66C244.769 286 245.109 284.53 245.789 283.25C246.489 281.97 247.429 280.98 248.609 280.28C249.809 279.56 251.129 279.2 252.569 279.2C253.869 279.2 254.999 279.46 255.959 279.98C256.939 280.48 257.719 281.11 258.299 281.87V279.47H261.749V296H258.299V293.54C257.719 294.32 256.929 294.97 255.929 295.49C254.929 296.01 253.789 296.27 252.509 296.27C251.089 296.27 249.789 295.91 248.609 295.19C247.429 294.45 246.489 293.43 245.789 292.13C245.109 290.81 244.769 289.32 244.769 287.66ZM258.299 287.72C258.299 286.58 258.059 285.59 257.579 284.75C257.119 283.91 256.509 283.27 255.749 282.83C254.989 282.39 254.169 282.17 253.289 282.17C252.409 282.17 251.589 282.39 250.829 282.83C250.069 283.25 249.449 283.88 248.969 284.72C248.509 285.54 248.279 286.52 248.279 287.66C248.279 288.8 248.509 289.8 248.969 290.66C249.449 291.52 250.069 292.18 250.829 292.64C251.609 293.08 252.429 293.3 253.289 293.3C254.169 293.3 254.989 293.08 255.749 292.64C256.509 292.2 257.119 291.56 257.579 290.72C258.059 289.86 258.299 288.86 258.299 287.72ZM269.661 273.8V296H266.241V273.8H269.661ZM273.011 287.66C273.011 286 273.351 284.53 274.031 283.25C274.731 281.97 275.671 280.98 276.851 280.28C278.051 279.56 279.371 279.2 280.811 279.2C282.111 279.2 283.241 279.46 284.201 279.98C285.181 280.48 285.961 281.11 286.541 281.87V279.47H289.991V296H286.541V293.54C285.961 294.32 285.171 294.97 284.171 295.49C283.171 296.01 282.031 296.27 280.751 296.27C279.331 296.27 278.031 295.91 276.851 295.19C275.671 294.45 274.731 293.43 274.031 292.13C273.351 290.81 273.011 289.32 273.011 287.66ZM286.541 287.72C286.541 286.58 286.301 285.59 285.821 284.75C285.361 283.91 284.751 283.27 283.991 282.83C283.231 282.39 282.411 282.17 281.531 282.17C280.651 282.17 279.831 282.39 279.071 282.83C278.311 283.25 277.691 283.88 277.211 284.72C276.751 285.54 276.521 286.52 276.521 287.66C276.521 288.8 276.751 289.8 277.211 290.66C277.691 291.52 278.311 292.18 279.071 292.64C279.851 293.08 280.671 293.3 281.531 293.3C282.411 293.3 283.231 293.08 283.991 292.64C284.751 292.2 285.361 291.56 285.821 290.72C286.301 289.86 286.541 288.86 286.541 287.72ZM302.823 279.2C304.123 279.2 305.283 279.47 306.303 280.01C307.343 280.55 308.153 281.35 308.733 282.41C309.313 283.47 309.603 284.75 309.603 286.25V296H306.213V286.76C306.213 285.28 305.843 284.15 305.103 283.37C304.363 282.57 303.353 282.17 302.073 282.17C300.793 282.17 299.773 282.57 299.013 283.37C298.273 284.15 297.903 285.28 297.903 286.76V296H294.483V279.47H297.903V281.36C298.463 280.68 299.173 280.15 300.033 279.77C300.913 279.39 301.843 279.2 302.823 279.2ZM312.826 287.72C312.826 286.02 313.166 284.53 313.846 283.25C314.546 281.95 315.506 280.95 316.726 280.25C317.946 279.55 319.346 279.2 320.926 279.2C322.926 279.2 324.576 279.68 325.876 280.64C327.196 281.58 328.086 282.93 328.546 284.69H324.856C324.556 283.87 324.076 283.23 323.416 282.77C322.756 282.31 321.926 282.08 320.926 282.08C319.526 282.08 318.406 282.58 317.566 283.58C316.746 284.56 316.336 285.94 316.336 287.72C316.336 289.5 316.746 290.89 317.566 291.89C318.406 292.89 319.526 293.39 320.926 293.39C322.906 293.39 324.216 292.52 324.856 290.78H328.546C328.066 292.46 327.166 293.8 325.846 294.8C324.526 295.78 322.886 296.27 320.926 296.27C319.346 296.27 317.946 295.92 316.726 295.22C315.506 294.5 314.546 293.5 313.846 292.22C313.166 290.92 312.826 289.42 312.826 287.72ZM347.104 287.33C347.104 287.95 347.064 288.51 346.984 289.01H334.354C334.454 290.33 334.944 291.39 335.824 292.19C336.704 292.99 337.784 293.39 339.064 293.39C340.904 293.39 342.204 292.62 342.964 291.08H346.654C346.154 292.6 345.244 293.85 343.924 294.83C342.624 295.79 341.004 296.27 339.064 296.27C337.484 296.27 336.064 295.92 334.804 295.22C333.564 294.5 332.584 293.5 331.864 292.22C331.164 290.92 330.814 289.42 330.814 287.72C330.814 286.02 331.154 284.53 331.834 283.25C332.534 281.95 333.504 280.95 334.744 280.25C336.004 279.55 337.444 279.2 339.064 279.2C340.624 279.2 342.014 279.54 343.234 280.22C344.454 280.9 345.404 281.86 346.084 283.1C346.764 284.32 347.104 285.73 347.104 287.33ZM343.534 286.25C343.514 284.99 343.064 283.98 342.184 283.22C341.304 282.46 340.214 282.08 338.914 282.08C337.734 282.08 336.724 282.46 335.884 283.22C335.044 283.96 334.544 284.97 334.384 286.25H343.534ZM361.683 275.15V296H358.263V275.15H361.683ZM372.983 275.15C375.203 275.15 377.143 275.58 378.803 276.44C380.483 277.28 381.773 278.5 382.673 280.1C383.593 281.68 384.053 283.53 384.053 285.65C384.053 287.77 383.593 289.61 382.673 291.17C381.773 292.73 380.483 293.93 378.803 294.77C377.143 295.59 375.203 296 372.983 296H366.173V275.15H372.983ZM372.983 293.21C375.423 293.21 377.293 292.55 378.593 291.23C379.893 289.91 380.543 288.05 380.543 285.65C380.543 283.23 379.893 281.34 378.593 279.98C377.293 278.62 375.423 277.94 372.983 277.94H369.593V293.21H372.983ZM398.272 296L393.472 287.66H390.862V296H387.442V275.15H394.642C396.242 275.15 397.592 275.43 398.692 275.99C399.812 276.55 400.642 277.3 401.182 278.24C401.742 279.18 402.022 280.23 402.022 281.39C402.022 282.75 401.622 283.99 400.822 285.11C400.042 286.21 398.832 286.96 397.192 287.36L402.352 296H398.272ZM390.862 284.93H394.642C395.922 284.93 396.882 284.61 397.522 283.97C398.182 283.33 398.512 282.47 398.512 281.39C398.512 280.31 398.192 279.47 397.552 278.87C396.912 278.25 395.942 277.94 394.642 277.94H390.862V284.93ZM427.6 276.77L419.26 296H415.81L424.24 277.13H413.14V274.22H427.6V276.77ZM434.218 284.57C432.138 283.53 431.098 281.89 431.098 279.65C431.098 278.57 431.368 277.58 431.908 276.68C432.448 275.78 433.258 275.07 434.338 274.55C435.418 274.01 436.738 273.74 438.298 273.74C439.838 273.74 441.148 274.01 442.228 274.55C443.328 275.07 444.148 275.78 444.688 276.68C445.228 277.58 445.498 278.57 445.498 279.65C445.498 280.77 445.208 281.76 444.628 282.62C444.068 283.46 443.318 284.11 442.378 284.57C443.518 284.99 444.418 285.68 445.078 286.64C445.738 287.58 446.068 288.69 446.068 289.97C446.068 291.27 445.738 292.42 445.078 293.42C444.418 294.42 443.498 295.19 442.318 295.73C441.138 296.27 439.798 296.54 438.298 296.54C436.798 296.54 435.458 296.27 434.278 295.73C433.118 295.19 432.208 294.42 431.548 293.42C430.888 292.42 430.558 291.27 430.558 289.97C430.558 288.67 430.888 287.55 431.548 286.61C432.208 285.67 433.098 284.99 434.218 284.57ZM442.228 280.07C442.228 278.95 441.878 278.09 441.178 277.49C440.478 276.89 439.518 276.59 438.298 276.59C437.098 276.59 436.148 276.89 435.448 277.49C434.748 278.09 434.398 278.96 434.398 280.1C434.398 281.1 434.758 281.92 435.478 282.56C436.218 283.18 437.158 283.49 438.298 283.49C439.438 283.49 440.378 283.17 441.118 282.53C441.858 281.89 442.228 281.07 442.228 280.07ZM438.298 286.07C436.978 286.07 435.898 286.4 435.058 287.06C434.238 287.7 433.828 288.63 433.828 289.85C433.828 290.99 434.228 291.92 435.028 292.64C435.828 293.34 436.918 293.69 438.298 293.69C439.658 293.69 440.728 293.33 441.508 292.61C442.308 291.89 442.708 290.97 442.708 289.85C442.708 288.65 442.298 287.72 441.478 287.06C440.678 286.4 439.618 286.07 438.298 286.07ZM463.758 277.07H453.708V283.04C454.128 282.48 454.748 282.01 455.568 281.63C456.408 281.25 457.298 281.06 458.238 281.06C459.918 281.06 461.278 281.42 462.318 282.14C463.378 282.86 464.128 283.77 464.568 284.87C465.028 285.97 465.258 287.13 465.258 288.35C465.258 289.83 464.968 291.15 464.388 292.31C463.828 293.45 462.978 294.35 461.838 295.01C460.718 295.67 459.338 296 457.698 296C455.518 296 453.768 295.46 452.448 294.38C451.128 293.3 450.338 291.87 450.078 290.09H453.408C453.628 291.03 454.118 291.78 454.878 292.34C455.638 292.88 456.588 293.15 457.728 293.15C459.148 293.15 460.208 292.72 460.908 291.86C461.628 291 461.988 289.86 461.988 288.44C461.988 287 461.628 285.9 460.908 285.14C460.188 284.36 459.128 283.97 457.728 283.97C456.748 283.97 455.918 284.22 455.238 284.72C454.578 285.2 454.098 285.86 453.798 286.7H450.558V274.07H463.758V277.07ZM470.649 296.21C470.029 296.21 469.509 296 469.089 295.58C468.669 295.16 468.459 294.64 468.459 294.02C468.459 293.4 468.669 292.88 469.089 292.46C469.509 292.04 470.029 291.83 470.649 291.83C471.249 291.83 471.759 292.04 472.179 292.46C472.599 292.88 472.809 293.4 472.809 294.02C472.809 294.64 472.599 295.16 472.179 295.58C471.759 296 471.249 296.21 470.649 296.21ZM476.055 284.78C476.055 281.32 476.635 278.62 477.795 276.68C478.975 274.72 480.995 273.74 483.855 273.74C486.715 273.74 488.725 274.72 489.885 276.68C491.065 278.62 491.655 281.32 491.655 284.78C491.655 288.28 491.065 291.02 489.885 293C488.725 294.96 486.715 295.94 483.855 295.94C480.995 295.94 478.975 294.96 477.795 293C476.635 291.02 476.055 288.28 476.055 284.78ZM488.295 284.78C488.295 283.16 488.185 281.79 487.965 280.67C487.765 279.55 487.345 278.64 486.705 277.94C486.065 277.22 485.115 276.86 483.855 276.86C482.595 276.86 481.645 277.22 481.005 277.94C480.365 278.64 479.935 279.55 479.715 280.67C479.515 281.79 479.415 283.16 479.415 284.78C479.415 286.46 479.515 287.87 479.715 289.01C479.915 290.15 480.335 291.07 480.975 291.77C481.635 292.47 482.595 292.82 483.855 292.82C485.115 292.82 486.065 292.47 486.705 291.77C487.365 291.07 487.795 290.15 487.995 289.01C488.195 287.87 488.295 286.46 488.295 284.78ZM495.274 284.78C495.274 281.32 495.854 278.62 497.014 276.68C498.194 274.72 500.214 273.74 503.074 273.74C505.934 273.74 507.944 274.72 509.104 276.68C510.284 278.62 510.874 281.32 510.874 284.78C510.874 288.28 510.284 291.02 509.104 293C507.944 294.96 505.934 295.94 503.074 295.94C500.214 295.94 498.194 294.96 497.014 293C495.854 291.02 495.274 288.28 495.274 284.78ZM507.514 284.78C507.514 283.16 507.404 281.79 507.184 280.67C506.984 279.55 506.564 278.64 505.924 277.94C505.284 277.22 504.334 276.86 503.074 276.86C501.814 276.86 500.864 277.22 500.224 277.94C499.584 278.64 499.154 279.55 498.934 280.67C498.734 281.79 498.634 283.16 498.634 284.78C498.634 286.46 498.734 287.87 498.934 289.01C499.134 290.15 499.554 291.07 500.194 291.77C500.854 292.47 501.814 292.82 503.074 292.82C504.334 292.82 505.284 292.47 505.924 291.77C506.584 291.07 507.014 290.15 507.214 289.01C507.414 287.87 507.514 286.46 507.514 284.78ZM514.492 284.78C514.492 281.32 515.072 278.62 516.232 276.68C517.412 274.72 519.432 273.74 522.292 273.74C525.152 273.74 527.162 274.72 528.322 276.68C529.502 278.62 530.092 281.32 530.092 284.78C530.092 288.28 529.502 291.02 528.322 293C527.162 294.96 525.152 295.94 522.292 295.94C519.432 295.94 517.412 294.96 516.232 293C515.072 291.02 514.492 288.28 514.492 284.78ZM526.732 284.78C526.732 283.16 526.622 281.79 526.402 280.67C526.202 279.55 525.782 278.64 525.142 277.94C524.502 277.22 523.552 276.86 522.292 276.86C521.032 276.86 520.082 277.22 519.442 277.94C518.802 278.64 518.372 279.55 518.152 280.67C517.952 281.79 517.852 283.16 517.852 284.78C517.852 286.46 517.952 287.87 518.152 289.01C518.352 290.15 518.772 291.07 519.412 291.77C520.072 292.47 521.032 292.82 522.292 292.82C523.552 292.82 524.502 292.47 525.142 291.77C525.802 291.07 526.232 290.15 526.432 289.01C526.632 287.87 526.732 286.46 526.732 284.78Z" fill="#919CAF"/>
<path d="M75.0652 434.44C75.0652 432.36 75.5152 430.51 76.4152 428.89C77.3152 427.25 78.5652 425.98 80.1652 425.08C81.7852 424.16 83.6152 423.7 85.6552 423.7C88.1552 423.7 90.2952 424.36 92.0752 425.68C93.8552 427 95.0452 428.8 95.6452 431.08H90.0052C89.5852 430.2 88.9852 429.53 88.2052 429.07C87.4452 428.61 86.5752 428.38 85.5952 428.38C84.0152 428.38 82.7352 428.93 81.7552 430.03C80.7752 431.13 80.2852 432.6 80.2852 434.44C80.2852 436.28 80.7752 437.75 81.7552 438.85C82.7352 439.95 84.0152 440.5 85.5952 440.5C86.5752 440.5 87.4452 440.27 88.2052 439.81C88.9852 439.35 89.5852 438.68 90.0052 437.8H95.6452C95.0452 440.08 93.8552 441.88 92.0752 443.2C90.2952 444.5 88.1552 445.15 85.6552 445.15C83.6152 445.15 81.7852 444.7 80.1652 443.8C78.5652 442.88 77.3152 441.61 76.4152 439.99C75.5152 438.37 75.0652 436.52 75.0652 434.44ZM117.027 423.94V445H111.897V436.33H103.917V445H98.7868V423.94H103.917V432.19H111.897V423.94H117.027ZM130.69 445.21C128.71 445.21 126.89 444.75 125.23 443.83C123.59 442.91 122.28 441.63 121.3 439.99C120.34 438.33 119.86 436.47 119.86 434.41C119.86 432.35 120.34 430.5 121.3 428.86C122.28 427.22 123.59 425.94 125.23 425.02C126.89 424.1 128.71 423.64 130.69 423.64C132.67 423.64 134.48 424.1 136.12 425.02C137.78 425.94 139.08 427.22 140.02 428.86C140.98 430.5 141.46 432.35 141.46 434.41C141.46 436.47 140.98 438.33 140.02 439.99C139.06 441.63 137.76 442.91 136.12 443.83C134.48 444.75 132.67 445.21 130.69 445.21ZM130.69 440.53C132.37 440.53 133.71 439.97 134.71 438.85C135.73 437.73 136.24 436.25 136.24 434.41C136.24 432.55 135.73 431.07 134.71 429.97C133.71 428.85 132.37 428.29 130.69 428.29C128.99 428.29 127.63 428.84 126.61 429.94C125.61 431.04 125.11 432.53 125.11 434.41C125.11 436.27 125.61 437.76 126.61 438.88C127.63 439.98 128.99 440.53 130.69 440.53ZM154.274 445.21C152.294 445.21 150.474 444.75 148.814 443.83C147.174 442.91 145.864 441.63 144.884 439.99C143.924 438.33 143.444 436.47 143.444 434.41C143.444 432.35 143.924 430.5 144.884 428.86C145.864 427.22 147.174 425.94 148.814 425.02C150.474 424.1 152.294 423.64 154.274 423.64C156.254 423.64 158.064 424.1 159.704 425.02C161.364 425.94 162.664 427.22 163.604 428.86C164.564 430.5 165.044 432.35 165.044 434.41C165.044 436.47 164.564 438.33 163.604 439.99C162.644 441.63 161.344 442.91 159.704 443.83C158.064 444.75 156.254 445.21 154.274 445.21ZM154.274 440.53C155.954 440.53 157.294 439.97 158.294 438.85C159.314 437.73 159.824 436.25 159.824 434.41C159.824 432.55 159.314 431.07 158.294 429.97C157.294 428.85 155.954 428.29 154.274 428.29C152.574 428.29 151.214 428.84 150.194 429.94C149.194 431.04 148.694 432.53 148.694 434.41C148.694 436.27 149.194 437.76 150.194 438.88C151.214 439.98 152.574 440.53 154.274 440.53ZM175.518 445.21C173.978 445.21 172.598 444.96 171.378 444.46C170.158 443.96 169.178 443.22 168.438 442.24C167.718 441.26 167.338 440.08 167.298 438.7H172.758C172.838 439.48 173.108 440.08 173.568 440.5C174.028 440.9 174.628 441.1 175.368 441.1C176.128 441.1 176.728 440.93 177.168 440.59C177.608 440.23 177.828 439.74 177.828 439.12C177.828 438.6 177.648 438.17 177.288 437.83C176.948 437.49 176.518 437.21 175.998 436.99C175.498 436.77 174.778 436.52 173.838 436.24C172.478 435.82 171.368 435.4 170.508 434.98C169.648 434.56 168.908 433.94 168.288 433.12C167.668 432.3 167.358 431.23 167.358 429.91C167.358 427.95 168.068 426.42 169.488 425.32C170.908 424.2 172.758 423.64 175.038 423.64C177.358 423.64 179.228 424.2 180.648 425.32C182.068 426.42 182.828 427.96 182.928 429.94H177.378C177.338 429.26 177.088 428.73 176.628 428.35C176.168 427.95 175.578 427.75 174.858 427.75C174.238 427.75 173.738 427.92 173.358 428.26C172.978 428.58 172.788 429.05 172.788 429.67C172.788 430.35 173.108 430.88 173.748 431.26C174.388 431.64 175.388 432.05 176.748 432.49C178.108 432.95 179.208 433.39 180.048 433.81C180.908 434.23 181.648 434.84 182.268 435.64C182.888 436.44 183.198 437.47 183.198 438.73C183.198 439.93 182.888 441.02 182.268 442C181.668 442.98 180.788 443.76 179.628 444.34C178.468 444.92 177.098 445.21 175.518 445.21ZM191.485 428.05V432.31H198.355V436.27H191.485V440.89H199.255V445H186.355V423.94H199.255V428.05H191.485ZM222.053 441.28H214.193L212.933 445H207.563L215.183 423.94H221.123L228.743 445H223.313L222.053 441.28ZM220.733 437.32L218.123 429.61L215.543 437.32H220.733ZM230.192 434.44C230.192 432.36 230.642 430.51 231.542 428.89C232.442 427.25 233.692 425.98 235.292 425.08C236.912 424.16 238.742 423.7 240.782 423.7C243.282 423.7 245.422 424.36 247.202 425.68C248.982 427 250.172 428.8 250.772 431.08H245.132C244.712 430.2 244.112 429.53 243.332 429.07C242.572 428.61 241.702 428.38 240.722 428.38C239.142 428.38 237.862 428.93 236.882 430.03C235.902 431.13 235.412 432.6 235.412 434.44C235.412 436.28 235.902 437.75 236.882 438.85C237.862 439.95 239.142 440.5 240.722 440.5C241.702 440.5 242.572 440.27 243.332 439.81C244.112 439.35 244.712 438.68 245.132 437.8H250.772C250.172 440.08 248.982 441.88 247.202 443.2C245.422 444.5 243.282 445.15 240.782 445.15C238.742 445.15 236.912 444.7 235.292 443.8C233.692 442.88 232.442 441.61 231.542 439.99C230.642 438.37 230.192 436.52 230.192 434.44ZM253.044 434.44C253.044 432.36 253.494 430.51 254.394 428.89C255.294 427.25 256.544 425.98 258.144 425.08C259.764 424.16 261.594 423.7 263.634 423.7C266.134 423.7 268.274 424.36 270.054 425.68C271.834 427 273.024 428.8 273.624 431.08H267.984C267.564 430.2 266.964 429.53 266.184 429.07C265.424 428.61 264.554 428.38 263.574 428.38C261.994 428.38 260.714 428.93 259.734 430.03C258.754 431.13 258.264 432.6 258.264 434.44C258.264 436.28 258.754 437.75 259.734 438.85C260.714 439.95 261.994 440.5 263.574 440.5C264.554 440.5 265.424 440.27 266.184 439.81C266.964 439.35 267.564 438.68 267.984 437.8H273.624C273.024 440.08 271.834 441.88 270.054 443.2C268.274 444.5 266.134 445.15 263.634 445.15C261.594 445.15 259.764 444.7 258.144 443.8C256.544 442.88 255.294 441.61 254.394 439.99C253.494 438.37 253.044 436.52 253.044 434.44ZM286.725 445.21C284.745 445.21 282.925 444.75 281.265 443.83C279.625 442.91 278.315 441.63 277.335 439.99C276.375 438.33 275.895 436.47 275.895 434.41C275.895 432.35 276.375 430.5 277.335 428.86C278.315 427.22 279.625 425.94 281.265 425.02C282.925 424.1 284.745 423.64 286.725 423.64C288.705 423.64 290.515 424.1 292.155 425.02C293.815 425.94 295.115 427.22 296.055 428.86C297.015 430.5 297.495 432.35 297.495 434.41C297.495 436.47 297.015 438.33 296.055 439.99C295.095 441.63 293.795 442.91 292.155 443.83C290.515 444.75 288.705 445.21 286.725 445.21ZM286.725 440.53C288.405 440.53 289.745 439.97 290.745 438.85C291.765 437.73 292.275 436.25 292.275 434.41C292.275 432.55 291.765 431.07 290.745 429.97C289.745 428.85 288.405 428.29 286.725 428.29C285.025 428.29 283.665 428.84 282.645 429.94C281.645 431.04 281.145 432.53 281.145 434.41C281.145 436.27 281.645 437.76 282.645 438.88C283.665 439.98 285.025 440.53 286.725 440.53ZM305.389 423.94V436.54C305.389 437.8 305.699 438.77 306.319 439.45C306.939 440.13 307.849 440.47 309.049 440.47C310.249 440.47 311.169 440.13 311.809 439.45C312.449 438.77 312.769 437.8 312.769 436.54V423.94H317.899V436.51C317.899 438.39 317.499 439.98 316.699 441.28C315.899 442.58 314.819 443.56 313.459 444.22C312.119 444.88 310.619 445.21 308.959 445.21C307.299 445.21 305.809 444.89 304.489 444.25C303.189 443.59 302.159 442.61 301.399 441.31C300.639 439.99 300.259 438.39 300.259 436.51V423.94H305.389ZM340.342 445H335.212L326.632 432.01V445H321.502V423.94H326.632L335.212 436.99V423.94H340.342V445ZM359.21 423.94V428.05H353.63V445H348.5V428.05H342.92V423.94H359.21Z" fill="#B4BAC8"/>
<rect x="74" y="508" width="743" height="150" rx="75" fill="#376BED"/>
<circle cx="734" cy="583" r="55" fill="white"/>
<circle cx="157" cy="583" r="55" fill="#6087F0"/>
<path d="M150.663 580.2C151.883 580.46 152.863 581.07 153.603 582.03C154.343 582.97 154.713 584.05 154.713 585.27C154.713 587.03 154.093 588.43 152.853 589.47C151.633 590.49 149.923 591 147.723 591H137.913V569.94H147.393C149.533 569.94 151.203 570.43 152.403 571.41C153.623 572.39 154.233 573.72 154.233 575.4C154.233 576.64 153.903 577.67 153.243 578.49C152.603 579.31 151.743 579.88 150.663 580.2ZM143.043 578.46H146.403C147.243 578.46 147.883 578.28 148.323 577.92C148.783 577.54 149.013 576.99 149.013 576.27C149.013 575.55 148.783 575 148.323 574.62C147.883 574.24 147.243 574.05 146.403 574.05H143.043V578.46ZM146.823 586.86C147.683 586.86 148.343 586.67 148.803 586.29C149.283 585.89 149.523 585.32 149.523 584.58C149.523 583.84 149.273 583.26 148.773 582.84C148.293 582.42 147.623 582.21 146.763 582.21H143.043V586.86H146.823ZM170.798 587.28H162.938L161.678 591H156.308L163.928 569.94H169.868L177.488 591H172.058L170.798 587.28ZM169.478 583.32L166.868 575.61L164.288 583.32H169.478Z" fill="white"/>
<path d="M725.895 601.219C726.871 602.195 728.531 602.195 729.508 601.219L758.219 572.508C759.195 571.531 759.195 569.871 758.219 568.895L754.703 565.379C753.727 564.402 752.164 564.402 751.188 565.379L727.75 588.816L716.715 577.879C715.738 576.902 714.176 576.902 713.199 577.879L709.684 581.395C708.707 582.371 708.707 584.031 709.684 585.008L725.895 601.219Z" fill="#376BED"/>
<path d="M260.776 557.29C261.896 557.49 262.846 558.08 263.626 559.06C264.406 560.04 264.796 561.15 264.796 562.39C264.796 563.45 264.516 564.41 263.956 565.27C263.416 566.11 262.626 566.78 261.586 567.28C260.546 567.76 259.336 568 257.956 568H249.616V547.15H257.566C258.986 547.15 260.206 547.39 261.226 547.87C262.246 548.35 263.016 549 263.536 549.82C264.056 550.62 264.316 551.52 264.316 552.52C264.316 553.72 263.996 554.72 263.356 555.52C262.716 556.32 261.856 556.91 260.776 557.29ZM253.036 555.91H257.266C258.386 555.91 259.256 555.66 259.876 555.16C260.516 554.64 260.836 553.9 260.836 552.94C260.836 552 260.516 551.27 259.876 550.75C259.256 550.21 258.386 549.94 257.266 549.94H253.036V555.91ZM257.656 565.21C258.816 565.21 259.726 564.93 260.386 564.37C261.046 563.81 261.376 563.03 261.376 562.03C261.376 561.01 261.026 560.2 260.326 559.6C259.626 559 258.696 558.7 257.536 558.7H253.036V565.21H257.656ZM267.373 559.66C267.373 558 267.713 556.53 268.393 555.25C269.093 553.97 270.033 552.98 271.213 552.28C272.413 551.56 273.733 551.2 275.173 551.2C276.473 551.2 277.603 551.46 278.563 551.98C279.543 552.48 280.323 553.11 280.903 553.87V551.47H284.353V568H280.903V565.54C280.323 566.32 279.533 566.97 278.533 567.49C277.533 568.01 276.393 568.27 275.113 568.27C273.693 568.27 272.393 567.91 271.213 567.19C270.033 566.45 269.093 565.43 268.393 564.13C267.713 562.81 267.373 561.32 267.373 559.66ZM280.903 559.72C280.903 558.58 280.663 557.59 280.183 556.75C279.723 555.91 279.113 555.27 278.353 554.83C277.593 554.39 276.773 554.17 275.893 554.17C275.013 554.17 274.193 554.39 273.433 554.83C272.673 555.25 272.053 555.88 271.573 556.72C271.113 557.54 270.883 558.52 270.883 559.66C270.883 560.8 271.113 561.8 271.573 562.66C272.053 563.52 272.673 564.18 273.433 564.64C274.213 565.08 275.033 565.3 275.893 565.3C276.773 565.3 277.593 565.08 278.353 564.64C279.113 564.2 279.723 563.56 280.183 562.72C280.663 561.86 280.903 560.86 280.903 559.72ZM297.185 551.2C298.485 551.2 299.645 551.47 300.665 552.01C301.705 552.55 302.515 553.35 303.095 554.41C303.675 555.47 303.965 556.75 303.965 558.25V568H300.575V558.76C300.575 557.28 300.205 556.15 299.465 555.37C298.725 554.57 297.715 554.17 296.435 554.17C295.155 554.17 294.135 554.57 293.375 555.37C292.635 556.15 292.265 557.28 292.265 558.76V568H288.845V551.47H292.265V553.36C292.825 552.68 293.535 552.15 294.395 551.77C295.275 551.39 296.205 551.2 297.185 551.2ZM314.867 559.75L322.487 568H317.867L311.747 560.89V568H308.327V545.8H311.747V558.7L317.747 551.47H322.487L314.867 559.75ZM345.301 563.74H336.571L335.071 568H331.501L338.971 547.12H342.931L350.401 568H346.801L345.301 563.74ZM344.341 560.95L340.951 551.26L337.531 560.95H344.341ZM352.509 559.72C352.509 558.02 352.849 556.53 353.529 555.25C354.229 553.95 355.189 552.95 356.409 552.25C357.629 551.55 359.029 551.2 360.609 551.2C362.609 551.2 364.259 551.68 365.559 552.64C366.879 553.58 367.769 554.93 368.229 556.69H364.539C364.239 555.87 363.759 555.23 363.099 554.77C362.439 554.31 361.609 554.08 360.609 554.08C359.209 554.08 358.089 554.58 357.249 555.58C356.429 556.56 356.019 557.94 356.019 559.72C356.019 561.5 356.429 562.89 357.249 563.89C358.089 564.89 359.209 565.39 360.609 565.39C362.589 565.39 363.899 564.52 364.539 562.78H368.229C367.749 564.46 366.849 565.8 365.529 566.8C364.209 567.78 362.569 568.27 360.609 568.27C359.029 568.27 357.629 567.92 356.409 567.22C355.189 566.5 354.229 565.5 353.529 564.22C352.849 562.92 352.509 561.42 352.509 559.72ZM370.498 559.72C370.498 558.02 370.838 556.53 371.518 555.25C372.218 553.95 373.178 552.95 374.398 552.25C375.618 551.55 377.018 551.2 378.598 551.2C380.598 551.2 382.248 551.68 383.548 552.64C384.868 553.58 385.758 554.93 386.218 556.69H382.528C382.228 555.87 381.748 555.23 381.088 554.77C380.428 554.31 379.598 554.08 378.598 554.08C377.198 554.08 376.078 554.58 375.238 555.58C374.418 556.56 374.008 557.94 374.008 559.72C374.008 561.5 374.418 562.89 375.238 563.89C376.078 564.89 377.198 565.39 378.598 565.39C380.578 565.39 381.888 564.52 382.528 562.78H386.218C385.738 564.46 384.838 565.8 383.518 566.8C382.198 567.78 380.558 568.27 378.598 568.27C377.018 568.27 375.618 567.92 374.398 567.22C373.178 566.5 372.218 565.5 371.518 564.22C370.838 562.92 370.498 561.42 370.498 559.72ZM396.796 568.27C395.236 568.27 393.826 567.92 392.566 567.22C391.306 566.5 390.316 565.5 389.596 564.22C388.876 562.92 388.516 561.42 388.516 559.72C388.516 558.04 388.886 556.55 389.626 555.25C390.366 553.95 391.376 552.95 392.656 552.25C393.936 551.55 395.366 551.2 396.946 551.2C398.526 551.2 399.956 551.55 401.236 552.25C402.516 552.95 403.526 553.95 404.266 555.25C405.006 556.55 405.376 558.04 405.376 559.72C405.376 561.4 404.996 562.89 404.236 564.19C403.476 565.49 402.436 566.5 401.116 567.22C399.816 567.92 398.376 568.27 396.796 568.27ZM396.796 565.3C397.676 565.3 398.496 565.09 399.256 564.67C400.036 564.25 400.666 563.62 401.146 562.78C401.626 561.94 401.866 560.92 401.866 559.72C401.866 558.52 401.636 557.51 401.176 556.69C400.716 555.85 400.106 555.22 399.346 554.8C398.586 554.38 397.766 554.17 396.886 554.17C396.006 554.17 395.186 554.38 394.426 554.8C393.686 555.22 393.096 555.85 392.656 556.69C392.216 557.51 391.996 558.52 391.996 559.72C391.996 561.5 392.446 562.88 393.346 563.86C394.266 564.82 395.416 565.3 396.796 565.3ZM423.727 551.47V568H420.307V566.05C419.767 566.73 419.057 567.27 418.177 567.67C417.317 568.05 416.397 568.24 415.417 568.24C414.117 568.24 412.947 567.97 411.907 567.43C410.887 566.89 410.077 566.09 409.477 565.03C408.897 563.97 408.607 562.69 408.607 561.19V551.47H411.997V560.68C411.997 562.16 412.367 563.3 413.107 564.1C413.847 564.88 414.857 565.27 416.137 565.27C417.417 565.27 418.427 564.88 419.167 564.1C419.927 563.3 420.307 562.16 420.307 560.68V551.47H423.727ZM436.579 551.2C437.879 551.2 439.039 551.47 440.059 552.01C441.099 552.55 441.909 553.35 442.489 554.41C443.069 555.47 443.359 556.75 443.359 558.25V568H439.969V558.76C439.969 557.28 439.599 556.15 438.859 555.37C438.119 554.57 437.109 554.17 435.829 554.17C434.549 554.17 433.529 554.57 432.769 555.37C432.029 556.15 431.659 557.28 431.659 558.76V568H428.239V551.47H431.659V553.36C432.219 552.68 432.929 552.15 433.789 551.77C434.669 551.39 435.599 551.2 436.579 551.2ZM451.712 554.26V563.41C451.712 564.03 451.852 564.48 452.132 564.76C452.432 565.02 452.932 565.15 453.632 565.15H455.732V568H453.032C451.492 568 450.312 567.64 449.492 566.92C448.672 566.2 448.262 565.03 448.262 563.41V554.26H446.312V551.47H448.262V547.36H451.712V551.47H455.732V554.26H451.712Z" fill="white"/>
<path d="M255.362 606.06L259.682 613H257.122L253.982 607.96L251.042 613H248.502L252.822 606.06L248.482 599.1H251.042L254.202 604.18L257.162 599.1H259.702L255.362 606.06ZM268.566 606.06L272.886 613H270.326L267.186 607.96L264.246 613H261.706L266.026 606.06L261.686 599.1H264.246L267.406 604.18L270.366 599.1H272.906L268.566 606.06ZM281.769 606.06L286.089 613H283.529L280.389 607.96L277.449 613H274.909L279.229 606.06L274.889 599.1H277.449L280.609 604.18L283.569 599.1H286.109L281.769 606.06ZM294.972 606.06L299.292 613H296.732L293.592 607.96L290.652 613H288.112L292.432 606.06L288.092 599.1H290.652L293.812 604.18L296.772 599.1H299.312L294.972 606.06ZM315.45 604.8V606.72H307.23V604.8H315.45ZM330.265 606.06L334.585 613H332.025L328.885 607.96L325.945 613H323.405L327.725 606.06L323.385 599.1H325.945L329.105 604.18L332.065 599.1H334.605L330.265 606.06ZM343.468 606.06L347.788 613H345.228L342.088 607.96L339.148 613H336.608L340.928 606.06L336.588 599.1H339.148L342.308 604.18L345.268 599.1H347.808L343.468 606.06ZM356.671 606.06L360.991 613H358.431L355.291 607.96L352.351 613H349.811L354.131 606.06L349.791 599.1H352.351L355.511 604.18L358.471 599.1H361.011L356.671 606.06ZM369.874 606.06L374.194 613H371.634L368.494 607.96L365.554 613H363.014L367.334 606.06L362.994 599.1H365.554L368.714 604.18L371.674 599.1H374.214L369.874 606.06ZM390.353 604.8V606.72H382.133V604.8H390.353ZM398.487 605.52C398.487 603.213 398.874 601.413 399.647 600.12C400.434 598.813 401.78 598.16 403.687 598.16C405.594 598.16 406.934 598.813 407.707 600.12C408.494 601.413 408.887 603.213 408.887 605.52C408.887 607.853 408.494 609.68 407.707 611C406.934 612.307 405.594 612.96 403.687 612.96C401.78 612.96 400.434 612.307 399.647 611C398.874 609.68 398.487 607.853 398.487 605.52ZM406.647 605.52C406.647 604.44 406.574 603.527 406.427 602.78C406.294 602.033 406.014 601.427 405.587 600.96C405.16 600.48 404.527 600.24 403.687 600.24C402.847 600.24 402.214 600.48 401.787 600.96C401.36 601.427 401.074 602.033 400.927 602.78C400.794 603.527 400.727 604.44 400.727 605.52C400.727 606.64 400.794 607.58 400.927 608.34C401.06 609.1 401.34 609.713 401.767 610.18C402.207 610.647 402.847 610.88 403.687 610.88C404.527 610.88 405.16 610.647 405.587 610.18C406.027 609.713 406.314 609.1 406.447 608.34C406.58 607.58 406.647 606.64 406.647 605.52ZM414.14 609.04C414.273 609.707 414.56 610.213 415 610.56C415.44 610.907 416.033 611.08 416.78 611.08C417.726 611.08 418.42 610.707 418.86 609.96C419.3 609.213 419.52 607.94 419.52 606.14C419.2 606.593 418.746 606.947 418.16 607.2C417.586 607.44 416.96 607.56 416.28 607.56C415.413 607.56 414.626 607.387 413.92 607.04C413.213 606.68 412.653 606.153 412.24 605.46C411.84 604.753 411.64 603.9 411.64 602.9C411.64 601.433 412.066 600.267 412.92 599.4C413.786 598.52 414.973 598.08 416.48 598.08C418.293 598.08 419.58 598.687 420.34 599.9C421.113 601.1 421.5 602.947 421.5 605.44C421.5 607.16 421.353 608.567 421.06 609.66C420.78 610.753 420.286 611.58 419.58 612.14C418.873 612.7 417.893 612.98 416.64 612.98C415.213 612.98 414.113 612.607 413.34 611.86C412.566 611.113 412.133 610.173 412.04 609.04H414.14ZM416.68 605.64C417.48 605.64 418.106 605.393 418.56 604.9C419.026 604.393 419.26 603.727 419.26 602.9C419.26 601.98 419.013 601.267 418.52 600.76C418.04 600.24 417.38 599.98 416.54 599.98C415.7 599.98 415.033 600.247 414.54 600.78C414.06 601.3 413.82 601.987 413.82 602.84C413.82 603.653 414.053 604.327 414.52 604.86C415 605.38 415.72 605.64 416.68 605.64ZM423.715 609.96V608.24L430.435 598.6H433.195V607.98H435.055V609.96H433.195V613H430.955V609.96H423.715ZM431.055 600.92L426.335 607.98H431.055V600.92ZM446.344 600.38H439.644V604.36C439.924 603.987 440.337 603.673 440.884 603.42C441.444 603.167 442.037 603.04 442.664 603.04C443.784 603.04 444.691 603.28 445.384 603.76C446.091 604.24 446.591 604.847 446.884 605.58C447.191 606.313 447.344 607.087 447.344 607.9C447.344 608.887 447.151 609.767 446.764 610.54C446.391 611.3 445.824 611.9 445.064 612.34C444.317 612.78 443.397 613 442.304 613C440.851 613 439.684 612.64 438.804 611.92C437.924 611.2 437.397 610.247 437.224 609.06H439.444C439.591 609.687 439.917 610.187 440.424 610.56C440.931 610.92 441.564 611.1 442.324 611.1C443.271 611.1 443.977 610.813 444.444 610.24C444.924 609.667 445.164 608.907 445.164 607.96C445.164 607 444.924 606.267 444.444 605.76C443.964 605.24 443.257 604.98 442.324 604.98C441.671 604.98 441.117 605.147 440.664 605.48C440.224 605.8 439.904 606.24 439.704 606.8H437.544V598.38H446.344V600.38Z" fill="#6F95F5"/>
<path d="M257.044 794.06L261.364 801H258.804L255.664 795.96L252.724 801H250.184L254.504 794.06L250.164 787.1H252.724L255.884 792.18L258.844 787.1H261.384L257.044 794.06ZM270.247 794.06L274.567 801H272.007L268.867 795.96L265.927 801H263.387L267.707 794.06L263.367 787.1H265.927L269.087 792.18L272.047 787.1H274.587L270.247 794.06ZM283.45 794.06L287.77 801H285.21L282.07 795.96L279.13 801H276.59L280.91 794.06L276.57 787.1H279.13L282.29 792.18L285.25 787.1H287.79L283.45 794.06ZM296.653 794.06L300.973 801H298.413L295.273 795.96L292.333 801H289.793L294.113 794.06L289.773 787.1H292.333L295.493 792.18L298.453 787.1H300.993L296.653 794.06ZM317.132 792.8V794.72H308.912V792.8H317.132ZM331.946 794.06L336.266 801H333.706L330.566 795.96L327.626 801H325.086L329.406 794.06L325.066 787.1H327.626L330.786 792.18L333.746 787.1H336.286L331.946 794.06ZM345.15 794.06L349.47 801H346.91L343.77 795.96L340.83 801H338.29L342.61 794.06L338.27 787.1H340.83L343.99 792.18L346.95 787.1H349.49L345.15 794.06ZM358.353 794.06L362.673 801H360.113L356.973 795.96L354.033 801H351.493L355.813 794.06L351.473 787.1H354.033L357.193 792.18L360.153 787.1H362.693L358.353 794.06ZM371.556 794.06L375.876 801H373.316L370.176 795.96L367.236 801H364.696L369.016 794.06L364.676 787.1H367.236L370.396 792.18L373.356 787.1H375.896L371.556 794.06ZM392.034 792.8V794.72H383.814V792.8H392.034ZM400.129 790.02C400.209 788.78 400.682 787.813 401.549 787.12C402.429 786.427 403.549 786.08 404.909 786.08C405.842 786.08 406.649 786.247 407.329 786.58C408.009 786.913 408.522 787.367 408.869 787.94C409.215 788.513 409.389 789.16 409.389 789.88C409.389 790.707 409.169 791.413 408.729 792C408.289 792.587 407.762 792.98 407.149 793.18V793.26C407.935 793.5 408.549 793.94 408.989 794.58C409.429 795.207 409.649 796.013 409.649 797C409.649 797.787 409.469 798.487 409.109 799.1C408.749 799.713 408.215 800.2 407.509 800.56C406.802 800.907 405.955 801.08 404.969 801.08C403.529 801.08 402.342 800.713 401.409 799.98C400.489 799.233 399.995 798.167 399.929 796.78H402.129C402.182 797.487 402.455 798.067 402.949 798.52C403.442 798.96 404.109 799.18 404.949 799.18C405.762 799.18 406.389 798.96 406.829 798.52C407.269 798.067 407.489 797.487 407.489 796.78C407.489 795.847 407.189 795.187 406.589 794.8C406.002 794.4 405.095 794.2 403.869 794.2H403.349V792.32H403.889C404.969 792.307 405.789 792.127 406.349 791.78C406.922 791.433 407.209 790.887 407.209 790.14C407.209 789.5 407.002 788.993 406.589 788.62C406.175 788.233 405.589 788.04 404.829 788.04C404.082 788.04 403.502 788.233 403.089 788.62C402.675 788.993 402.429 789.46 402.349 790.02H400.129ZM413.304 797.9C414.584 796.793 415.59 795.887 416.324 795.18C417.07 794.46 417.69 793.713 418.184 792.94C418.677 792.167 418.924 791.393 418.924 790.62C418.924 789.82 418.73 789.193 418.344 788.74C417.97 788.287 417.377 788.06 416.564 788.06C415.777 788.06 415.164 788.313 414.724 788.82C414.297 789.313 414.07 789.98 414.044 790.82H411.844C411.884 789.3 412.337 788.14 413.204 787.34C414.084 786.527 415.197 786.12 416.544 786.12C417.997 786.12 419.13 786.52 419.944 787.32C420.77 788.12 421.184 789.187 421.184 790.52C421.184 791.48 420.937 792.407 420.444 793.3C419.964 794.18 419.384 794.973 418.704 795.68C418.037 796.373 417.184 797.18 416.144 798.1L415.244 798.9H421.584V800.8H411.864V799.14L413.304 797.9ZM426.047 793.38C424.66 792.687 423.967 791.593 423.967 790.1C423.967 789.38 424.147 788.72 424.507 788.12C424.867 787.52 425.407 787.047 426.127 786.7C426.847 786.34 427.727 786.16 428.767 786.16C429.793 786.16 430.667 786.34 431.387 786.7C432.12 787.047 432.667 787.52 433.027 788.12C433.387 788.72 433.567 789.38 433.567 790.1C433.567 790.847 433.373 791.507 432.987 792.08C432.613 792.64 432.113 793.073 431.487 793.38C432.247 793.66 432.847 794.12 433.287 794.76C433.727 795.387 433.947 796.127 433.947 796.98C433.947 797.847 433.727 798.613 433.287 799.28C432.847 799.947 432.233 800.46 431.447 800.82C430.66 801.18 429.767 801.36 428.767 801.36C427.767 801.36 426.873 801.18 426.087 800.82C425.313 800.46 424.707 799.947 424.267 799.28C423.827 798.613 423.607 797.847 423.607 796.98C423.607 796.113 423.827 795.367 424.267 794.74C424.707 794.113 425.3 793.66 426.047 793.38ZM431.387 790.38C431.387 789.633 431.153 789.06 430.687 788.66C430.22 788.26 429.58 788.06 428.767 788.06C427.967 788.06 427.333 788.26 426.867 788.66C426.4 789.06 426.167 789.64 426.167 790.4C426.167 791.067 426.407 791.613 426.887 792.04C427.38 792.453 428.007 792.66 428.767 792.66C429.527 792.66 430.153 792.447 430.647 792.02C431.14 791.593 431.387 791.047 431.387 790.38ZM428.767 794.38C427.887 794.38 427.167 794.6 426.607 795.04C426.06 795.467 425.787 796.087 425.787 796.9C425.787 797.66 426.053 798.28 426.587 798.76C427.12 799.227 427.847 799.46 428.767 799.46C429.673 799.46 430.387 799.22 430.907 798.74C431.44 798.26 431.707 797.647 431.707 796.9C431.707 796.1 431.433 795.48 430.887 795.04C430.353 794.6 429.647 794.38 428.767 794.38ZM439.181 797.04C439.314 797.707 439.601 798.213 440.041 798.56C440.481 798.907 441.074 799.08 441.821 799.08C442.767 799.08 443.461 798.707 443.901 797.96C444.341 797.213 444.561 795.94 444.561 794.14C444.241 794.593 443.787 794.947 443.201 795.2C442.627 795.44 442.001 795.56 441.321 795.56C440.454 795.56 439.667 795.387 438.961 795.04C438.254 794.68 437.694 794.153 437.281 793.46C436.881 792.753 436.681 791.9 436.681 790.9C436.681 789.433 437.107 788.267 437.961 787.4C438.827 786.52 440.014 786.08 441.521 786.08C443.334 786.08 444.621 786.687 445.381 787.9C446.154 789.1 446.541 790.947 446.541 793.44C446.541 795.16 446.394 796.567 446.101 797.66C445.821 798.753 445.327 799.58 444.621 800.14C443.914 800.7 442.934 800.98 441.681 800.98C440.254 800.98 439.154 800.607 438.381 799.86C437.607 799.113 437.174 798.173 437.081 797.04H439.181ZM441.721 793.64C442.521 793.64 443.147 793.393 443.601 792.9C444.067 792.393 444.301 791.727 444.301 790.9C444.301 789.98 444.054 789.267 443.561 788.76C443.081 788.24 442.421 787.98 441.581 787.98C440.741 787.98 440.074 788.247 439.581 788.78C439.101 789.3 438.861 789.987 438.861 790.84C438.861 791.653 439.094 792.327 439.561 792.86C440.041 793.38 440.761 793.64 441.721 793.64Z" fill="#A6B2BF"/>
<path d="M248.205 745.53C248.205 743.49 248.675 741.66 249.615 740.04C250.575 738.42 251.865 737.16 253.485 736.26C255.125 735.34 256.915 734.88 258.855 734.88C261.075 734.88 263.045 735.43 264.765 736.53C266.505 737.61 267.765 739.15 268.545 741.15H264.435C263.895 740.05 263.145 739.23 262.185 738.69C261.225 738.15 260.115 737.88 258.855 737.88C257.475 737.88 256.245 738.19 255.165 738.81C254.085 739.43 253.235 740.32 252.615 741.48C252.015 742.64 251.715 743.99 251.715 745.53C251.715 747.07 252.015 748.42 252.615 749.58C253.235 750.74 254.085 751.64 255.165 752.28C256.245 752.9 257.475 753.21 258.855 753.21C260.115 753.21 261.225 752.94 262.185 752.4C263.145 751.86 263.895 751.04 264.435 749.94H268.545C267.765 751.94 266.505 753.48 264.765 754.56C263.045 755.64 261.075 756.18 258.855 756.18C256.895 756.18 255.105 755.73 253.485 754.83C251.865 753.91 250.575 752.64 249.615 751.02C248.675 749.4 248.205 747.57 248.205 745.53ZM275.968 741.87C276.468 741.03 277.128 740.38 277.948 739.92C278.788 739.44 279.778 739.2 280.918 739.2V742.74H280.048C278.708 742.74 277.688 743.08 276.988 743.76C276.308 744.44 275.968 745.62 275.968 747.3V756H272.548V739.47H275.968V741.87ZM299.212 747.33C299.212 747.95 299.172 748.51 299.092 749.01H286.462C286.562 750.33 287.052 751.39 287.932 752.19C288.812 752.99 289.892 753.39 291.172 753.39C293.012 753.39 294.312 752.62 295.072 751.08H298.762C298.262 752.6 297.352 753.85 296.032 754.83C294.732 755.79 293.112 756.27 291.172 756.27C289.592 756.27 288.172 755.92 286.912 755.22C285.672 754.5 284.692 753.5 283.972 752.22C283.272 750.92 282.922 749.42 282.922 747.72C282.922 746.02 283.262 744.53 283.942 743.25C284.642 741.95 285.612 740.95 286.852 740.25C288.112 739.55 289.552 739.2 291.172 739.2C292.732 739.2 294.122 739.54 295.342 740.22C296.562 740.9 297.512 741.86 298.192 743.1C298.872 744.32 299.212 745.73 299.212 747.33ZM295.642 746.25C295.622 744.99 295.172 743.98 294.292 743.22C293.412 742.46 292.322 742.08 291.022 742.08C289.842 742.08 288.832 742.46 287.992 743.22C287.152 743.96 286.652 744.97 286.492 746.25H295.642ZM301.437 747.66C301.437 746 301.777 744.53 302.457 743.25C303.157 741.97 304.097 740.98 305.277 740.28C306.477 739.56 307.807 739.2 309.267 739.2C310.347 739.2 311.407 739.44 312.447 739.92C313.507 740.38 314.347 741 314.967 741.78V733.8H318.417V756H314.967V753.51C314.407 754.31 313.627 754.97 312.627 755.49C311.647 756.01 310.517 756.27 309.237 756.27C307.797 756.27 306.477 755.91 305.277 755.19C304.097 754.45 303.157 753.43 302.457 752.13C301.777 750.81 301.437 749.32 301.437 747.66ZM314.967 747.72C314.967 746.58 314.727 745.59 314.247 744.75C313.787 743.91 313.177 743.27 312.417 742.83C311.657 742.39 310.837 742.17 309.957 742.17C309.077 742.17 308.257 742.39 307.497 742.83C306.737 743.25 306.117 743.88 305.637 744.72C305.177 745.54 304.947 746.52 304.947 747.66C304.947 748.8 305.177 749.8 305.637 750.66C306.117 751.52 306.737 752.18 307.497 752.64C308.277 753.08 309.097 753.3 309.957 753.3C310.837 753.3 311.657 753.08 312.417 752.64C313.177 752.2 313.787 751.56 314.247 750.72C314.727 749.86 314.967 748.86 314.967 747.72ZM324.649 737.28C324.029 737.28 323.509 737.07 323.089 736.65C322.669 736.23 322.459 735.71 322.459 735.09C322.459 734.47 322.669 733.95 323.089 733.53C323.509 733.11 324.029 732.9 324.649 732.9C325.249 732.9 325.759 733.11 326.179 733.53C326.599 733.95 326.809 734.47 326.809 735.09C326.809 735.71 326.599 736.23 326.179 736.65C325.759 737.07 325.249 737.28 324.649 737.28ZM326.329 739.47V756H322.909V739.47H326.329ZM334.809 742.26V751.41C334.809 752.03 334.949 752.48 335.229 752.76C335.529 753.02 336.029 753.15 336.729 753.15H338.829V756H336.129C334.589 756 333.409 755.64 332.589 754.92C331.769 754.2 331.359 753.03 331.359 751.41V742.26H329.409V739.47H331.359V735.36H334.809V739.47H338.829V742.26H334.809ZM348.634 745.53C348.634 743.49 349.104 741.66 350.044 740.04C351.004 738.42 352.294 737.16 353.914 736.26C355.554 735.34 357.344 734.88 359.284 734.88C361.504 734.88 363.474 735.43 365.194 736.53C366.934 737.61 368.194 739.15 368.974 741.15H364.864C364.324 740.05 363.574 739.23 362.614 738.69C361.654 738.15 360.544 737.88 359.284 737.88C357.904 737.88 356.674 738.19 355.594 738.81C354.514 739.43 353.664 740.32 353.044 741.48C352.444 742.64 352.144 743.99 352.144 745.53C352.144 747.07 352.444 748.42 353.044 749.58C353.664 750.74 354.514 751.64 355.594 752.28C356.674 752.9 357.904 753.21 359.284 753.21C360.544 753.21 361.654 752.94 362.614 752.4C363.574 751.86 364.324 751.04 364.864 749.94H368.974C368.194 751.94 366.934 753.48 365.194 754.56C363.474 755.64 361.504 756.18 359.284 756.18C357.324 756.18 355.534 755.73 353.914 754.83C352.294 753.91 351.004 752.64 350.044 751.02C349.104 749.4 348.634 747.57 348.634 745.53ZM371.838 747.66C371.838 746 372.178 744.53 372.858 743.25C373.558 741.97 374.498 740.98 375.678 740.28C376.878 739.56 378.198 739.2 379.638 739.2C380.938 739.2 382.068 739.46 383.028 739.98C384.008 740.48 384.788 741.11 385.368 741.87V739.47H388.818V756H385.368V753.54C384.788 754.32 383.998 754.97 382.998 755.49C381.998 756.01 380.858 756.27 379.578 756.27C378.158 756.27 376.858 755.91 375.678 755.19C374.498 754.45 373.558 753.43 372.858 752.13C372.178 750.81 371.838 749.32 371.838 747.66ZM385.368 747.72C385.368 746.58 385.128 745.59 384.648 744.75C384.188 743.91 383.578 743.27 382.818 742.83C382.058 742.39 381.238 742.17 380.358 742.17C379.478 742.17 378.658 742.39 377.898 742.83C377.138 743.25 376.518 743.88 376.038 744.72C375.578 745.54 375.348 746.52 375.348 747.66C375.348 748.8 375.578 749.8 376.038 750.66C376.518 751.52 377.138 752.18 377.898 752.64C378.678 753.08 379.498 753.3 380.358 753.3C381.238 753.3 382.058 753.08 382.818 752.64C383.578 752.2 384.188 751.56 384.648 750.72C385.128 749.86 385.368 748.86 385.368 747.72ZM396.73 741.87C397.23 741.03 397.89 740.38 398.71 739.92C399.55 739.44 400.54 739.2 401.68 739.2V742.74H400.81C399.47 742.74 398.45 743.08 397.75 743.76C397.07 744.44 396.73 745.62 396.73 747.3V756H393.31V739.47H396.73V741.87ZM403.683 747.66C403.683 746 404.023 744.53 404.703 743.25C405.403 741.97 406.343 740.98 407.523 740.28C408.723 739.56 410.053 739.2 411.513 739.2C412.593 739.2 413.653 739.44 414.693 739.92C415.753 740.38 416.593 741 417.213 741.78V733.8H420.663V756H417.213V753.51C416.653 754.31 415.873 754.97 414.873 755.49C413.893 756.01 412.763 756.27 411.483 756.27C410.043 756.27 408.723 755.91 407.523 755.19C406.343 754.45 405.403 753.43 404.703 752.13C404.023 750.81 403.683 749.32 403.683 747.66ZM417.213 747.72C417.213 746.58 416.973 745.59 416.493 744.75C416.033 743.91 415.423 743.27 414.663 742.83C413.903 742.39 413.083 742.17 412.203 742.17C411.323 742.17 410.503 742.39 409.743 742.83C408.983 743.25 408.363 743.88 407.883 744.72C407.423 745.54 407.193 746.52 407.193 747.66C407.193 748.8 407.423 749.8 407.883 750.66C408.363 751.52 408.983 752.18 409.743 752.64C410.523 753.08 411.343 753.3 412.203 753.3C413.083 753.3 413.903 753.08 414.663 752.64C415.423 752.2 416.033 751.56 416.493 750.72C416.973 749.86 417.213 748.86 417.213 747.72Z" fill="black"/>
<path d="M150.663 772.2C151.883 772.46 152.863 773.07 153.603 774.03C154.343 774.97 154.713 776.05 154.713 777.27C154.713 779.03 154.093 780.43 152.853 781.47C151.633 782.49 149.923 783 147.723 783H137.913V761.94H147.393C149.533 761.94 151.203 762.43 152.403 763.41C153.623 764.39 154.233 765.72 154.233 767.4C154.233 768.64 153.903 769.67 153.243 770.49C152.603 771.31 151.743 771.88 150.663 772.2ZM143.043 770.46H146.403C147.243 770.46 147.883 770.28 148.323 769.92C148.783 769.54 149.013 768.99 149.013 768.27C149.013 767.55 148.783 767 148.323 766.62C147.883 766.24 147.243 766.05 146.403 766.05H143.043V770.46ZM146.823 778.86C147.683 778.86 148.343 778.67 148.803 778.29C149.283 777.89 149.523 777.32 149.523 776.58C149.523 775.84 149.273 775.26 148.773 774.84C148.293 774.42 147.623 774.21 146.763 774.21H143.043V778.86H146.823ZM170.798 779.28H162.938L161.678 783H156.308L163.928 761.94H169.868L177.488 783H172.058L170.798 779.28ZM169.478 775.32L166.868 767.61L164.288 775.32H169.478Z" fill="black"/>
<circle cx="734" cy="768" r="55" fill="white"/>
<circle cx="157" cy="768" r="55" fill="white"/>
<path d="M135.138 767.44C135.138 765.36 135.588 763.51 136.488 761.89C137.388 760.25 138.638 758.98 140.238 758.08C141.858 757.16 143.688 756.7 145.728 756.7C148.228 756.7 150.368 757.36 152.148 758.68C153.928 760 155.118 761.8 155.718 764.08H150.078C149.658 763.2 149.058 762.53 148.278 762.07C147.518 761.61 146.648 761.38 145.668 761.38C144.088 761.38 142.808 761.93 141.828 763.03C140.848 764.13 140.358 765.6 140.358 767.44C140.358 769.28 140.848 770.75 141.828 771.85C142.808 772.95 144.088 773.5 145.668 773.5C146.648 773.5 147.518 773.27 148.278 772.81C149.058 772.35 149.658 771.68 150.078 770.8H155.718C155.118 773.08 153.928 774.88 152.148 776.2C150.368 777.5 148.228 778.15 145.728 778.15C143.688 778.15 141.858 777.7 140.238 776.8C138.638 775.88 137.388 774.61 136.488 772.99C135.588 771.37 135.138 769.52 135.138 767.44ZM157.99 767.44C157.99 765.36 158.44 763.51 159.34 761.89C160.24 760.25 161.49 758.98 163.09 758.08C164.71 757.16 166.54 756.7 168.58 756.7C171.08 756.7 173.22 757.36 175 758.68C176.78 760 177.97 761.8 178.57 764.08H172.93C172.51 763.2 171.91 762.53 171.13 762.07C170.37 761.61 169.5 761.38 168.52 761.38C166.94 761.38 165.66 761.93 164.68 763.03C163.7 764.13 163.21 765.6 163.21 767.44C163.21 769.28 163.7 770.75 164.68 771.85C165.66 772.95 166.94 773.5 168.52 773.5C169.5 773.5 170.37 773.27 171.13 772.81C171.91 772.35 172.51 771.68 172.93 770.8H178.57C177.97 773.08 176.78 774.88 175 776.2C173.22 777.5 171.08 778.15 168.58 778.15C166.54 778.15 164.71 777.7 163.09 776.8C161.49 775.88 160.24 774.61 159.34 772.99C158.44 771.37 157.99 769.52 157.99 767.44Z" fill="black"/>
<rect width="891" height="131" transform="translate(0 899)" fill="#22B17E"/>
<path d="M373.313 951.2L365.073 979H359.913L354.073 957.96L347.873 979L342.753 979.04L334.873 951.2H339.713L345.473 973.84L351.713 951.2H356.833L362.633 973.72L368.433 951.2H373.313ZM381.634 951.2V979H377.074V951.2H381.634ZM405.581 951.2V954.92H398.181V979H393.621V954.92H386.181V951.2H405.581ZM432.399 951.2V979H427.839V966.84H414.759V979H410.199V951.2H414.759V963.12H427.839V951.2H432.399ZM447.482 951.2C450.442 951.2 453.029 951.773 455.242 952.92C457.482 954.04 459.202 955.667 460.402 957.8C461.629 959.907 462.242 962.373 462.242 965.2C462.242 968.027 461.629 970.48 460.402 972.56C459.202 974.64 457.482 976.24 455.242 977.36C453.029 978.453 450.442 979 447.482 979H438.402V951.2H447.482ZM447.482 975.28C450.736 975.28 453.229 974.4 454.962 972.64C456.696 970.88 457.562 968.4 457.562 965.2C457.562 961.973 456.696 959.453 454.962 957.64C453.229 955.827 450.736 954.92 447.482 954.92H442.962V975.28H447.482ZM481.202 979L474.802 967.88H471.322V979H466.762V951.2H476.362C478.495 951.2 480.295 951.573 481.762 952.32C483.255 953.067 484.362 954.067 485.082 955.32C485.828 956.573 486.202 957.973 486.202 959.52C486.202 961.333 485.668 962.987 484.602 964.48C483.562 965.947 481.948 966.947 479.762 967.48L486.642 979H481.202ZM471.322 964.24H476.362C478.068 964.24 479.348 963.813 480.202 962.96C481.082 962.107 481.522 960.96 481.522 959.52C481.522 958.08 481.095 956.96 480.242 956.16C479.388 955.333 478.095 954.92 476.362 954.92H471.322V964.24ZM508.795 973.32H497.155L495.155 979H490.395L500.355 951.16H505.635L515.595 979H510.795L508.795 973.32ZM507.515 969.6L502.995 956.68L498.435 969.6H507.515ZM556.126 951.2L547.886 979H542.726L536.886 957.96L530.686 979L525.566 979.04L517.686 951.2H522.526L528.286 973.84L534.526 951.2H539.646L545.446 973.72L551.246 951.2H556.126Z" fill="white"/>
</svg>
