<svg width="847" height="978" viewBox="0 0 847 978" fill="none" xmlns="http://www.w3.org/2000/svg">
<g clip-path="url(#clip0_56_123)">
<rect width="846.017" height="978" rx="66.466" fill="#E4EEFF"/>
<path d="M83.5976 172.03V212.023H73.8556V172.03H83.5976ZM105.641 172.03C109.857 172.03 113.541 172.865 116.693 174.536C119.846 176.208 122.276 178.562 123.986 181.601C125.733 184.601 126.606 188.077 126.606 192.027C126.606 195.939 125.733 199.414 123.986 202.452C122.276 205.491 119.827 207.845 116.636 209.517C113.484 211.188 109.819 212.023 105.641 212.023H90.6576V172.03H105.641ZM105.014 203.592C108.698 203.592 111.566 202.585 113.617 200.572C115.668 198.559 116.693 195.711 116.693 192.027C116.693 188.342 115.668 185.475 113.617 183.424C111.566 181.373 108.698 180.348 105.014 180.348H100.4V203.592H105.014ZM152.446 212.023L144.128 196.926H141.792V212.023H132.05V172.03H148.401C151.553 172.03 154.231 172.58 156.434 173.682C158.675 174.783 160.346 176.303 161.447 178.24C162.549 180.139 163.1 182.266 163.1 184.62C163.1 187.279 162.34 189.653 160.821 191.742C159.34 193.831 157.137 195.312 154.212 196.185L163.441 212.023H152.446ZM141.792 190.033H147.831C149.616 190.033 150.946 189.596 151.819 188.722C152.731 187.849 153.187 186.614 153.187 185.019C153.187 183.5 152.731 182.304 151.819 181.43C150.946 180.556 149.616 180.12 147.831 180.12H141.792V190.033ZM209.603 178.923H191.828V186.785C192.587 185.95 193.651 185.266 195.018 184.734C196.385 184.203 197.867 183.937 199.462 183.937C202.31 183.937 204.665 184.582 206.526 185.874C208.425 187.165 209.811 188.836 210.685 190.887C211.559 192.938 211.995 195.16 211.995 197.553C211.995 201.996 210.742 205.529 208.235 208.149C205.728 210.732 202.196 212.023 197.639 212.023C194.6 212.023 191.961 211.511 189.72 210.485C187.479 209.422 185.751 207.959 184.535 206.098C183.32 204.237 182.655 202.091 182.541 199.661H192.055C192.283 200.838 192.834 201.826 193.708 202.623C194.581 203.383 195.778 203.763 197.297 203.763C199.082 203.763 200.411 203.193 201.285 202.053C202.158 200.914 202.595 199.395 202.595 197.496C202.595 195.635 202.139 194.21 201.228 193.223C200.316 192.235 198.987 191.742 197.24 191.742C195.948 191.742 194.885 192.065 194.049 192.71C193.214 193.318 192.663 194.134 192.397 195.16H182.997V170.378H209.603V178.923ZM217.715 182.171C217.867 178.107 219.196 174.973 221.703 172.77C224.209 170.568 227.609 169.466 231.9 169.466C234.749 169.466 237.18 169.96 239.193 170.947C241.244 171.935 242.782 173.283 243.807 174.992C244.871 176.701 245.402 178.619 245.402 180.746C245.402 183.253 244.776 185.304 243.522 186.899C242.269 188.456 240.807 189.52 239.136 190.09V190.317C241.301 191.039 243.01 192.235 244.263 193.907C245.516 195.578 246.143 197.724 246.143 200.344C246.143 202.699 245.592 204.788 244.491 206.611C243.427 208.396 241.851 209.801 239.762 210.827C237.711 211.852 235.262 212.365 232.413 212.365C227.855 212.365 224.209 211.245 221.475 209.004C218.778 206.763 217.354 203.383 217.202 198.863H226.659C226.697 200.534 227.172 201.864 228.083 202.851C228.995 203.801 230.324 204.275 232.071 204.275C233.553 204.275 234.692 203.857 235.49 203.022C236.325 202.148 236.743 201.009 236.743 199.604C236.743 197.781 236.154 196.47 234.977 195.673C233.837 194.837 231.995 194.419 229.451 194.419H227.628V186.5H229.451C231.388 186.5 232.945 186.178 234.122 185.532C235.338 184.848 235.945 183.652 235.945 181.943C235.945 180.575 235.566 179.512 234.806 178.752C234.046 177.993 233.002 177.613 231.672 177.613C230.229 177.613 229.147 178.05 228.425 178.923C227.742 179.797 227.343 180.879 227.229 182.171H217.715ZM281.15 178.923H263.375V186.785C264.135 185.95 265.198 185.266 266.565 184.734C267.933 184.203 269.414 183.937 271.009 183.937C273.858 183.937 276.212 184.582 278.073 185.874C279.973 187.165 281.359 188.836 282.232 190.887C283.106 192.938 283.543 195.16 283.543 197.553C283.543 201.996 282.289 205.529 279.783 208.149C277.276 210.732 273.744 212.023 269.186 212.023C266.148 212.023 263.508 211.511 261.267 210.485C259.026 209.422 257.298 207.959 256.083 206.098C254.867 204.237 254.203 202.091 254.089 199.661H263.603C263.831 200.838 264.381 201.826 265.255 202.623C266.129 203.383 267.325 203.763 268.844 203.763C270.629 203.763 271.959 203.193 272.832 202.053C273.706 200.914 274.142 199.395 274.142 197.496C274.142 195.635 273.687 194.21 272.775 193.223C271.864 192.235 270.534 191.742 268.787 191.742C267.496 191.742 266.432 192.065 265.597 192.71C264.761 193.318 264.211 194.134 263.945 195.16H254.545V170.378H281.15V178.923ZM294.446 212.479C292.737 212.479 291.332 211.985 290.231 210.998C289.167 209.972 288.635 208.719 288.635 207.238C288.635 205.719 289.167 204.446 290.231 203.421C291.332 202.395 292.737 201.882 294.446 201.882C296.118 201.882 297.485 202.395 298.548 203.421C299.65 204.446 300.2 205.719 300.2 207.238C300.2 208.719 299.65 209.972 298.548 210.998C297.485 211.985 296.118 212.479 294.446 212.479ZM304.999 190.659C304.999 184.127 306.252 178.98 308.759 175.22C311.304 171.46 315.387 169.58 321.008 169.58C326.629 169.58 330.693 171.46 333.199 175.22C335.744 178.98 337.017 184.127 337.017 190.659C337.017 197.268 335.744 202.452 333.199 206.212C330.693 209.972 326.629 211.852 321.008 211.852C315.387 211.852 311.304 209.972 308.759 206.212C306.252 202.452 304.999 197.268 304.999 190.659ZM327.445 190.659C327.445 186.823 327.028 183.88 326.192 181.829C325.356 179.74 323.628 178.695 321.008 178.695C318.387 178.695 316.659 179.74 315.823 181.829C314.988 183.88 314.57 186.823 314.57 190.659C314.57 193.242 314.722 195.388 315.026 197.097C315.33 198.768 315.937 200.135 316.849 201.199C317.798 202.224 319.185 202.737 321.008 202.737C322.831 202.737 324.198 202.224 325.11 201.199C326.059 200.135 326.686 198.768 326.99 197.097C327.294 195.388 327.445 193.242 327.445 190.659ZM342.164 190.659C342.164 184.127 343.417 178.98 345.924 175.22C348.468 171.46 352.551 169.58 358.172 169.58C363.793 169.58 367.857 171.46 370.364 175.22C372.909 178.98 374.181 184.127 374.181 190.659C374.181 197.268 372.909 202.452 370.364 206.212C367.857 209.972 363.793 211.852 358.172 211.852C352.551 211.852 348.468 209.972 345.924 206.212C343.417 202.452 342.164 197.268 342.164 190.659ZM364.61 190.659C364.61 186.823 364.192 183.88 363.357 181.829C362.521 179.74 360.793 178.695 358.172 178.695C355.552 178.695 353.824 179.74 352.988 181.829C352.152 183.88 351.735 186.823 351.735 190.659C351.735 193.242 351.887 195.388 352.19 197.097C352.494 198.768 353.102 200.135 354.013 201.199C354.963 202.224 356.349 202.737 358.172 202.737C359.995 202.737 361.363 202.224 362.274 201.199C363.224 200.135 363.85 198.768 364.154 197.097C364.458 195.388 364.61 193.242 364.61 190.659ZM379.328 190.659C379.328 184.127 380.581 178.98 383.088 175.22C385.633 171.46 389.716 169.58 395.337 169.58C400.958 169.58 405.022 171.46 407.529 175.22C410.073 178.98 411.346 184.127 411.346 190.659C411.346 197.268 410.073 202.452 407.529 206.212C405.022 209.972 400.958 211.852 395.337 211.852C389.716 211.852 385.633 209.972 383.088 206.212C380.581 202.452 379.328 197.268 379.328 190.659ZM401.775 190.659C401.775 186.823 401.357 183.88 400.521 181.829C399.686 179.74 397.958 178.695 395.337 178.695C392.716 178.695 390.988 179.74 390.153 181.829C389.317 183.88 388.899 186.823 388.899 190.659C388.899 193.242 389.051 195.388 389.355 197.097C389.659 198.768 390.266 200.135 391.178 201.199C392.128 202.224 393.514 202.737 395.337 202.737C397.16 202.737 398.527 202.224 399.439 201.199C400.388 200.135 401.015 198.768 401.319 197.097C401.623 195.388 401.775 193.242 401.775 190.659Z" fill="black"/>
<path d="M84.6456 120.008H76.3563L74.932 124.052H71.5423L78.6352 104.227H82.3952L89.4881 124.052H86.0699L84.6456 120.008ZM83.734 117.358L80.5152 108.158L77.2679 117.358H83.734ZM111.572 108.101C112.806 108.101 113.908 108.357 114.876 108.87C115.864 109.382 116.633 110.142 117.184 111.149C117.753 112.155 118.038 113.37 118.038 114.795V124.052H114.819V115.279C114.819 113.874 114.468 112.801 113.765 112.06C113.063 111.301 112.104 110.921 110.888 110.921C109.673 110.921 108.704 111.301 107.983 112.06C107.28 112.801 106.929 113.874 106.929 115.279V124.052H103.71V115.279C103.71 113.874 103.359 112.801 102.656 112.06C101.953 111.301 100.994 110.921 99.7789 110.921C98.5635 110.921 97.595 111.301 96.8734 112.06C96.1708 112.801 95.8194 113.874 95.8194 115.279V124.052H92.5721V108.357H95.8194V110.152C96.3512 109.506 97.0253 109.003 97.8419 108.642C98.6585 108.281 99.532 108.101 100.463 108.101C101.716 108.101 102.836 108.367 103.824 108.898C104.811 109.43 105.571 110.199 106.103 111.206C106.577 110.256 107.318 109.506 108.325 108.955C109.331 108.385 110.413 108.101 111.572 108.101ZM128.978 124.309C127.497 124.309 126.158 123.977 124.962 123.312C123.765 122.628 122.825 121.679 122.142 120.463C121.458 119.229 121.116 117.805 121.116 116.191C121.116 114.595 121.468 113.181 122.17 111.946C122.873 110.712 123.832 109.762 125.047 109.098C126.263 108.433 127.62 108.101 129.121 108.101C130.621 108.101 131.979 108.433 133.194 109.098C134.409 109.762 135.369 110.712 136.071 111.946C136.774 113.181 137.125 114.595 137.125 116.191C137.125 117.786 136.764 119.2 136.043 120.435C135.321 121.669 134.334 122.628 133.08 123.312C131.846 123.977 130.479 124.309 128.978 124.309ZM128.978 121.489C129.814 121.489 130.592 121.289 131.314 120.891C132.055 120.492 132.653 119.894 133.109 119.096C133.564 118.298 133.792 117.33 133.792 116.191C133.792 115.051 133.574 114.092 133.137 113.313C132.7 112.516 132.121 111.918 131.4 111.519C130.678 111.12 129.899 110.921 129.064 110.921C128.228 110.921 127.45 111.12 126.728 111.519C126.025 111.918 125.465 112.516 125.047 113.313C124.629 114.092 124.421 115.051 124.421 116.191C124.421 117.881 124.848 119.191 125.702 120.121C126.576 121.033 127.668 121.489 128.978 121.489ZM154.55 108.357V124.052H151.302V122.201C150.789 122.847 150.115 123.359 149.28 123.739C148.463 124.1 147.59 124.28 146.659 124.28C145.425 124.28 144.314 124.024 143.326 123.511C142.358 122.999 141.589 122.239 141.019 121.232C140.468 120.226 140.193 119.011 140.193 117.586V108.357H143.412V117.102C143.412 118.507 143.763 119.59 144.466 120.349C145.168 121.09 146.127 121.46 147.343 121.46C148.558 121.46 149.517 121.09 150.22 120.349C150.941 119.59 151.302 118.507 151.302 117.102V108.357H154.55ZM166.753 108.101C167.987 108.101 169.089 108.357 170.057 108.87C171.045 109.382 171.814 110.142 172.365 111.149C172.915 112.155 173.191 113.37 173.191 114.795V124.052H169.972V115.279C169.972 113.874 169.621 112.801 168.918 112.06C168.215 111.301 167.256 110.921 166.041 110.921C164.826 110.921 163.857 111.301 163.135 112.06C162.433 112.801 162.081 113.874 162.081 115.279V124.052H158.834V108.357H162.081V110.152C162.613 109.506 163.287 109.003 164.104 108.642C164.939 108.281 165.823 108.101 166.753 108.101ZM181.122 111.006V119.694C181.122 120.283 181.254 120.71 181.52 120.976C181.805 121.223 182.28 121.346 182.945 121.346H184.939V124.052H182.375C180.913 124.052 179.792 123.711 179.014 123.027C178.235 122.343 177.846 121.232 177.846 119.694V111.006H175.994V108.357H177.846V104.455H181.122V108.357H184.939V111.006H181.122Z" fill="#919CAF"/>
<path d="M84.4202 276.677H76.131L74.7067 280.722H71.3169L78.4098 260.896H82.1699L89.2628 280.722H85.8445L84.4202 276.677ZM83.5087 274.028L80.2899 264.827L77.0425 274.028H83.5087ZM98.4142 277.817L102.858 265.027H106.305L100.323 280.722H96.4487L90.4952 265.027H93.9704L98.4142 277.817ZM107.677 272.803C107.677 271.227 108 269.831 108.645 268.616C109.31 267.401 110.203 266.461 111.323 265.796C112.462 265.112 113.716 264.77 115.083 264.77C116.317 264.77 117.39 265.017 118.302 265.511C119.232 265.986 119.973 266.584 120.524 267.306V265.027H123.8V280.722H120.524V278.386C119.973 279.127 119.223 279.744 118.273 280.238C117.324 280.732 116.241 280.979 115.026 280.979C113.678 280.979 112.443 280.637 111.323 279.953C110.203 279.251 109.31 278.282 108.645 277.048C108 275.794 107.677 274.38 107.677 272.803ZM120.524 272.86C120.524 271.778 120.296 270.838 119.84 270.04C119.403 269.243 118.824 268.635 118.102 268.217C117.381 267.799 116.602 267.591 115.767 267.591C114.931 267.591 114.153 267.799 113.431 268.217C112.709 268.616 112.121 269.214 111.665 270.012C111.228 270.79 111.01 271.721 111.01 272.803C111.01 273.886 111.228 274.835 111.665 275.652C112.121 276.468 112.709 277.095 113.431 277.532C114.171 277.95 114.95 278.159 115.767 278.159C116.602 278.159 117.381 277.95 118.102 277.532C118.824 277.114 119.403 276.506 119.84 275.709C120.296 274.892 120.524 273.943 120.524 272.86ZM129.717 262.947C129.128 262.947 128.635 262.748 128.236 262.349C127.837 261.95 127.638 261.457 127.638 260.868C127.638 260.279 127.837 259.785 128.236 259.387C128.635 258.988 129.128 258.789 129.717 258.789C130.287 258.789 130.771 258.988 131.17 259.387C131.569 259.785 131.768 260.279 131.768 260.868C131.768 261.457 131.569 261.95 131.17 262.349C130.771 262.748 130.287 262.947 129.717 262.947ZM131.312 265.027V280.722H128.065V265.027H131.312ZM138.823 259.643V280.722H135.576V259.643H138.823ZM142.004 272.803C142.004 271.227 142.327 269.831 142.973 268.616C143.637 267.401 144.53 266.461 145.65 265.796C146.79 265.112 148.043 264.77 149.41 264.77C150.645 264.77 151.718 265.017 152.629 265.511C153.56 265.986 154.3 266.584 154.851 267.306V265.027H158.127V280.722H154.851V278.386C154.3 279.127 153.55 279.744 152.601 280.238C151.651 280.732 150.569 280.979 149.353 280.979C148.005 280.979 146.771 280.637 145.65 279.953C144.53 279.251 143.637 278.282 142.973 277.048C142.327 275.794 142.004 274.38 142.004 272.803ZM154.851 272.86C154.851 271.778 154.623 270.838 154.167 270.04C153.731 269.243 153.151 268.635 152.43 268.217C151.708 267.799 150.929 267.591 150.094 267.591C149.258 267.591 148.48 267.799 147.758 268.217C147.036 268.616 146.448 269.214 145.992 270.012C145.555 270.79 145.337 271.721 145.337 272.803C145.337 273.886 145.555 274.835 145.992 275.652C146.448 276.468 147.036 277.095 147.758 277.532C148.499 277.95 149.277 278.159 150.094 278.159C150.929 278.159 151.708 277.95 152.43 277.532C153.151 277.114 153.731 276.506 154.167 275.709C154.623 274.892 154.851 273.943 154.851 272.86ZM165.639 267.363C166.19 266.603 166.94 265.986 167.89 265.511C168.858 265.017 169.931 264.77 171.109 264.77C172.495 264.77 173.748 265.103 174.869 265.767C175.989 266.432 176.872 267.382 177.518 268.616C178.163 269.831 178.486 271.227 178.486 272.803C178.486 274.38 178.163 275.794 177.518 277.048C176.872 278.282 175.98 279.251 174.84 279.953C173.72 280.637 172.476 280.979 171.109 280.979C169.893 280.979 168.811 280.741 167.861 280.267C166.931 279.792 166.19 279.184 165.639 278.443V280.722H162.392V259.643H165.639V267.363ZM175.182 272.803C175.182 271.721 174.954 270.79 174.498 270.012C174.062 269.214 173.473 268.616 172.732 268.217C172.011 267.799 171.232 267.591 170.396 267.591C169.58 267.591 168.801 267.799 168.061 268.217C167.339 268.635 166.75 269.243 166.295 270.04C165.858 270.838 165.639 271.778 165.639 272.86C165.639 273.943 165.858 274.892 166.295 275.709C166.75 276.506 167.339 277.114 168.061 277.532C168.801 277.95 169.58 278.159 170.396 278.159C171.232 278.159 172.011 277.95 172.732 277.532C173.473 277.095 174.062 276.468 174.498 275.652C174.954 274.835 175.182 273.886 175.182 272.803ZM184.945 259.643V280.722H181.698V259.643H184.945ZM203.594 272.49C203.594 273.079 203.556 273.61 203.48 274.085H191.487C191.582 275.339 192.047 276.345 192.883 277.105C193.719 277.864 194.744 278.244 195.959 278.244C197.707 278.244 198.941 277.513 199.663 276.051H203.166C202.691 277.494 201.827 278.681 200.574 279.611C199.34 280.523 197.801 280.979 195.959 280.979C194.459 280.979 193.111 280.646 191.914 279.982C190.737 279.298 189.807 278.349 189.123 277.133C188.458 275.899 188.126 274.474 188.126 272.86C188.126 271.246 188.449 269.831 189.094 268.616C189.759 267.382 190.68 266.432 191.858 265.767C193.054 265.103 194.421 264.77 195.959 264.77C197.441 264.77 198.76 265.093 199.919 265.739C201.077 266.385 201.979 267.296 202.625 268.474C203.271 269.632 203.594 270.971 203.594 272.49ZM200.204 271.465C200.185 270.268 199.757 269.309 198.922 268.587C198.086 267.866 197.051 267.505 195.817 267.505C194.697 267.505 193.738 267.866 192.94 268.587C192.142 269.29 191.668 270.249 191.516 271.465H200.204ZM217.436 267.363C217.987 266.603 218.737 265.986 219.686 265.511C220.655 265.017 221.728 264.77 222.905 264.77C224.292 264.77 225.545 265.103 226.665 265.767C227.786 266.432 228.669 267.382 229.315 268.616C229.96 269.831 230.283 271.227 230.283 272.803C230.283 274.38 229.96 275.794 229.315 277.048C228.669 278.282 227.776 279.251 226.637 279.953C225.516 280.637 224.273 280.979 222.905 280.979C221.69 280.979 220.607 280.741 219.658 280.267C218.727 279.792 217.987 279.184 217.436 278.443V280.722H214.189V259.643H217.436V267.363ZM226.979 272.803C226.979 271.721 226.751 270.79 226.295 270.012C225.858 269.214 225.27 268.616 224.529 268.217C223.807 267.799 223.029 267.591 222.193 267.591C221.377 267.591 220.598 267.799 219.857 268.217C219.136 268.635 218.547 269.243 218.091 270.04C217.654 270.838 217.436 271.778 217.436 272.86C217.436 273.943 217.654 274.892 218.091 275.709C218.547 276.506 219.136 277.114 219.857 277.532C220.598 277.95 221.377 278.159 222.193 278.159C223.029 278.159 223.807 277.95 224.529 277.532C225.27 277.095 225.858 276.468 226.295 275.652C226.751 274.835 226.979 273.886 226.979 272.803ZM232.412 272.803C232.412 271.227 232.735 269.831 233.38 268.616C234.045 267.401 234.938 266.461 236.058 265.796C237.197 265.112 238.451 264.77 239.818 264.77C241.052 264.77 242.125 265.017 243.037 265.511C243.967 265.986 244.708 266.584 245.259 267.306V265.027H248.535V280.722H245.259V278.386C244.708 279.127 243.958 279.744 243.008 280.238C242.059 280.732 240.976 280.979 239.761 280.979C238.413 280.979 237.178 280.637 236.058 279.953C234.938 279.251 234.045 278.282 233.38 277.048C232.735 275.794 232.412 274.38 232.412 272.803ZM245.259 272.86C245.259 271.778 245.031 270.838 244.575 270.04C244.138 269.243 243.559 268.635 242.838 268.217C242.116 267.799 241.337 267.591 240.502 267.591C239.666 267.591 238.888 267.799 238.166 268.217C237.444 268.616 236.856 269.214 236.4 270.012C235.963 270.79 235.745 271.721 235.745 272.803C235.745 273.886 235.963 274.835 236.4 275.652C236.856 276.468 237.444 277.095 238.166 277.532C238.907 277.95 239.685 278.159 240.502 278.159C241.337 278.159 242.116 277.95 242.838 277.532C243.559 277.114 244.138 276.506 244.575 275.709C245.031 274.892 245.259 273.943 245.259 272.86ZM256.047 259.643V280.722H252.8V259.643H256.047ZM259.228 272.803C259.228 271.227 259.551 269.831 260.197 268.616C260.861 267.401 261.754 266.461 262.874 265.796C264.014 265.112 265.267 264.77 266.634 264.77C267.869 264.77 268.942 265.017 269.853 265.511C270.784 265.986 271.524 266.584 272.075 267.306V265.027H275.351V280.722H272.075V278.386C271.524 279.127 270.774 279.744 269.825 280.238C268.875 280.732 267.793 280.979 266.577 280.979C265.229 280.979 263.995 280.637 262.874 279.953C261.754 279.251 260.861 278.282 260.197 277.048C259.551 275.794 259.228 274.38 259.228 272.803ZM272.075 272.86C272.075 271.778 271.847 270.838 271.392 270.04C270.955 269.243 270.376 268.635 269.654 268.217C268.932 267.799 268.154 267.591 267.318 267.591C266.483 267.591 265.704 267.799 264.982 268.217C264.261 268.616 263.672 269.214 263.216 270.012C262.779 270.79 262.561 271.721 262.561 272.803C262.561 273.886 262.779 274.835 263.216 275.652C263.672 276.468 264.261 277.095 264.982 277.532C265.723 277.95 266.502 278.159 267.318 278.159C268.154 278.159 268.932 277.95 269.654 277.532C270.376 277.114 270.955 276.506 271.392 275.709C271.847 274.892 272.075 273.943 272.075 272.86ZM287.535 264.77C288.77 264.77 289.871 265.027 290.84 265.54C291.827 266.052 292.596 266.812 293.147 267.818C293.698 268.825 293.973 270.04 293.973 271.465V280.722H290.754V271.949C290.754 270.543 290.403 269.471 289.7 268.73C288.997 267.97 288.038 267.591 286.823 267.591C285.608 267.591 284.639 267.97 283.918 268.73C283.215 269.471 282.864 270.543 282.864 271.949V280.722H279.616V265.027H282.864V266.821C283.395 266.176 284.069 265.672 284.886 265.312C285.722 264.951 286.605 264.77 287.535 264.77ZM297.033 272.86C297.033 271.246 297.355 269.831 298.001 268.616C298.666 267.382 299.577 266.432 300.736 265.767C301.894 265.103 303.223 264.77 304.724 264.77C306.623 264.77 308.189 265.226 309.424 266.138C310.677 267.03 311.522 268.312 311.959 269.983H308.455C308.17 269.205 307.715 268.597 307.088 268.16C306.461 267.723 305.673 267.505 304.724 267.505C303.394 267.505 302.331 267.98 301.533 268.929C300.755 269.86 300.365 271.17 300.365 272.86C300.365 274.55 300.755 275.87 301.533 276.82C302.331 277.769 303.394 278.244 304.724 278.244C306.604 278.244 307.848 277.418 308.455 275.766H311.959C311.503 277.361 310.649 278.633 309.395 279.583C308.142 280.513 306.585 280.979 304.724 280.979C303.223 280.979 301.894 280.646 300.736 279.982C299.577 279.298 298.666 278.349 298.001 277.133C297.355 275.899 297.033 274.474 297.033 272.86ZM329.58 272.49C329.58 273.079 329.542 273.61 329.466 274.085H317.474C317.569 275.339 318.034 276.345 318.87 277.105C319.705 277.864 320.731 278.244 321.946 278.244C323.693 278.244 324.928 277.513 325.649 276.051H329.153C328.678 277.494 327.814 278.681 326.561 279.611C325.327 280.523 323.788 280.979 321.946 280.979C320.446 280.979 319.098 280.646 317.901 279.982C316.724 279.298 315.793 278.349 315.11 277.133C314.445 275.899 314.113 274.474 314.113 272.86C314.113 271.246 314.436 269.831 315.081 268.616C315.746 267.382 316.667 266.432 317.844 265.767C319.041 265.103 320.408 264.77 321.946 264.77C323.428 264.77 324.747 265.093 325.906 265.739C327.064 266.385 327.966 267.296 328.612 268.474C329.258 269.632 329.58 270.971 329.58 272.49ZM326.191 271.465C326.172 270.268 325.744 269.309 324.909 268.587C324.073 267.866 323.038 267.505 321.804 267.505C320.683 267.505 319.724 267.866 318.927 268.587C318.129 269.29 317.654 270.249 317.503 271.465H326.191ZM343.423 260.925V280.722H340.176V260.925H343.423ZM354.153 260.925C356.261 260.925 358.103 261.333 359.679 262.15C361.274 262.947 362.499 264.106 363.353 265.625C364.227 267.125 364.664 268.882 364.664 270.895C364.664 272.908 364.227 274.655 363.353 276.136C362.499 277.617 361.274 278.757 359.679 279.554C358.103 280.333 356.261 280.722 354.153 280.722H347.686V260.925H354.153ZM354.153 278.073C356.469 278.073 358.245 277.446 359.479 276.193C360.714 274.94 361.331 273.174 361.331 270.895C361.331 268.597 360.714 266.802 359.479 265.511C358.245 264.22 356.469 263.574 354.153 263.574H350.934V278.073H354.153ZM378.165 280.722L373.608 272.803H371.13V280.722H367.882V260.925H374.719C376.238 260.925 377.52 261.191 378.564 261.723C379.628 262.254 380.416 262.966 380.928 263.859C381.46 264.751 381.726 265.748 381.726 266.85C381.726 268.141 381.346 269.319 380.587 270.382C379.846 271.427 378.697 272.139 377.14 272.518L382.039 280.722H378.165ZM371.13 270.211H374.719C375.934 270.211 376.846 269.907 377.453 269.3C378.08 268.692 378.393 267.875 378.393 266.85C378.393 265.824 378.089 265.027 377.482 264.457C376.874 263.868 375.953 263.574 374.719 263.574H371.13V270.211ZM406.013 262.463L398.094 280.722H394.818L402.822 262.805H392.283V260.042H406.013V262.463ZM412.296 269.869C410.321 268.882 409.333 267.325 409.333 265.198C409.333 264.172 409.59 263.232 410.102 262.378C410.615 261.523 411.384 260.849 412.41 260.355C413.435 259.842 414.689 259.586 416.17 259.586C417.632 259.586 418.876 259.842 419.901 260.355C420.946 260.849 421.725 261.523 422.237 262.378C422.75 263.232 423.006 264.172 423.006 265.198C423.006 266.261 422.731 267.201 422.18 268.018C421.649 268.815 420.936 269.433 420.044 269.869C421.126 270.268 421.981 270.923 422.608 271.835C423.234 272.727 423.548 273.781 423.548 274.997C423.548 276.231 423.234 277.323 422.608 278.273C421.981 279.222 421.107 279.953 419.987 280.466C418.867 280.979 417.594 281.235 416.17 281.235C414.746 281.235 413.473 280.979 412.353 280.466C411.251 279.953 410.387 279.222 409.761 278.273C409.134 277.323 408.821 276.231 408.821 274.997C408.821 273.762 409.134 272.699 409.761 271.806C410.387 270.914 411.232 270.268 412.296 269.869ZM419.901 265.597C419.901 264.533 419.569 263.716 418.904 263.147C418.24 262.577 417.328 262.292 416.17 262.292C415.03 262.292 414.128 262.577 413.464 263.147C412.799 263.716 412.467 264.543 412.467 265.625C412.467 266.575 412.809 267.353 413.492 267.961C414.195 268.55 415.087 268.844 416.17 268.844C417.252 268.844 418.145 268.54 418.848 267.932C419.55 267.325 419.901 266.546 419.901 265.597ZM416.17 271.294C414.917 271.294 413.891 271.607 413.093 272.234C412.315 272.841 411.926 273.724 411.926 274.883C411.926 275.965 412.305 276.848 413.065 277.532C413.825 278.197 414.86 278.529 416.17 278.529C417.461 278.529 418.477 278.187 419.218 277.503C419.977 276.82 420.357 275.946 420.357 274.883C420.357 273.743 419.968 272.86 419.189 272.234C418.43 271.607 417.423 271.294 416.17 271.294ZM440.345 262.748H430.803V268.417C431.202 267.885 431.79 267.439 432.569 267.078C433.366 266.717 434.211 266.537 435.104 266.537C436.699 266.537 437.991 266.878 438.978 267.562C439.985 268.246 440.697 269.11 441.114 270.154C441.551 271.199 441.77 272.3 441.77 273.459C441.77 274.864 441.494 276.117 440.944 277.219C440.412 278.301 439.605 279.156 438.522 279.782C437.459 280.409 436.149 280.722 434.591 280.722C432.521 280.722 430.86 280.21 429.606 279.184C428.353 278.159 427.603 276.801 427.356 275.111H430.518C430.727 276.003 431.192 276.715 431.914 277.247C432.635 277.76 433.537 278.016 434.62 278.016C435.968 278.016 436.975 277.608 437.639 276.791C438.323 275.975 438.665 274.892 438.665 273.544C438.665 272.177 438.323 271.132 437.639 270.411C436.956 269.67 435.949 269.3 434.62 269.3C433.689 269.3 432.901 269.537 432.255 270.012C431.629 270.468 431.173 271.094 430.888 271.892H427.812V259.899H440.345V262.748ZM446.888 280.922C446.299 280.922 445.805 280.722 445.406 280.323C445.008 279.925 444.808 279.431 444.808 278.842C444.808 278.254 445.008 277.76 445.406 277.361C445.805 276.962 446.299 276.763 446.888 276.763C447.457 276.763 447.942 276.962 448.34 277.361C448.739 277.76 448.939 278.254 448.939 278.842C448.939 279.431 448.739 279.925 448.34 280.323C447.942 280.722 447.457 280.922 446.888 280.922ZM452.021 270.069C452.021 266.783 452.572 264.22 453.673 262.378C454.794 260.517 456.712 259.586 459.427 259.586C462.143 259.586 464.051 260.517 465.153 262.378C466.273 264.22 466.833 266.783 466.833 270.069C466.833 273.392 466.273 275.994 465.153 277.874C464.051 279.735 462.143 280.665 459.427 280.665C456.712 280.665 454.794 279.735 453.673 277.874C452.572 275.994 452.021 273.392 452.021 270.069ZM463.643 270.069C463.643 268.531 463.539 267.23 463.33 266.166C463.14 265.103 462.741 264.239 462.133 263.574C461.526 262.89 460.624 262.549 459.427 262.549C458.231 262.549 457.329 262.89 456.721 263.574C456.113 264.239 455.705 265.103 455.496 266.166C455.306 267.23 455.211 268.531 455.211 270.069C455.211 271.664 455.306 273.003 455.496 274.085C455.686 275.168 456.085 276.041 456.693 276.706C457.319 277.371 458.231 277.703 459.427 277.703C460.624 277.703 461.526 277.371 462.133 276.706C462.76 276.041 463.168 275.168 463.358 274.085C463.548 273.003 463.643 271.664 463.643 270.069ZM470.27 270.069C470.27 266.783 470.82 264.22 471.922 262.378C473.042 260.517 474.96 259.586 477.676 259.586C480.391 259.586 482.3 260.517 483.401 262.378C484.522 264.22 485.082 266.783 485.082 270.069C485.082 273.392 484.522 275.994 483.401 277.874C482.3 279.735 480.391 280.665 477.676 280.665C474.96 280.665 473.042 279.735 471.922 277.874C470.82 275.994 470.27 273.392 470.27 270.069ZM481.892 270.069C481.892 268.531 481.787 267.23 481.578 266.166C481.388 265.103 480.99 264.239 480.382 263.574C479.774 262.89 478.872 262.549 477.676 262.549C476.479 262.549 475.577 262.89 474.97 263.574C474.362 264.239 473.954 265.103 473.745 266.166C473.555 267.23 473.46 268.531 473.46 270.069C473.46 271.664 473.555 273.003 473.745 274.085C473.935 275.168 474.333 276.041 474.941 276.706C475.568 277.371 476.479 277.703 477.676 277.703C478.872 277.703 479.774 277.371 480.382 276.706C481.009 276.041 481.417 275.168 481.607 274.085C481.797 273.003 481.892 271.664 481.892 270.069ZM488.518 270.069C488.518 266.783 489.069 264.22 490.17 262.378C491.291 260.517 493.209 259.586 495.924 259.586C498.64 259.586 500.548 260.517 501.65 262.378C502.77 264.22 503.33 266.783 503.33 270.069C503.33 273.392 502.77 275.994 501.65 277.874C500.548 279.735 498.64 280.665 495.924 280.665C493.209 280.665 491.291 279.735 490.17 277.874C489.069 275.994 488.518 273.392 488.518 270.069ZM500.14 270.069C500.14 268.531 500.036 267.23 499.827 266.166C499.637 265.103 499.238 264.239 498.63 263.574C498.023 262.89 497.121 262.549 495.924 262.549C494.728 262.549 493.826 262.89 493.218 263.574C492.61 264.239 492.202 265.103 491.993 266.166C491.803 267.23 491.708 268.531 491.708 270.069C491.708 271.664 491.803 273.003 491.993 274.085C492.183 275.168 492.582 276.041 493.19 276.706C493.816 277.371 494.728 277.703 495.924 277.703C497.121 277.703 498.023 277.371 498.63 276.706C499.257 276.041 499.665 275.168 499.855 274.085C500.045 273.003 500.14 271.664 500.14 270.069Z" fill="#919CAF"/>
<path d="M71.2755 412.173C71.2755 410.198 71.7028 408.441 72.5573 406.903C73.4119 405.346 74.5988 404.14 76.118 403.286C77.6562 402.412 79.3938 401.975 81.3308 401.975C83.7046 401.975 85.7366 402.602 87.4267 403.855C89.1169 405.109 90.2468 406.818 90.8165 408.983H85.4612C85.0624 408.147 84.4927 407.511 83.7521 407.074C83.0305 406.637 82.2044 406.419 81.2739 406.419C79.7736 406.419 78.5583 406.941 77.6277 407.986C76.6972 409.03 76.232 410.426 76.232 412.173C76.232 413.92 76.6972 415.316 77.6277 416.36C78.5583 417.405 79.7736 417.927 81.2739 417.927C82.2044 417.927 83.0305 417.709 83.7521 417.272C84.4927 416.835 85.0624 416.199 85.4612 415.363H90.8165C90.2468 417.528 89.1169 419.237 87.4267 420.491C85.7366 421.725 83.7046 422.342 81.3308 422.342C79.3938 422.342 77.6562 421.915 76.118 421.061C74.5988 420.187 73.4119 418.981 72.5573 417.443C71.7028 415.905 71.2755 414.148 71.2755 412.173ZM111.119 402.203V422.2H106.248V413.968H98.6705V422.2H93.7995V402.203H98.6705V410.037H106.248V402.203H111.119ZM124.092 422.399C122.212 422.399 120.484 421.963 118.908 421.089C117.351 420.215 116.107 419 115.176 417.443C114.265 415.867 113.809 414.101 113.809 412.145C113.809 410.189 114.265 408.432 115.176 406.875C116.107 405.318 117.351 404.102 118.908 403.229C120.484 402.355 122.212 401.918 124.092 401.918C125.972 401.918 127.691 402.355 129.248 403.229C130.824 404.102 132.059 405.318 132.951 406.875C133.863 408.432 134.318 410.189 134.318 412.145C134.318 414.101 133.863 415.867 132.951 417.443C132.04 419 130.805 420.215 129.248 421.089C127.691 421.963 125.972 422.399 124.092 422.399ZM124.092 417.956C125.687 417.956 126.96 417.424 127.909 416.36C128.878 415.297 129.362 413.892 129.362 412.145C129.362 410.378 128.878 408.973 127.909 407.929C126.96 406.865 125.687 406.334 124.092 406.334C122.478 406.334 121.187 406.856 120.218 407.9C119.269 408.945 118.794 410.36 118.794 412.145C118.794 413.911 119.269 415.325 120.218 416.389C121.187 417.433 122.478 417.956 124.092 417.956ZM146.485 422.399C144.605 422.399 142.877 421.963 141.301 421.089C139.744 420.215 138.5 419 137.57 417.443C136.658 415.867 136.202 414.101 136.202 412.145C136.202 410.189 136.658 408.432 137.57 406.875C138.5 405.318 139.744 404.102 141.301 403.229C142.877 402.355 144.605 401.918 146.485 401.918C148.366 401.918 150.084 402.355 151.641 403.229C153.218 404.102 154.452 405.318 155.344 406.875C156.256 408.432 156.712 410.189 156.712 412.145C156.712 414.101 156.256 415.867 155.344 417.443C154.433 419 153.199 420.215 151.641 421.089C150.084 421.963 148.366 422.399 146.485 422.399ZM146.485 417.956C148.081 417.956 149.353 417.424 150.303 416.36C151.271 415.297 151.755 413.892 151.755 412.145C151.755 410.378 151.271 408.973 150.303 407.929C149.353 406.865 148.081 406.334 146.485 406.334C144.871 406.334 143.58 406.856 142.611 407.9C141.662 408.945 141.187 410.36 141.187 412.145C141.187 413.911 141.662 415.325 142.611 416.389C143.58 417.433 144.871 417.956 146.485 417.956ZM166.657 422.399C165.195 422.399 163.884 422.162 162.726 421.687C161.568 421.212 160.637 420.51 159.934 419.579C159.251 418.649 158.89 417.528 158.852 416.218H164.036C164.112 416.959 164.369 417.528 164.805 417.927C165.242 418.307 165.812 418.497 166.515 418.497C167.236 418.497 167.806 418.335 168.224 418.013C168.641 417.671 168.85 417.206 168.85 416.617C168.85 416.123 168.679 415.715 168.338 415.392C168.015 415.069 167.606 414.803 167.113 414.594C166.638 414.385 165.954 414.148 165.062 413.882C163.77 413.483 162.716 413.085 161.9 412.686C161.083 412.287 160.381 411.698 159.792 410.92C159.203 410.141 158.909 409.125 158.909 407.872C158.909 406.011 159.583 404.558 160.931 403.514C162.28 402.45 164.036 401.918 166.201 401.918C168.404 401.918 170.18 402.45 171.528 403.514C172.876 404.558 173.598 406.02 173.693 407.9H168.423C168.385 407.255 168.148 406.751 167.711 406.391C167.274 406.011 166.714 405.821 166.03 405.821C165.442 405.821 164.967 405.982 164.606 406.305C164.245 406.609 164.065 407.055 164.065 407.644C164.065 408.29 164.369 408.793 164.976 409.154C165.584 409.514 166.534 409.904 167.825 410.322C169.116 410.758 170.161 411.176 170.958 411.575C171.775 411.974 172.477 412.553 173.066 413.312C173.655 414.072 173.949 415.05 173.949 416.246C173.949 417.386 173.655 418.421 173.066 419.351C172.496 420.282 171.661 421.023 170.559 421.573C169.458 422.124 168.157 422.399 166.657 422.399ZM181.818 406.106V410.151H188.341V413.911H181.818V418.297H189.196V422.2H176.947V402.203H189.196V406.106H181.818ZM210.843 418.668H203.379L202.183 422.2H197.084L204.319 402.203H209.96L217.195 422.2H212.039L210.843 418.668ZM209.589 414.908L207.111 407.587L204.661 414.908H209.589ZM218.571 412.173C218.571 410.198 218.998 408.441 219.853 406.903C220.707 405.346 221.894 404.14 223.413 403.286C224.952 402.412 226.689 401.975 228.626 401.975C231 401.975 233.032 402.602 234.722 403.855C236.412 405.109 237.542 406.818 238.112 408.983H232.757C232.358 408.147 231.788 407.511 231.047 407.074C230.326 406.637 229.5 406.419 228.569 406.419C227.069 406.419 225.854 406.941 224.923 407.986C223.993 409.03 223.527 410.426 223.527 412.173C223.527 413.92 223.993 415.316 224.923 416.36C225.854 417.405 227.069 417.927 228.569 417.927C229.5 417.927 230.326 417.709 231.047 417.272C231.788 416.835 232.358 416.199 232.757 415.363H238.112C237.542 417.528 236.412 419.237 234.722 420.491C233.032 421.725 231 422.342 228.626 422.342C226.689 422.342 224.952 421.915 223.413 421.061C221.894 420.187 220.707 418.981 219.853 417.443C218.998 415.905 218.571 414.148 218.571 412.173ZM240.269 412.173C240.269 410.198 240.696 408.441 241.551 406.903C242.405 405.346 243.592 404.14 245.111 403.286C246.649 402.412 248.387 401.975 250.324 401.975C252.698 401.975 254.73 402.602 256.42 403.855C258.11 405.109 259.24 406.818 259.81 408.983H254.454C254.056 408.147 253.486 407.511 252.745 407.074C252.024 406.637 251.198 406.419 250.267 406.419C248.767 406.419 247.551 406.941 246.621 407.986C245.69 409.03 245.225 410.426 245.225 412.173C245.225 413.92 245.69 415.316 246.621 416.36C247.551 417.405 248.767 417.927 250.267 417.927C251.198 417.927 252.024 417.709 252.745 417.272C253.486 416.835 254.056 416.199 254.454 415.363H259.81C259.24 417.528 258.11 419.237 256.42 420.491C254.73 421.725 252.698 422.342 250.324 422.342C248.387 422.342 246.649 421.915 245.111 421.061C243.592 420.187 242.405 418.981 241.551 417.443C240.696 415.905 240.269 414.148 240.269 412.173ZM272.25 422.399C270.37 422.399 268.642 421.963 267.065 421.089C265.508 420.215 264.264 419 263.334 417.443C262.422 415.867 261.967 414.101 261.967 412.145C261.967 410.189 262.422 408.432 263.334 406.875C264.264 405.318 265.508 404.102 267.065 403.229C268.642 402.355 270.37 401.918 272.25 401.918C274.13 401.918 275.848 402.355 277.406 403.229C278.982 404.102 280.216 405.318 281.109 406.875C282.02 408.432 282.476 410.189 282.476 412.145C282.476 414.101 282.02 415.867 281.109 417.443C280.197 419 278.963 420.215 277.406 421.089C275.848 421.963 274.13 422.399 272.25 422.399ZM272.25 417.956C273.845 417.956 275.117 417.424 276.067 416.36C277.035 415.297 277.52 413.892 277.52 412.145C277.52 410.378 277.035 408.973 276.067 407.929C275.117 406.865 273.845 406.334 272.25 406.334C270.636 406.334 269.344 406.856 268.376 407.9C267.426 408.945 266.952 410.36 266.952 412.145C266.952 413.911 267.426 415.325 268.376 416.389C269.344 417.433 270.636 417.956 272.25 417.956ZM289.972 402.203V414.167C289.972 415.363 290.266 416.284 290.855 416.93C291.443 417.576 292.307 417.899 293.447 417.899C294.586 417.899 295.46 417.576 296.067 416.93C296.675 416.284 296.979 415.363 296.979 414.167V402.203H301.85V414.139C301.85 415.924 301.47 417.433 300.711 418.668C299.951 419.902 298.925 420.833 297.634 421.459C296.362 422.086 294.938 422.399 293.361 422.399C291.785 422.399 290.37 422.096 289.117 421.488C287.883 420.861 286.905 419.931 286.183 418.696C285.461 417.443 285.101 415.924 285.101 414.139V402.203H289.972ZM323.159 422.2H318.288L310.141 409.866V422.2H305.27V402.203H310.141L318.288 414.594V402.203H323.159V422.2ZM341.075 402.203V406.106H335.777V422.2H330.906V406.106H325.608V402.203H341.075Z" fill="#B4BAC8"/>
<rect x="70.2641" y="482.353" width="705.489" height="142.427" rx="71.2136" fill="#376BED"/>
<circle cx="696.944" cy="553.567" r="52.2233" fill="white"/>
<circle cx="149.074" cy="553.567" r="52.2233" fill="#6087F0"/>
<path d="M143.056 550.574C144.215 550.821 145.145 551.4 145.848 552.312C146.551 553.204 146.902 554.23 146.902 555.388C146.902 557.06 146.313 558.389 145.136 559.376C143.977 560.345 142.354 560.829 140.265 560.829H130.95V540.832H139.952C141.984 540.832 143.569 541.298 144.709 542.228C145.867 543.159 146.446 544.421 146.446 546.017C146.446 547.194 146.133 548.172 145.506 548.951C144.899 549.729 144.082 550.27 143.056 550.574ZM135.821 548.922H139.012C139.809 548.922 140.417 548.751 140.835 548.409C141.271 548.049 141.49 547.526 141.49 546.843C141.49 546.159 141.271 545.637 140.835 545.276C140.417 544.915 139.809 544.735 139.012 544.735H135.821V548.922ZM139.41 556.898C140.227 556.898 140.854 556.718 141.29 556.357C141.746 555.977 141.974 555.436 141.974 554.733C141.974 554.031 141.737 553.48 141.262 553.081C140.806 552.682 140.17 552.483 139.353 552.483H135.821V556.898H139.41ZM162.175 557.297H154.712L153.516 560.829H148.417L155.652 540.832H161.292L168.528 560.829H163.372L162.175 557.297ZM160.922 553.537L158.444 546.216L155.994 553.537H160.922Z" fill="white"/>
<path d="M689.247 570.087C690.175 571.015 691.751 571.015 692.678 570.087L719.94 542.826C720.867 541.899 720.867 540.322 719.94 539.395L716.602 536.057C715.674 535.13 714.191 535.13 713.263 536.057L691.009 558.311L680.531 547.926C679.604 546.999 678.12 546.999 677.193 547.926L673.855 551.264C672.928 552.191 672.928 553.768 673.855 554.695L689.247 570.087Z" fill="#376BED"/>
<path d="M247.611 528.821C248.674 529.011 249.576 529.571 250.317 530.502C251.058 531.432 251.428 532.486 251.428 533.663C251.428 534.67 251.162 535.581 250.63 536.398C250.118 537.196 249.367 537.832 248.38 538.307C247.392 538.762 246.243 538.99 244.933 538.99H237.014V519.193H244.563C245.911 519.193 247.07 519.421 248.038 519.877C249.007 520.332 249.738 520.949 250.231 521.728C250.725 522.488 250.972 523.342 250.972 524.292C250.972 525.431 250.668 526.381 250.061 527.14C249.453 527.9 248.636 528.46 247.611 528.821ZM240.262 527.511H244.278C245.341 527.511 246.168 527.273 246.756 526.798C247.364 526.305 247.668 525.602 247.668 524.691C247.668 523.798 247.364 523.105 246.756 522.611C246.168 522.098 245.341 521.842 244.278 521.842H240.262V527.511ZM244.648 536.341C245.75 536.341 246.614 536.075 247.24 535.543C247.867 535.012 248.181 534.271 248.181 533.322C248.181 532.353 247.848 531.584 247.184 531.014C246.519 530.445 245.636 530.16 244.534 530.16H240.262V536.341H244.648ZM253.874 531.071C253.874 529.495 254.197 528.099 254.843 526.884C255.507 525.669 256.4 524.729 257.52 524.064C258.66 523.38 259.913 523.038 261.28 523.038C262.515 523.038 263.588 523.285 264.499 523.779C265.43 524.254 266.17 524.852 266.721 525.574V523.295H269.997V538.99H266.721V536.654C266.17 537.395 265.42 538.012 264.471 538.506C263.521 539 262.439 539.247 261.223 539.247C259.875 539.247 258.641 538.905 257.52 538.221C256.4 537.518 255.507 536.55 254.843 535.316C254.197 534.062 253.874 532.647 253.874 531.071ZM266.721 531.128C266.721 530.046 266.493 529.106 266.038 528.308C265.601 527.511 265.022 526.903 264.3 526.485C263.578 526.067 262.8 525.858 261.964 525.858C261.129 525.858 260.35 526.067 259.628 526.485C258.907 526.884 258.318 527.482 257.862 528.28C257.425 529.058 257.207 529.989 257.207 531.071C257.207 532.154 257.425 533.103 257.862 533.92C258.318 534.736 258.907 535.363 259.628 535.8C260.369 536.218 261.148 536.427 261.964 536.427C262.8 536.427 263.578 536.218 264.3 535.8C265.022 535.382 265.601 534.774 266.038 533.977C266.493 533.16 266.721 532.211 266.721 531.128ZM282.181 523.038C283.416 523.038 284.517 523.295 285.486 523.807C286.473 524.32 287.242 525.08 287.793 526.086C288.344 527.093 288.619 528.308 288.619 529.732V538.99H285.4V530.217C285.4 528.811 285.049 527.738 284.346 526.998C283.643 526.238 282.684 525.858 281.469 525.858C280.254 525.858 279.285 526.238 278.564 526.998C277.861 527.738 277.51 528.811 277.51 530.217V538.99H274.262V523.295H277.51V525.089C278.041 524.444 278.715 523.94 279.532 523.58C280.368 523.219 281.251 523.038 282.181 523.038ZM298.971 531.157L306.206 538.99H301.819L296.008 532.239V538.99H292.761V517.911H296.008V530.16L301.706 523.295H306.206L298.971 531.157ZM327.869 534.945H319.579L318.155 538.99H314.765L321.858 519.164H325.618L332.711 538.99H329.293L327.869 534.945ZM326.957 532.296L323.738 523.095L320.491 532.296H326.957ZM334.713 531.128C334.713 529.514 335.036 528.099 335.681 526.884C336.346 525.65 337.258 524.7 338.416 524.035C339.574 523.371 340.904 523.038 342.404 523.038C344.303 523.038 345.87 523.494 347.104 524.406C348.357 525.298 349.202 526.58 349.639 528.251H346.135C345.851 527.473 345.395 526.865 344.768 526.428C344.141 525.991 343.353 525.773 342.404 525.773C341.075 525.773 340.011 526.248 339.214 527.197C338.435 528.128 338.046 529.438 338.046 531.128C338.046 532.818 338.435 534.138 339.214 535.088C340.011 536.037 341.075 536.512 342.404 536.512C344.284 536.512 345.528 535.686 346.135 534.034H349.639C349.183 535.629 348.329 536.901 347.075 537.851C345.822 538.781 344.265 539.247 342.404 539.247C340.904 539.247 339.574 538.914 338.416 538.25C337.258 537.566 336.346 536.616 335.681 535.401C335.036 534.167 334.713 532.742 334.713 531.128ZM351.793 531.128C351.793 529.514 352.116 528.099 352.761 526.884C353.426 525.65 354.338 524.7 355.496 524.035C356.654 523.371 357.984 523.038 359.484 523.038C361.383 523.038 362.95 523.494 364.184 524.406C365.437 525.298 366.283 526.58 366.719 528.251H363.216C362.931 527.473 362.475 526.865 361.848 526.428C361.222 525.991 360.434 525.773 359.484 525.773C358.155 525.773 357.091 526.248 356.294 527.197C355.515 528.128 355.126 529.438 355.126 531.128C355.126 532.818 355.515 534.138 356.294 535.088C357.091 536.037 358.155 536.512 359.484 536.512C361.364 536.512 362.608 535.686 363.216 534.034H366.719C366.264 535.629 365.409 536.901 364.156 537.851C362.902 538.781 361.345 539.247 359.484 539.247C357.984 539.247 356.654 538.914 355.496 538.25C354.338 537.566 353.426 536.616 352.761 535.401C352.116 534.167 351.793 532.742 351.793 531.128ZM376.764 539.247C375.282 539.247 373.943 538.914 372.747 538.25C371.551 537.566 370.611 536.616 369.927 535.401C369.243 534.167 368.902 532.742 368.902 531.128C368.902 529.533 369.253 528.118 369.956 526.884C370.658 525.65 371.617 524.7 372.833 524.035C374.048 523.371 375.406 523.038 376.906 523.038C378.406 523.038 379.764 523.371 380.979 524.035C382.195 524.7 383.154 525.65 383.856 526.884C384.559 528.118 384.91 529.533 384.91 531.128C384.91 532.723 384.55 534.138 383.828 535.373C383.106 536.607 382.119 537.566 380.865 538.25C379.631 538.914 378.264 539.247 376.764 539.247ZM376.764 536.427C377.599 536.427 378.378 536.227 379.099 535.828C379.84 535.43 380.438 534.831 380.894 534.034C381.35 533.236 381.578 532.268 381.578 531.128C381.578 529.989 381.359 529.03 380.922 528.251C380.486 527.454 379.906 526.855 379.185 526.457C378.463 526.058 377.685 525.858 376.849 525.858C376.013 525.858 375.235 526.058 374.513 526.457C373.811 526.855 373.25 527.454 372.833 528.251C372.415 529.03 372.206 529.989 372.206 531.128C372.206 532.818 372.633 534.129 373.488 535.059C374.361 535.971 375.453 536.427 376.764 536.427ZM402.335 523.295V538.99H399.087V537.139C398.575 537.784 397.901 538.297 397.065 538.677C396.248 539.038 395.375 539.218 394.444 539.218C393.21 539.218 392.099 538.962 391.112 538.449C390.143 537.936 389.374 537.177 388.804 536.17C388.253 535.164 387.978 533.948 387.978 532.524V523.295H391.197V532.04C391.197 533.445 391.548 534.528 392.251 535.287C392.954 536.028 393.913 536.398 395.128 536.398C396.343 536.398 397.302 536.028 398.005 535.287C398.727 534.528 399.087 533.445 399.087 532.04V523.295H402.335ZM414.538 523.038C415.773 523.038 416.874 523.295 417.843 523.807C418.83 524.32 419.599 525.08 420.15 526.086C420.701 527.093 420.976 528.308 420.976 529.732V538.99H417.757V530.217C417.757 528.811 417.406 527.738 416.703 526.998C416.001 526.238 415.042 525.858 413.826 525.858C412.611 525.858 411.642 526.238 410.921 526.998C410.218 527.738 409.867 528.811 409.867 530.217V538.99H406.619V523.295H409.867V525.089C410.398 524.444 411.073 523.94 411.889 523.58C412.725 523.219 413.608 523.038 414.538 523.038ZM428.907 525.944V534.632C428.907 535.221 429.04 535.648 429.306 535.914C429.59 536.161 430.065 536.284 430.73 536.284H432.724V538.99H430.16C428.698 538.99 427.577 538.648 426.799 537.965C426.02 537.281 425.631 536.17 425.631 534.632V525.944H423.779V523.295H425.631V519.392H428.907V523.295H432.724V525.944H428.907Z" fill="white"/>
<path d="M242.47 575.573L246.572 582.163H244.141L241.16 577.378L238.368 582.163H235.957L240.059 575.573L235.938 568.965H238.368L241.369 573.788L244.179 568.965H246.591L242.47 575.573ZM255.007 575.573L259.109 582.163H256.678L253.697 577.378L250.905 582.163H248.493L252.595 575.573L248.474 568.965H250.905L253.905 573.788L256.716 568.965H259.128L255.007 575.573ZM267.543 575.573L271.645 582.163H269.215L266.233 577.378L263.442 582.163H261.03L265.132 575.573L261.011 568.965H263.442L266.442 573.788L269.253 568.965H271.664L267.543 575.573ZM280.08 575.573L284.182 582.163H281.751L278.77 577.378L275.978 582.163H273.566L277.668 575.573L273.547 568.965H275.978L278.979 573.788L281.789 568.965H284.201L280.08 575.573ZM299.525 574.377V576.2H291.72V574.377H299.525ZM313.591 575.573L317.693 582.163H315.262L312.281 577.378L309.489 582.163H307.078L311.179 575.573L307.059 568.965H309.489L312.49 573.788L315.3 568.965H317.712L313.591 575.573ZM326.128 575.573L330.23 582.163H327.799L324.817 577.378L322.026 582.163H319.614L323.716 575.573L319.595 568.965H322.026L325.026 573.788L327.837 568.965H330.249L326.128 575.573ZM338.664 575.573L342.766 582.163H340.335L337.354 577.378L334.562 582.163H332.151L336.253 575.573L332.132 568.965H334.562L337.563 573.788L340.373 568.965H342.785L338.664 575.573ZM351.201 575.573L355.303 582.163H352.872L349.891 577.378L347.099 582.163H344.687L348.789 575.573L344.668 568.965H347.099L350.099 573.788L352.91 568.965H355.322L351.201 575.573ZM370.645 574.377V576.2H362.84V574.377H370.645ZM378.369 575.061C378.369 572.871 378.736 571.161 379.471 569.933C380.218 568.693 381.496 568.072 383.307 568.072C385.117 568.072 386.39 568.693 387.124 569.933C387.871 571.161 388.244 572.871 388.244 575.061C388.244 577.276 387.871 579.011 387.124 580.264C386.39 581.505 385.117 582.125 383.307 582.125C381.496 582.125 380.218 581.505 379.471 580.264C378.736 579.011 378.369 577.276 378.369 575.061ZM386.117 575.061C386.117 574.035 386.048 573.168 385.908 572.459C385.782 571.75 385.516 571.174 385.111 570.731C384.706 570.275 384.104 570.047 383.307 570.047C382.509 570.047 381.908 570.275 381.503 570.731C381.098 571.174 380.825 571.75 380.686 572.459C380.56 573.168 380.496 574.035 380.496 575.061C380.496 576.124 380.56 577.017 380.686 577.738C380.813 578.46 381.079 579.042 381.484 579.485C381.902 579.929 382.509 580.15 383.307 580.15C384.104 580.15 384.706 579.929 385.111 579.485C385.529 579.042 385.801 578.46 385.927 577.738C386.054 577.017 386.117 576.124 386.117 575.061ZM393.232 578.403C393.358 579.036 393.63 579.517 394.048 579.846C394.466 580.175 395.029 580.34 395.738 580.34C396.637 580.34 397.296 579.986 397.713 579.277C398.131 578.568 398.34 577.359 398.34 575.649C398.036 576.08 397.606 576.415 397.049 576.656C396.504 576.884 395.909 576.998 395.264 576.998C394.441 576.998 393.694 576.833 393.023 576.504C392.352 576.162 391.82 575.662 391.427 575.004C391.048 574.333 390.858 573.523 390.858 572.573C390.858 571.18 391.263 570.073 392.073 569.25C392.896 568.414 394.023 567.996 395.453 567.996C397.175 567.996 398.397 568.572 399.119 569.724C399.853 570.864 400.22 572.617 400.22 574.985C400.22 576.618 400.081 577.954 399.802 578.992C399.536 580.03 399.068 580.815 398.397 581.347C397.726 581.878 396.795 582.144 395.605 582.144C394.251 582.144 393.206 581.79 392.472 581.081C391.738 580.372 391.326 579.479 391.238 578.403H393.232ZM395.643 575.175C396.403 575.175 396.998 574.94 397.428 574.472C397.872 573.991 398.093 573.358 398.093 572.573C398.093 571.699 397.859 571.022 397.39 570.541C396.935 570.047 396.308 569.8 395.51 569.8C394.713 569.8 394.08 570.054 393.611 570.56C393.156 571.054 392.928 571.706 392.928 572.516C392.928 573.288 393.149 573.928 393.592 574.434C394.048 574.928 394.732 575.175 395.643 575.175ZM402.323 579.277V577.643L408.704 568.49H411.325V577.397H413.091V579.277H411.325V582.163H409.198V579.277H402.323ZM409.293 570.693L404.811 577.397H409.293V570.693ZM423.81 570.18H417.448V573.959C417.714 573.605 418.107 573.307 418.626 573.067C419.158 572.826 419.721 572.706 420.316 572.706C421.379 572.706 422.24 572.934 422.899 573.39C423.57 573.845 424.044 574.421 424.323 575.118C424.614 575.814 424.76 576.548 424.76 577.321C424.76 578.257 424.576 579.093 424.209 579.827C423.855 580.549 423.316 581.119 422.595 581.536C421.886 581.954 421.012 582.163 419.974 582.163C418.594 582.163 417.486 581.821 416.651 581.138C415.815 580.454 415.315 579.549 415.151 578.422H417.259C417.398 579.017 417.708 579.492 418.189 579.846C418.67 580.188 419.272 580.359 419.993 580.359C420.892 580.359 421.563 580.087 422.006 579.542C422.462 578.998 422.69 578.276 422.69 577.378C422.69 576.466 422.462 575.77 422.006 575.289C421.55 574.795 420.879 574.548 419.993 574.548C419.373 574.548 418.847 574.706 418.417 575.023C417.999 575.327 417.695 575.744 417.505 576.276H415.455V568.281H423.81V570.18Z" fill="#6F95F5"/>
<path d="M244.067 754.082L248.169 760.672H245.738L242.757 755.886L239.965 760.672H237.553L241.655 754.082L237.534 747.474H239.965L242.966 752.297L245.776 747.474H248.188L244.067 754.082ZM256.604 754.082L260.706 760.672H258.275L255.293 755.886L252.502 760.672H250.09L254.192 754.082L250.071 747.474H252.502L255.502 752.297L258.313 747.474H260.725L256.604 754.082ZM269.14 754.082L273.242 760.672H270.811L267.83 755.886L265.038 760.672H262.627L266.728 754.082L262.608 747.474H265.038L268.039 752.297L270.849 747.474H273.261L269.14 754.082ZM281.677 754.082L285.779 760.672H283.348L280.366 755.886L277.575 760.672H275.163L279.265 754.082L275.144 747.474H277.575L280.575 752.297L283.386 747.474H285.798L281.677 754.082ZM301.121 752.886V754.709H293.316V752.886H301.121ZM315.188 754.082L319.29 760.672H316.859L313.878 755.886L311.086 760.672H308.674L312.776 754.082L308.655 747.474H311.086L314.087 752.297L316.897 747.474H319.309L315.188 754.082ZM327.725 754.082L331.826 760.672H329.396L326.414 755.886L323.623 760.672H321.211L325.313 754.082L321.192 747.474H323.623L326.623 752.297L329.434 747.474H331.845L327.725 754.082ZM340.261 754.082L344.363 760.672H341.932L338.951 755.886L336.159 760.672H333.747L337.849 754.082L333.728 747.474H336.159L339.16 752.297L341.97 747.474H344.382L340.261 754.082ZM352.798 754.082L356.9 760.672H354.469L351.487 755.886L348.696 760.672H346.284L350.386 754.082L346.265 747.474H348.696L351.696 752.297L354.507 747.474H356.919L352.798 754.082ZM372.242 752.886V754.709H364.437V752.886H372.242ZM379.928 750.246C380.004 749.069 380.453 748.151 381.276 747.493C382.112 746.834 383.175 746.505 384.467 746.505C385.353 746.505 386.119 746.663 386.765 746.98C387.41 747.296 387.898 747.727 388.227 748.271C388.556 748.816 388.721 749.43 388.721 750.113C388.721 750.898 388.512 751.569 388.094 752.126C387.676 752.683 387.176 753.057 386.594 753.247V753.323C387.341 753.551 387.923 753.968 388.341 754.576C388.759 755.171 388.967 755.937 388.967 756.874C388.967 757.621 388.797 758.285 388.455 758.868C388.113 759.45 387.606 759.912 386.935 760.254C386.264 760.583 385.461 760.748 384.524 760.748C383.156 760.748 382.03 760.4 381.143 759.703C380.27 758.994 379.801 757.982 379.738 756.665H381.827C381.878 757.336 382.137 757.887 382.606 758.317C383.074 758.735 383.707 758.944 384.505 758.944C385.277 758.944 385.872 758.735 386.29 758.317C386.708 757.887 386.916 757.336 386.916 756.665C386.916 755.779 386.632 755.152 386.062 754.785C385.505 754.405 384.644 754.215 383.479 754.215H382.986V752.43H383.498C384.524 752.417 385.302 752.247 385.834 751.917C386.378 751.588 386.651 751.069 386.651 750.36C386.651 749.752 386.454 749.271 386.062 748.917C385.669 748.55 385.112 748.366 384.391 748.366C383.682 748.366 383.131 748.55 382.739 748.917C382.346 749.271 382.112 749.714 382.036 750.246H379.928ZM392.438 757.728C393.653 756.678 394.609 755.817 395.305 755.146C396.014 754.462 396.603 753.753 397.072 753.019C397.54 752.284 397.774 751.55 397.774 750.816C397.774 750.056 397.591 749.461 397.223 749.031C396.869 748.6 396.306 748.385 395.533 748.385C394.786 748.385 394.204 748.626 393.786 749.107C393.381 749.575 393.166 750.208 393.141 751.006H391.052C391.09 749.563 391.52 748.461 392.343 747.702C393.179 746.929 394.236 746.543 395.514 746.543C396.894 746.543 397.97 746.923 398.743 747.683C399.528 748.442 399.92 749.455 399.92 750.721C399.92 751.632 399.686 752.512 399.217 753.361C398.762 754.196 398.211 754.949 397.565 755.62C396.932 756.279 396.122 757.045 395.135 757.918L394.28 758.678H400.3V760.482H391.071V758.906L392.438 757.728ZM404.538 753.437C403.221 752.778 402.563 751.74 402.563 750.322C402.563 749.639 402.733 749.012 403.075 748.442C403.417 747.872 403.93 747.423 404.614 747.094C405.297 746.752 406.133 746.581 407.12 746.581C408.095 746.581 408.924 746.752 409.608 747.094C410.304 747.423 410.823 747.872 411.165 748.442C411.507 749.012 411.678 749.639 411.678 750.322C411.678 751.031 411.494 751.658 411.127 752.202C410.773 752.734 410.298 753.145 409.703 753.437C410.425 753.702 410.994 754.139 411.412 754.747C411.83 755.342 412.039 756.045 412.039 756.855C412.039 757.678 411.83 758.406 411.412 759.039C410.994 759.672 410.412 760.159 409.665 760.501C408.918 760.843 408.07 761.014 407.12 761.014C406.171 761.014 405.323 760.843 404.576 760.501C403.841 760.159 403.265 759.672 402.847 759.039C402.43 758.406 402.221 757.678 402.221 756.855C402.221 756.032 402.43 755.323 402.847 754.728C403.265 754.133 403.829 753.702 404.538 753.437ZM409.608 750.588C409.608 749.879 409.386 749.335 408.943 748.955C408.5 748.575 407.893 748.385 407.12 748.385C406.361 748.385 405.759 748.575 405.316 748.955C404.873 749.335 404.652 749.885 404.652 750.607C404.652 751.24 404.879 751.759 405.335 752.164C405.804 752.557 406.399 752.753 407.12 752.753C407.842 752.753 408.437 752.55 408.905 752.145C409.374 751.74 409.608 751.221 409.608 750.588ZM407.12 754.386C406.285 754.386 405.601 754.595 405.069 755.013C404.55 755.418 404.291 756.007 404.291 756.779C404.291 757.5 404.544 758.089 405.05 758.545C405.557 758.988 406.247 759.21 407.12 759.21C407.981 759.21 408.658 758.982 409.152 758.526C409.659 758.07 409.912 757.488 409.912 756.779C409.912 756.019 409.652 755.431 409.133 755.013C408.627 754.595 407.956 754.386 407.12 754.386ZM417.008 756.912C417.135 757.545 417.407 758.026 417.825 758.355C418.243 758.684 418.806 758.849 419.515 758.849C420.414 758.849 421.072 758.494 421.49 757.785C421.908 757.076 422.117 755.867 422.117 754.158C421.813 754.589 421.382 754.924 420.825 755.165C420.281 755.393 419.686 755.507 419.04 755.507C418.217 755.507 417.47 755.342 416.8 755.013C416.129 754.671 415.597 754.171 415.204 753.513C414.825 752.842 414.635 752.031 414.635 751.082C414.635 749.689 415.04 748.581 415.85 747.758C416.673 746.923 417.8 746.505 419.23 746.505C420.952 746.505 422.174 747.081 422.895 748.233C423.63 749.373 423.997 751.126 423.997 753.494C423.997 755.127 423.858 756.462 423.579 757.5C423.313 758.539 422.845 759.324 422.174 759.855C421.503 760.387 420.572 760.653 419.382 760.653C418.028 760.653 416.983 760.298 416.249 759.589C415.514 758.88 415.103 757.988 415.014 756.912H417.008ZM419.42 753.683C420.18 753.683 420.775 753.449 421.205 752.981C421.648 752.5 421.87 751.867 421.87 751.082C421.87 750.208 421.636 749.531 421.167 749.05C420.712 748.556 420.085 748.309 419.287 748.309C418.49 748.309 417.857 748.562 417.388 749.069C416.932 749.563 416.705 750.215 416.705 751.025C416.705 751.797 416.926 752.436 417.369 752.943C417.825 753.437 418.509 753.683 419.42 753.683Z" fill="#A6B2BF"/>
<path d="M235.674 707.558C235.674 705.621 236.12 703.883 237.013 702.345C237.924 700.807 239.149 699.61 240.687 698.756C242.245 697.882 243.944 697.445 245.786 697.445C247.894 697.445 249.765 697.968 251.398 699.012C253.05 700.037 254.247 701.5 254.987 703.399H251.085C250.572 702.354 249.86 701.576 248.948 701.063C248.037 700.55 246.983 700.294 245.786 700.294C244.476 700.294 243.308 700.588 242.283 701.177C241.257 701.766 240.45 702.611 239.861 703.712C239.292 704.814 239.007 706.095 239.007 707.558C239.007 709.02 239.292 710.302 239.861 711.403C240.45 712.505 241.257 713.359 242.283 713.967C243.308 714.556 244.476 714.85 245.786 714.85C246.983 714.85 248.037 714.594 248.948 714.081C249.86 713.568 250.572 712.789 251.085 711.745H254.987C254.247 713.644 253.05 715.106 251.398 716.132C249.765 717.157 247.894 717.67 245.786 717.67C243.925 717.67 242.226 717.243 240.687 716.388C239.149 715.515 237.924 714.309 237.013 712.77C236.12 711.232 235.674 709.495 235.674 707.558ZM262.035 704.082C262.51 703.285 263.137 702.668 263.916 702.231C264.713 701.775 265.653 701.547 266.736 701.547V704.908H265.91C264.637 704.908 263.669 705.231 263.004 705.877C262.358 706.523 262.035 707.643 262.035 709.238V717.499H258.788V701.804H262.035V704.082ZM284.106 709.267C284.106 709.855 284.068 710.387 283.992 710.862H271.999C272.094 712.115 272.56 713.122 273.395 713.881C274.231 714.641 275.256 715.021 276.472 715.021C278.219 715.021 279.453 714.29 280.175 712.827H283.678C283.204 714.271 282.34 715.458 281.086 716.388C279.852 717.3 278.314 717.755 276.472 717.755C274.971 717.755 273.623 717.423 272.427 716.758C271.249 716.075 270.319 715.125 269.635 713.91C268.97 712.675 268.638 711.251 268.638 709.637C268.638 708.023 268.961 706.608 269.607 705.393C270.271 704.158 271.192 703.209 272.37 702.544C273.566 701.88 274.933 701.547 276.472 701.547C277.953 701.547 279.273 701.87 280.431 702.516C281.589 703.161 282.492 704.073 283.137 705.25C283.783 706.409 284.106 707.748 284.106 709.267ZM280.716 708.241C280.697 707.045 280.27 706.086 279.434 705.364C278.599 704.643 277.564 704.282 276.329 704.282C275.209 704.282 274.25 704.643 273.452 705.364C272.655 706.067 272.18 707.026 272.028 708.241H280.716ZM286.219 709.58C286.219 708.004 286.542 706.608 287.187 705.393C287.852 704.177 288.745 703.237 289.865 702.573C291.005 701.889 292.267 701.547 293.654 701.547C294.679 701.547 295.686 701.775 296.673 702.231C297.68 702.668 298.477 703.256 299.066 703.997V696.42H302.342V717.499H299.066V715.135C298.534 715.894 297.794 716.521 296.844 717.015C295.913 717.509 294.841 717.755 293.625 717.755C292.258 717.755 291.005 717.414 289.865 716.73C288.745 716.027 287.852 715.059 287.187 713.824C286.542 712.571 286.219 711.156 286.219 709.58ZM299.066 709.637C299.066 708.555 298.838 707.615 298.382 706.817C297.945 706.019 297.366 705.412 296.645 704.994C295.923 704.576 295.144 704.367 294.309 704.367C293.473 704.367 292.695 704.576 291.973 704.994C291.251 705.393 290.663 705.991 290.207 706.788C289.77 707.567 289.552 708.498 289.552 709.58C289.552 710.663 289.77 711.612 290.207 712.429C290.663 713.245 291.251 713.872 291.973 714.309C292.714 714.726 293.492 714.935 294.309 714.935C295.144 714.935 295.923 714.726 296.645 714.309C297.366 713.891 297.945 713.283 298.382 712.486C298.838 711.669 299.066 710.719 299.066 709.637ZM308.259 699.724C307.67 699.724 307.177 699.525 306.778 699.126C306.379 698.727 306.18 698.233 306.18 697.645C306.18 697.056 306.379 696.562 306.778 696.163C307.177 695.765 307.67 695.565 308.259 695.565C308.829 695.565 309.313 695.765 309.712 696.163C310.111 696.562 310.31 697.056 310.31 697.645C310.31 698.233 310.111 698.727 309.712 699.126C309.313 699.525 308.829 699.724 308.259 699.724ZM309.854 701.804V717.499H306.607V701.804H309.854ZM317.906 704.453V713.141C317.906 713.729 318.039 714.157 318.305 714.423C318.59 714.669 319.065 714.793 319.729 714.793H321.723V717.499H319.16C317.697 717.499 316.577 717.157 315.798 716.474C315.02 715.79 314.631 714.679 314.631 713.141V704.453H312.779V701.804H314.631V697.901H317.906V701.804H321.723V704.453H317.906ZM331.033 707.558C331.033 705.621 331.48 703.883 332.372 702.345C333.284 700.807 334.509 699.61 336.047 698.756C337.604 697.882 339.304 697.445 341.146 697.445C343.254 697.445 345.124 697.968 346.757 699.012C348.41 700.037 349.606 701.5 350.347 703.399H346.444C345.931 702.354 345.219 701.576 344.308 701.063C343.396 700.55 342.342 700.294 341.146 700.294C339.835 700.294 338.668 700.588 337.642 701.177C336.617 701.766 335.81 702.611 335.221 703.712C334.651 704.814 334.366 706.095 334.366 707.558C334.366 709.02 334.651 710.302 335.221 711.403C335.81 712.505 336.617 713.359 337.642 713.967C338.668 714.556 339.835 714.85 341.146 714.85C342.342 714.85 343.396 714.594 344.308 714.081C345.219 713.568 345.931 712.789 346.444 711.745H350.347C349.606 713.644 348.41 715.106 346.757 716.132C345.124 717.157 343.254 717.67 341.146 717.67C339.285 717.67 337.585 717.243 336.047 716.388C334.509 715.515 333.284 714.309 332.372 712.77C331.48 711.232 331.033 709.495 331.033 707.558ZM353.065 709.58C353.065 708.004 353.388 706.608 354.034 705.393C354.698 704.177 355.591 703.237 356.711 702.573C357.851 701.889 359.104 701.547 360.471 701.547C361.706 701.547 362.779 701.794 363.69 702.288C364.621 702.763 365.361 703.361 365.912 704.082V701.804H369.188V717.499H365.912V715.163C365.361 715.904 364.611 716.521 363.662 717.015C362.712 717.509 361.63 717.755 360.414 717.755C359.066 717.755 357.832 717.414 356.711 716.73C355.591 716.027 354.698 715.059 354.034 713.824C353.388 712.571 353.065 711.156 353.065 709.58ZM365.912 709.637C365.912 708.555 365.684 707.615 365.228 706.817C364.792 706.019 364.212 705.412 363.491 704.994C362.769 704.576 361.991 704.367 361.155 704.367C360.319 704.367 359.541 704.576 358.819 704.994C358.098 705.393 357.509 705.991 357.053 706.788C356.616 707.567 356.398 708.498 356.398 709.58C356.398 710.663 356.616 711.612 357.053 712.429C357.509 713.245 358.098 713.872 358.819 714.309C359.56 714.726 360.338 714.935 361.155 714.935C361.991 714.935 362.769 714.726 363.491 714.309C364.212 713.891 364.792 713.283 365.228 712.486C365.684 711.669 365.912 710.719 365.912 709.637ZM376.7 704.082C377.175 703.285 377.802 702.668 378.581 702.231C379.378 701.775 380.318 701.547 381.401 701.547V704.908H380.575C379.302 704.908 378.334 705.231 377.669 705.877C377.023 706.523 376.7 707.643 376.7 709.238V717.499H373.453V701.804H376.7V704.082ZM383.303 709.58C383.303 708.004 383.626 706.608 384.272 705.393C384.936 704.177 385.829 703.237 386.949 702.573C388.089 701.889 389.352 701.547 390.738 701.547C391.763 701.547 392.77 701.775 393.757 702.231C394.764 702.668 395.561 703.256 396.15 703.997V696.42H399.426V717.499H396.15V715.135C395.618 715.894 394.878 716.521 393.928 717.015C392.998 717.509 391.925 717.755 390.709 717.755C389.342 717.755 388.089 717.414 386.949 716.73C385.829 716.027 384.936 715.059 384.272 713.824C383.626 712.571 383.303 711.156 383.303 709.58ZM396.15 709.637C396.15 708.555 395.922 707.615 395.466 706.817C395.03 706.019 394.45 705.412 393.729 704.994C393.007 704.576 392.229 704.367 391.393 704.367C390.557 704.367 389.779 704.576 389.057 704.994C388.336 705.393 387.747 705.991 387.291 706.788C386.854 707.567 386.636 708.498 386.636 709.58C386.636 710.663 386.854 711.612 387.291 712.429C387.747 713.245 388.336 713.872 389.057 714.309C389.798 714.726 390.576 714.935 391.393 714.935C392.229 714.935 393.007 714.726 393.729 714.309C394.45 713.891 395.03 713.283 395.466 712.486C395.922 711.669 396.15 710.719 396.15 709.637Z" fill="black"/>
<path d="M143.056 732.881C144.215 733.128 145.145 733.707 145.848 734.619C146.551 735.511 146.902 736.537 146.902 737.695C146.902 739.366 146.313 740.696 145.136 741.683C143.977 742.652 142.354 743.136 140.265 743.136H130.95V723.139H139.952C141.984 723.139 143.569 723.604 144.709 724.535C145.867 725.466 146.446 726.728 146.446 728.324C146.446 729.501 146.133 730.479 145.506 731.258C144.899 732.036 144.082 732.577 143.056 732.881ZM135.821 731.229H139.012C139.809 731.229 140.417 731.058 140.835 730.716C141.271 730.356 141.49 729.833 141.49 729.15C141.49 728.466 141.271 727.944 140.835 727.583C140.417 727.222 139.809 727.042 139.012 727.042H135.821V731.229ZM139.41 739.205C140.227 739.205 140.854 739.025 141.29 738.664C141.746 738.284 141.974 737.743 141.974 737.04C141.974 736.337 141.737 735.787 141.262 735.388C140.806 734.989 140.17 734.79 139.353 734.79H135.821V739.205H139.41ZM162.175 739.604H154.712L153.516 743.136H148.417L155.652 723.139H161.292L168.528 743.136H163.372L162.175 739.604ZM160.922 735.844L158.444 728.523L155.994 735.844H160.922Z" fill="black"/>
<circle cx="696.944" cy="729.227" r="52.2233" fill="white"/>
<circle cx="149.074" cy="729.227" r="52.2233" fill="white"/>
<path d="M128.316 728.362C128.316 726.387 128.743 724.63 129.598 723.092C130.452 721.535 131.639 720.329 133.158 719.474C134.697 718.601 136.434 718.164 138.371 718.164C140.745 718.164 142.777 718.79 144.467 720.044C146.157 721.297 147.287 723.006 147.857 725.171H142.502C142.103 724.336 141.533 723.699 140.793 723.263C140.071 722.826 139.245 722.607 138.314 722.607C136.814 722.607 135.599 723.13 134.668 724.174C133.738 725.219 133.272 726.614 133.272 728.362C133.272 730.109 133.738 731.504 134.668 732.549C135.599 733.593 136.814 734.116 138.314 734.116C139.245 734.116 140.071 733.897 140.793 733.46C141.533 733.024 142.103 732.387 142.502 731.552H147.857C147.287 733.717 146.157 735.426 144.467 736.679C142.777 737.914 140.745 738.531 138.371 738.531C136.434 738.531 134.697 738.104 133.158 737.249C131.639 736.375 130.452 735.17 129.598 733.631C128.743 732.093 128.316 730.337 128.316 728.362ZM150.014 728.362C150.014 726.387 150.441 724.63 151.296 723.092C152.15 721.535 153.337 720.329 154.856 719.474C156.395 718.601 158.132 718.164 160.069 718.164C162.443 718.164 164.475 718.79 166.165 720.044C167.855 721.297 168.985 723.006 169.555 725.171H164.2C163.801 724.336 163.231 723.699 162.49 723.263C161.769 722.826 160.943 722.607 160.012 722.607C158.512 722.607 157.297 723.13 156.366 724.174C155.436 725.219 154.97 726.614 154.97 728.362C154.97 730.109 155.436 731.504 156.366 732.549C157.297 733.593 158.512 734.116 160.012 734.116C160.943 734.116 161.769 733.897 162.49 733.46C163.231 733.024 163.801 732.387 164.2 731.552H169.555C168.985 733.717 167.855 735.426 166.165 736.679C164.475 737.914 162.443 738.531 160.069 738.531C158.132 738.531 156.395 738.104 154.856 737.249C153.337 736.375 152.15 735.17 151.296 733.631C150.441 732.093 150.014 730.337 150.014 728.362Z" fill="black"/>
<rect width="846.017" height="124.386" transform="translate(0 853.614)" fill="#22B17E"/>
<path d="M354.466 903.4L346.642 929.796H341.743L336.198 909.818L330.311 929.796L325.449 929.834L317.967 903.4H322.563L328.032 924.897L333.957 903.4H338.818L344.326 924.783L349.833 903.4H354.466ZM362.367 903.4V929.796H358.037V903.4H362.367ZM385.105 903.4V906.932H378.079V929.796H373.749V906.932H366.685V903.4H385.105ZM410.569 903.4V929.796H406.24V918.25H393.82V929.796H389.49V903.4H393.82V914.718H406.24V903.4H410.569ZM424.891 903.4C427.702 903.4 430.158 903.944 432.259 905.033C434.386 906.096 436.019 907.641 437.159 909.666C438.323 911.667 438.906 914.009 438.906 916.693C438.906 919.377 438.323 921.706 437.159 923.681C436.019 925.656 434.386 927.175 432.259 928.239C430.158 929.277 427.702 929.796 424.891 929.796H416.269V903.4H424.891ZM424.891 926.264C427.98 926.264 430.348 925.428 431.993 923.757C433.639 922.086 434.462 919.731 434.462 916.693C434.462 913.629 433.639 911.236 431.993 909.515C430.348 907.793 427.98 906.932 424.891 906.932H420.599V926.264H424.891ZM456.908 929.796L450.831 919.238H447.527V929.796H443.197V903.4H452.312C454.338 903.4 456.047 903.754 457.44 904.463C458.858 905.172 459.909 906.122 460.592 907.312C461.301 908.502 461.656 909.831 461.656 911.3C461.656 913.021 461.149 914.591 460.136 916.009C459.149 917.402 457.617 918.351 455.541 918.858L462.073 929.796H456.908ZM447.527 915.781H452.312C453.933 915.781 455.148 915.376 455.959 914.566C456.794 913.756 457.212 912.667 457.212 911.3C457.212 909.932 456.807 908.869 455.997 908.109C455.186 907.324 453.958 906.932 452.312 906.932H447.527V915.781ZM483.108 924.403H472.056L470.157 929.796H465.637L475.095 903.362H480.108L489.565 929.796H485.007L483.108 924.403ZM481.893 920.871L477.601 908.603L473.271 920.871H481.893ZM528.05 903.4L520.226 929.796H515.326L509.781 909.818L503.894 929.796L499.032 929.834L491.55 903.4H496.146L501.615 924.897L507.54 903.4H512.402L517.909 924.783L523.416 903.4H528.05Z" fill="white"/>
</g>
<defs>
<clipPath id="clip0_56_123">
<rect width="846.017" height="978" rx="66.466" fill="white"/>
</clipPath>
</defs>
</svg>
