<svg width="25" height="25" viewBox="0 0 25 25" fill="none" xmlns="http://www.w3.org/2000/svg">
<g clip-path="url(#clip0_18_6)">
<path d="M15.6875 5.50311L21.5802 11.3958C21.8728 11.6888 22.0372 12.0859 22.0372 12.5C22.0372 12.914 21.8728 13.3112 21.5802 13.6042L15.6885 19.4979C15.3954 19.791 14.9979 19.9557 14.5833 19.9557C14.1688 19.9557 13.7712 19.791 13.4781 19.4979C13.185 19.2048 13.0203 18.8072 13.0203 18.3927C13.0203 17.9782 13.185 17.5806 13.4781 17.2875L16.7031 14.0625H4.6875C4.2731 14.0625 3.87567 13.8979 3.58265 13.6048C3.28962 13.3118 3.125 12.9144 3.125 12.5C3.125 12.0856 3.28962 11.6882 3.58265 11.3951C3.87567 11.1021 4.2731 10.9375 4.6875 10.9375H16.7031L13.4792 7.71249C13.1862 7.41937 13.0216 7.02187 13.0217 6.60743C13.0218 6.19299 13.1866 5.79557 13.4797 5.50259C13.7728 5.20961 14.1703 5.04507 14.5847 5.04517C14.9992 5.04526 15.3966 5.20999 15.6896 5.50311H15.6875Z" fill="white"/>
</g>
<defs>
<clipPath id="clip0_18_6">
<rect width="25" height="25" fill="white"/>
</clipPath>
</defs>
</svg>
