<svg width="60" height="60" viewBox="0 0 60 60" fill="none" xmlns="http://www.w3.org/2000/svg">
<circle cx="30" cy="30" r="30" fill="url(#paint0_linear_4602_274)"/>
<path d="M27.3416 43.2864C27.3416 43.2864 33.8497 39.4677 36.4518 36.5272C38.6147 34.083 38.0681 30.2088 37.9212 28.1517" stroke="white" stroke-width="2.05714" stroke-linecap="round"/>
<path d="M45.2541 22.252C45.1607 21.6916 44.6308 21.3131 44.0705 21.4065C43.5101 21.4999 43.1316 22.0298 43.225 22.5901L45.2541 22.252ZM44.8657 37.5749C45.4695 36.3673 45.7576 34.7758 45.8848 33.1642C46.0139 31.53 45.9842 29.771 45.8909 28.1654C45.7973 26.5565 45.6385 25.0815 45.5034 24.0097C45.4358 23.4732 45.3739 23.0363 45.3287 22.7324C45.3061 22.5805 45.2877 22.4617 45.2748 22.3802C45.2684 22.3395 45.2633 22.3081 45.2598 22.2865C45.258 22.2758 45.2567 22.2674 45.2557 22.2617C45.2553 22.2588 45.2549 22.2565 45.2546 22.2549C45.2545 22.2541 45.2544 22.2534 45.2543 22.2529C45.2542 22.2527 45.2542 22.2524 45.2542 22.2523C45.2542 22.2521 45.2541 22.252 44.2395 22.4211C43.225 22.5901 43.225 22.5901 43.225 22.59C43.225 22.5901 43.225 22.5901 43.225 22.5901C43.225 22.5903 43.225 22.5906 43.2251 22.5911C43.2253 22.592 43.2255 22.5936 43.2259 22.5958C43.2266 22.6002 43.2278 22.6071 43.2293 22.6165C43.2323 22.6353 43.2369 22.6638 43.2429 22.7015C43.2548 22.7771 43.2723 22.8896 43.2939 23.0349C43.3371 23.3257 43.3969 23.7474 43.4624 24.2671C43.5936 25.3075 43.7471 26.7346 43.8372 28.2848C43.9275 29.8385 43.953 31.4958 43.8341 33.0023C43.7133 34.5316 43.4504 35.8055 43.0257 36.6549L44.8657 37.5749ZM19.0554 58.4211C19.6446 59.2641 19.6447 59.2641 19.6448 59.264C19.6449 59.264 19.645 59.2639 19.6452 59.2637C19.6455 59.2635 19.646 59.2632 19.6466 59.2627C19.6479 59.2619 19.6497 59.2606 19.6521 59.2589C19.6568 59.2556 19.6638 59.2507 19.6731 59.2442C19.6915 59.2313 19.7188 59.2122 19.7546 59.187C19.826 59.1368 19.9313 59.0627 20.0671 58.9666C20.3386 58.7746 20.7323 58.4949 21.2224 58.1432C22.2023 57.4401 23.5683 56.449 25.113 55.2965C28.1957 52.9963 32.016 50.0341 34.8995 47.4292L33.5205 45.9027C30.7111 48.4406 26.9541 51.356 23.8828 53.6477C22.3505 54.791 20.9952 55.7744 20.0232 56.4718C19.5372 56.8205 19.1473 57.0975 18.8792 57.2871C18.7451 57.3819 18.6415 57.4549 18.5716 57.504C18.5367 57.5286 18.5101 57.5472 18.4924 57.5596C18.4836 57.5658 18.477 57.5705 18.4726 57.5735C18.4704 57.5751 18.4688 57.5762 18.4677 57.5769C18.4672 57.5773 18.4668 57.5776 18.4665 57.5777C18.4664 57.5778 18.4663 57.5779 18.4663 57.5779C18.4662 57.578 18.4662 57.578 19.0554 58.4211ZM34.8995 47.4292C37.7437 44.8598 39.5519 43.595 41.1028 42.2923C42.6529 40.9904 43.7622 39.7818 44.8657 37.5749L43.0257 36.6549C42.072 38.5623 41.1599 39.5578 39.7797 40.7171C38.4003 41.8757 36.3692 43.3292 33.5205 45.9027L34.8995 47.4292Z" fill="white"/>
<path d="M18.6722 57.8333C18.6722 57.8333 12.5008 40.9353 22.1987 37.1149C31.8967 33.2945 31.7498 33.1476 31.7497 30.6496" stroke="white" stroke-width="2.05714" stroke-linecap="round"/>
<path d="M32.4434 16.7136C32.4434 16.7136 25.9354 20.5323 23.3332 23.4728C21.1703 25.917 21.7169 29.7912 21.8638 31.8483" stroke="white" stroke-width="2.05714" stroke-linecap="round"/>
<path d="M14.5309 37.748C14.6243 38.3084 15.1542 38.6869 15.7146 38.5935C16.2749 38.5001 16.6534 37.9702 16.56 37.4098L14.5309 37.748ZM14.9194 22.4251C14.3155 23.6327 14.0274 25.2242 13.9002 26.8358C13.7712 28.47 13.8008 30.229 13.8941 31.8346C13.9877 33.4435 14.1465 34.9185 14.2816 35.9903C14.3492 36.5268 14.4111 36.9637 14.4563 37.2676C14.4789 37.4195 14.4973 37.5383 14.5102 37.6198C14.5167 37.6605 14.5217 37.6919 14.5252 37.7135C14.527 37.7242 14.5283 37.7325 14.5293 37.7383C14.5298 37.7412 14.5301 37.7435 14.5304 37.7451C14.5305 37.7459 14.5306 37.7466 14.5307 37.7471C14.5308 37.7473 14.5308 37.7475 14.5308 37.7477C14.5309 37.7479 14.5309 37.748 15.5455 37.5789C16.56 37.4098 16.5601 37.4099 16.5601 37.41C16.5601 37.4099 16.5601 37.4099 16.56 37.4099C16.56 37.4097 16.56 37.4094 16.5599 37.4089C16.5597 37.408 16.5595 37.4064 16.5591 37.4042C16.5584 37.3998 16.5572 37.3928 16.5557 37.3835C16.5527 37.3647 16.5481 37.3362 16.5421 37.2985C16.5302 37.2229 16.5127 37.1104 16.4911 36.9651C16.4479 36.6743 16.3881 36.2526 16.3226 35.7329C16.1914 34.6925 16.0379 33.2654 15.9478 31.7152C15.8575 30.1615 15.832 28.5042 15.9509 26.9977C16.0717 25.4684 16.3346 24.1945 16.7593 23.3451L14.9194 22.4251ZM40.7296 1.57895C40.1404 0.735851 40.1403 0.735901 40.1402 0.735975C40.1401 0.736033 40.14 0.736133 40.1398 0.736249C40.1395 0.736482 40.139 0.736816 40.1384 0.73725C40.1371 0.738117 40.1353 0.739385 40.133 0.741048C40.1282 0.744376 40.1212 0.749288 40.112 0.755755C40.0935 0.768688 40.0662 0.787838 40.0305 0.812958C39.959 0.863197 39.8537 0.93732 39.718 1.03335C39.4464 1.22541 39.0527 1.50514 38.5626 1.85675C37.5827 2.55986 36.2167 3.55095 34.672 4.70355C31.5893 7.00369 27.7691 9.96586 24.8855 12.5708L26.2645 14.0973C29.0739 11.5594 32.8309 8.644 35.9022 6.35231C37.4345 5.20898 38.7898 4.22559 39.7619 3.52818C40.2478 3.17954 40.6377 2.90251 40.9058 2.71287C41.0399 2.61805 41.1435 2.5451 41.2134 2.49596C41.2483 2.4714 41.2749 2.45279 41.2926 2.44039C41.3014 2.43419 41.3081 2.42954 41.3124 2.42647C41.3146 2.42494 41.3163 2.4238 41.3173 2.42306C41.3178 2.42269 41.3182 2.42242 41.3185 2.42225C41.3186 2.42216 41.3187 2.42211 41.3187 2.42207C41.3188 2.42204 41.3188 2.42204 40.7296 1.57895ZM24.8855 12.5708C22.0413 15.1402 20.2331 16.405 18.6822 17.7077C17.1321 19.0096 16.0228 20.2182 14.9194 22.4251L16.7593 23.3451C17.713 21.4377 18.6251 20.4422 20.0053 19.2829C21.3847 18.1243 23.4158 16.6708 26.2645 14.0973L24.8855 12.5708Z" fill="white"/>
<path d="M41.1128 2.1667C41.1128 2.1667 47.2842 19.0647 37.5863 22.8851C27.8883 26.7055 28.0353 26.8524 28.0353 29.3504" stroke="white" stroke-width="2.05714" stroke-linecap="round"/>
<defs>
<linearGradient id="paint0_linear_4602_274" x1="30" y1="0" x2="30" y2="62.5263" gradientUnits="userSpaceOnUse">
<stop offset="0.0001" stop-color="#AD62E2"/>
<stop offset="1" stop-color="#3D1657"/>
</linearGradient>
</defs>
</svg>
