<svg width="104" height="104" viewBox="0 0 104 104" fill="none" xmlns="http://www.w3.org/2000/svg">
<circle cx="52" cy="52" r="52" fill="#9535D8"/>
<path d="M51.6 9C50.6666 9 49.62 10.0012 49.62 10.98V16.92C49.6052 17.966 50.5538 18.9282 51.6 18.9282C52.6462 18.9282 53.5948 17.966 53.58 16.92V10.98C53.58 9.85653 52.5334 9 51.6 9ZM78.33 20.8181C78.247 20.8233 78.1642 20.8336 78.0825 20.8491C77.6501 20.9115 77.2405 21.1219 76.9378 21.4369L72.9778 25.3969C72.2171 26.1203 72.1964 27.4779 72.9345 28.2242C73.6727 28.9706 75.0304 28.9648 75.7622 28.2122L79.7222 24.2522C80.3089 23.7102 80.5136 22.794 80.2135 22.0538C79.9134 21.3135 79.1285 20.7986 78.33 20.8181ZM24.6534 20.8491C23.9037 20.922 23.2195 21.4614 22.9736 22.1734C22.7276 22.8853 22.933 23.732 23.4778 24.2522L27.4378 28.2122C28.1696 28.9648 29.5273 28.9706 30.2655 28.2242C31.0036 27.4779 30.9829 26.1203 30.2222 25.3969L26.2622 21.4369C25.8498 21.0144 25.2411 20.7919 24.6534 20.8491ZM51.6 26.82C40.5329 26.82 29.82 35.8422 29.82 48.6C29.82 64.1655 40.3224 66.4648 41.5762 76.32H61.6237C62.8776 66.4648 73.38 64.1655 73.38 48.6C73.38 35.8422 62.6671 26.82 51.6 26.82ZM80.31 49.59C80.31 50.5234 81.2484 51.57 82.29 51.57H89.22C90.266 51.5848 91.2 50.6362 91.2 49.59C91.2 48.5438 90.266 47.5952 89.22 47.61H82.29C81.1493 47.61 80.31 48.6566 80.31 49.59ZM12 49.59C12 50.5234 12.942 51.57 13.98 51.57H19.92C20.966 51.5848 21.9282 50.6362 21.9282 49.59C21.9282 48.5438 20.966 47.5952 19.92 47.61H13.98C12.8412 47.61 12 48.6566 12 49.59ZM30.0675 68.8331C29.5568 68.8533 29.0572 69.0804 28.7062 69.4519L23.6016 74.5256C22.8409 75.2491 22.8201 76.6066 23.5583 77.353C24.2965 78.0993 25.6542 78.0936 26.3859 77.3409L31.4906 72.2363C32.0592 71.6864 32.2461 70.7785 31.941 70.0488C31.6358 69.3191 30.8582 68.8145 30.0675 68.8331ZM72.885 68.8331C72.1353 68.9061 71.4511 69.4455 71.2051 70.1574C70.9592 70.8694 71.1646 71.7161 71.7094 72.2363L76.8141 77.3409C77.5458 78.0936 78.9035 78.0993 79.6417 77.353C80.3799 76.6066 80.3591 75.2491 79.5984 74.5256L74.4937 69.4519C74.1283 69.0659 73.6021 68.8371 73.0706 68.8331C73.0088 68.8303 72.9468 68.8303 72.885 68.8331ZM41.7 80.28V90.18C41.7 92.4551 43.5706 94.14 45.66 94.14H57.54C59.6294 94.14 61.5 92.4551 61.5 90.18V80.28H41.7Z" fill="#EEE6FF"/>
</svg>
