<svg width="40" height="40" viewBox="0 0 40 40" fill="none" xmlns="http://www.w3.org/2000/svg">
<path d="M37.0202 9.42679C35.7483 9.98945 34.3996 10.3591 33.0185 10.5235C34.4736 9.65202 35.5624 8.28135 36.0819 6.66679C34.7152 7.48012 33.2169 8.05012 31.6569 8.35845C30.6079 7.23609 29.2175 6.49173 27.7018 6.2411C26.1861 5.99047 24.6301 6.24761 23.2757 6.97254C21.9212 7.69748 20.8442 8.84959 20.2121 10.2498C19.5799 11.65 19.4281 13.2198 19.7802 14.7151C17.0084 14.5764 14.2968 13.8563 11.8214 12.6016C9.34606 11.3468 7.16227 9.5854 5.41188 7.43179C4.79236 8.49587 4.4668 9.7055 4.46854 10.9368C4.46854 13.3535 5.70021 15.4885 7.56854 16.7385C6.4619 16.7036 5.37962 16.4047 4.41188 15.8668V15.9518C4.41182 17.5616 4.9686 19.1218 5.98776 20.3679C7.00692 21.614 8.42573 22.4692 10.0035 22.7885C8.97628 23.0671 7.89903 23.1082 6.85354 22.9085C7.29841 24.2941 8.16556 25.5059 9.33354 26.3741C10.5015 27.2423 11.9118 27.7235 13.3669 27.7501C11.9208 28.8859 10.265 29.7254 8.49422 30.2207C6.72343 30.7161 4.87235 30.8574 3.04688 30.6368C6.23308 32.6858 9.94205 33.7736 13.7302 33.7701C26.5535 33.7701 33.5635 23.1485 33.5635 13.9368C33.5635 13.6368 33.5569 13.3335 33.5435 13.0351C34.9075 12.0491 36.0849 10.8261 37.0202 9.42679Z" fill="white"/>
</svg>
